<svg xmlns="http://www.w3.org/2000/svg" width="67.16" height="94" viewBox="0 0 67.16 94">
  <g id="bill_1_" data-name="bill (1)" transform="translate(-73.097)">
    <path id="Path_4316" data-name="Path 4316" d="M144.541,94.584,137.41,98.63a.92.92,0,0,1-.909,0l-7.143-4.053a.921.921,0,0,0-.909,0l-7.142,4.053a.921.921,0,0,1-.909,0l-7.142-4.053a.921.921,0,0,0-.909,0l-7.142,4.053a.921.921,0,0,1-.909,0l-7.141-4.053a.921.921,0,0,0-.909,0L89.107,98.63a.921.921,0,0,1-.909,0l-7.129-4.046a.92.92,0,0,1-.466-.8V8.425a.921.921,0,0,1,.921-.921h62.563a.921.921,0,0,1,.921.921V93.783A.922.922,0,0,1,144.541,94.584Z" transform="translate(-6.128 -6.126)" fill="none"/>
    <path id="Path_4317" data-name="Path 4317" d="M411.831,8.428V93.786a.917.917,0,0,1-.466.8l-3.935,2.233V7.507h3.48A.92.92,0,0,1,411.831,8.428Z" transform="translate(-272.952 -6.129)" fill="#7c979b"/>
    <g id="Group_3164" data-name="Group 3164" transform="translate(73.097)">
      <path id="Path_4318" data-name="Path 4318" d="M137.959,0H115.7a1.378,1.378,0,1,0,0,2.755h21.8V87.391l-6.674,3.787-6.918-3.925a2.311,2.311,0,0,0-2.268,0l-6.916,3.925-6.917-3.925a2.309,2.309,0,0,0-2.268,0l-6.916,3.925-6.916-3.925a2.31,2.31,0,0,0-2.269,0l-6.915,3.925-6.673-3.787V81.37a1.378,1.378,0,0,0-2.755,0v6.287a2.3,2.3,0,0,0,1.164,2L81.39,93.7a2.309,2.309,0,0,0,2.269,0l6.915-3.925L97.49,93.7a2.308,2.308,0,0,0,2.269,0l6.916-3.925,6.917,3.925a2.309,2.309,0,0,0,2.268,0l6.916-3.925,6.918,3.925a2.31,2.31,0,0,0,2.268,0l7.131-4.047a2.3,2.3,0,0,0,1.164-2V2.3A2.3,2.3,0,0,0,137.959,0Z" transform="translate(-73.097)" fill="#7c979b"/>
      <path id="Path_4319" data-name="Path 4319" d="M74.475,74.155a1.377,1.377,0,0,0,1.378-1.378V2.755h31.377a1.378,1.378,0,0,0,0-2.755H75.395a2.3,2.3,0,0,0-2.3,2.3V72.777A1.377,1.377,0,0,0,74.475,74.155Z" transform="translate(-73.097)" fill="#7c979b"/>
    </g>
    <path id="Path_4320" data-name="Path 4320" d="M152.458,214.309h-4.542a1.378,1.378,0,1,0,0,2.755h4.542a1.378,1.378,0,1,0,0-2.755Z" transform="translate(-59.958 -174.963)" fill="#7c979b"/>
    <path id="Path_4321" data-name="Path 4321" d="M235.024,214.309H208.756a1.378,1.378,0,0,0,0,2.755h26.268a1.378,1.378,0,1,0,0-2.755Z" transform="translate(-109.629 -174.963)" fill="#7c979b"/>
    <path id="Path_4322" data-name="Path 4322" d="M152.458,256.581h-4.542a1.378,1.378,0,1,0,0,2.755h4.542a1.378,1.378,0,1,0,0-2.755Z" transform="translate(-59.958 -209.474)" fill="#7c979b"/>
    <path id="Path_4323" data-name="Path 4323" d="M235.024,256.581H208.756a1.378,1.378,0,0,0,0,2.755h26.268a1.378,1.378,0,1,0,0-2.755Z" transform="translate(-109.629 -209.474)" fill="#7c979b"/>
    <path id="Path_4324" data-name="Path 4324" d="M152.458,298.854h-4.542a1.377,1.377,0,1,0,0,2.755h4.542a1.377,1.377,0,1,0,0-2.755Z" transform="translate(-59.958 -243.986)" fill="#7c979b"/>
    <path id="Path_4325" data-name="Path 4325" d="M235.024,298.854H208.756a1.377,1.377,0,1,0,0,2.755h26.268a1.377,1.377,0,1,0,0-2.755Z" transform="translate(-109.629 -243.986)" fill="#7c979b"/>
    <path id="Path_4326" data-name="Path 4326" d="M152.458,341.127h-4.542a1.377,1.377,0,1,0,0,2.755h4.542a1.377,1.377,0,1,0,0-2.755Z" transform="translate(-59.958 -278.498)" fill="#7c979b"/>
    <path id="Path_4327" data-name="Path 4327" d="M235.024,341.127H208.756a1.377,1.377,0,1,0,0,2.755h26.268a1.377,1.377,0,1,0,0-2.755Z" transform="translate(-109.629 -278.498)" fill="#7c979b"/>
    <path id="Path_4328" data-name="Path 4328" d="M152.458,383.4h-4.542a1.377,1.377,0,1,0,0,2.755h4.542a1.377,1.377,0,1,0,0-2.755Z" transform="translate(-59.958 -313.01)" fill="#7c979b"/>
    <path id="Path_4329" data-name="Path 4329" d="M235.024,383.4H208.756a1.377,1.377,0,1,0,0,2.755h26.268a1.377,1.377,0,1,0,0-2.755Z" transform="translate(-109.629 -313.01)" fill="#7c979b"/>
    <path id="Path_4330" data-name="Path 4330" d="M259.056,102.258H240.43a1.378,1.378,0,0,0,0,2.755h18.627a1.378,1.378,0,0,0,0-2.755Z" transform="translate(-135.487 -83.484)" fill="#7c979b"/>
    <path id="Path_4331" data-name="Path 4331" d="M254.3,138.145a1.378,1.378,0,0,0,0-2.755H240.43a1.378,1.378,0,0,0,0,2.755Z" transform="translate(-135.487 -110.533)" fill="#7c979b"/>
    <path id="Path_4332" data-name="Path 4332" d="M254.3,71.132H240.43a1.378,1.378,0,0,0,0,2.755H254.3a1.378,1.378,0,0,0,0-2.755Z" transform="translate(-135.487 -58.073)" fill="#7c979b"/>
    <path id="Path_2652" data-name="Path 2652" d="M151.227,174.691l2.916,3.645a.478.478,0,0,0,.851-.3v-3.346h1.912a.478.478,0,1,0,0-.956h-1.912v-.956h1.912a.478.478,0,1,0,0-.956h-1.912v-3.346a.478.478,0,0,0-.956,0v3.346h-3.881l-2.916-3.645a.478.478,0,0,0-.851.3v3.346h-1.912a.478.478,0,1,0,0,.956h1.912v.956h-1.912a.478.478,0,1,0,0,.956h1.912v3.346a.478.478,0,1,0,.956,0v-3.346Zm2.811,1.983-1.587-1.983h1.587Zm0-3.9v.956h-2.351l-.765-.956Zm-6.692-2.939,1.587,1.983h-1.587Zm0,2.939H149.7l.765.956h-3.116Z" transform="translate(-60.206 -153.271)" fill="#7c979b"/>
  </g>
</svg>
