<svg xmlns="http://www.w3.org/2000/svg" xmlns:xlink="http://www.w3.org/1999/xlink" width="54.004" height="47.161" viewBox="0 0 54.004 47.161">
  <defs>
    <linearGradient id="linear-gradient" x1="0.5" x2="0.5" y2="1" gradientUnits="objectBoundingBox">
      <stop offset="0" stop-color="#2ccfec"/>
      <stop offset="0.64" stop-color="#113c78"/>
      <stop offset="1" stop-color="#133c8b"/>
    </linearGradient>
  </defs>
  <g id="buy-airtime" transform="translate(-931.449 -644.739)">
    <g id="bank-transfer" transform="translate(944.793 644.739)">
      <rect id="Rectangle_2509" data-name="Rectangle 2509" width="25.591" height="34.321" transform="translate(0.713 6.42)" fill="#366db6"/>
      <path id="Path_2609" data-name="Path 2609" d="M215.473,320.013v2.854h2.853v-2.854h2.14l-3.567-4.28-3.567,4.28Z" transform="translate(-203.391 -286.112)" fill="#113c78"/>
      <path id="Path_2621" data-name="Path 2621" d="M7.8,0c4.309,0,7.8,3.194,7.8,7.134s-3.493,7.134-7.8,7.134S0,11.073,0,7.134,3.493,0,7.8,0Z" transform="translate(5.706 10.691)" fill="#34d183"/>
      <g id="Group_2825" data-name="Group 2825" transform="translate(0.713 0.713)">
        <path id="Path_2610" data-name="Path 2610" d="M134.066,440.907H113.391a2.4,2.4,0,0,1-2.458-2.33V435.2h25.591v3.377A2.4,2.4,0,0,1,134.066,440.907Z" transform="translate(-110.933 -395.172)" fill="#e7eced"/>
        <path id="Path_2611" data-name="Path 2611" d="M113.391,8.533h20.676a2.4,2.4,0,0,1,2.458,2.33V14.24H110.933V10.863A2.4,2.4,0,0,1,113.391,8.533Z" transform="translate(-110.933 -8.533)" fill="#e7eced"/>
      </g>
      <g id="Group_2826" data-name="Group 2826" transform="translate(-0.001)">
        <path id="Path_2612" data-name="Path 2612" d="M126.217,433.8H105.6a3.129,3.129,0,0,1-3.2-3.043V427.38a.733.733,0,0,1,.75-.713h25.517a.733.733,0,0,1,.75.713v3.377A3.129,3.129,0,0,1,126.217,433.8ZM103.9,428.094v2.664a1.662,1.662,0,0,0,1.7,1.616h20.616a1.662,1.662,0,0,0,1.7-1.616v-2.664Z" transform="translate(-102.4 -386.639)" fill="#133c8b"/>
        <path id="Path_2613" data-name="Path 2613" d="M226.86,462.228h-4.28a.713.713,0,1,1,0-1.427h4.28a.713.713,0,1,1,0,1.427Z" transform="translate(-211.211 -417.92)" fill="url(#linear-gradient)"/>
        <path id="Path_2614" data-name="Path 2614" d="M319.3,462.228h-2.853a.713.713,0,1,1,0-1.427H319.3a.713.713,0,0,1,0,1.427Z" transform="translate(-296.563 -417.92)" fill="url(#linear-gradient)"/>
        <path id="Path_2615" data-name="Path 2615" d="M148.634,462.228H145.78a.713.713,0,1,1,0-1.427h2.853a.713.713,0,1,1,0,1.427Z" transform="translate(-141.5 -417.92)" fill="url(#linear-gradient)"/>
        <path id="Path_2616" data-name="Path 2616" d="M128.668,7.134H103.15a.733.733,0,0,1-.75-.713V3.043A3.129,3.129,0,0,1,105.6,0h20.616a3.129,3.129,0,0,1,3.2,3.043V6.42A.733.733,0,0,1,128.668,7.134ZM103.9,5.707h24.016V3.043a1.663,1.663,0,0,0-1.7-1.617H105.6a1.663,1.663,0,0,0-1.7,1.617V5.707Z" transform="translate(-102.4)" fill="#133c8b"/>
        <path id="Path_2617" data-name="Path 2617" d="M212.648,35.561h-7.134a.713.713,0,1,1,0-1.427h7.134a.713.713,0,1,1,0,1.427Z" transform="translate(-195.572 -31.281)" fill="#133c8b"/>
        <path id="Path_2618" data-name="Path 2618" d="M128.668,104.015H103.15a.784.784,0,0,1-.75-.812V69.079a.784.784,0,0,1,.75-.812h25.517a.784.784,0,0,1,.75.812V103.2A.783.783,0,0,1,128.668,104.015ZM103.9,102.39h24.016v-32.5H103.9Z" transform="translate(-102.4 -62.56)" fill="#133c8b"/>
        <path id="Path_2619" data-name="Path 2619" d="M210.5,315.9H207.65a.714.714,0,0,1-.713-.713v-2.14H205.51a.713.713,0,0,1-.548-1.17l3.567-4.28a.737.737,0,0,1,1.1,0l3.567,4.28a.713.713,0,0,1-.548,1.17h-1.427v2.14A.714.714,0,0,1,210.5,315.9Zm-2.14-1.427h1.427v-2.14a.714.714,0,0,1,.713-.713h.617l-2.044-2.453-2.044,2.453h.617a.714.714,0,0,1,.713.713v2.14Z" transform="translate(-195.568 -278.391)" fill="#133c8b"/>
        <path id="Path_2620" data-name="Path 2620" d="M170.649,118.094c-4.7,0-8.516-3.52-8.516-7.847s3.82-7.847,8.516-7.847,8.516,3.52,8.516,7.847S175.344,118.094,170.649,118.094Zm0-14.267a6.442,6.442,0,1,0,6.967,6.42A6.719,6.719,0,0,0,170.649,103.827Z" transform="translate(-157.14 -92.463)" fill="#133c8b"/>
        <path id="Path_2579" data-name="Path 2579" d="M150.107,173.654l2.464,3.08a.4.4,0,0,0,.719-.252v-2.827h1.616a.4.4,0,0,0,0-.808H153.29v-.808h1.616a.4.4,0,0,0,0-.808H153.29V168.4a.4.4,0,1,0-.808,0v2.827H149.2l-2.464-3.08a.4.4,0,0,0-.719.252v2.827H144.4a.4.4,0,1,0,0,.808h1.616v.808H144.4a.4.4,0,1,0,0,.808h1.616v2.827a.4.4,0,0,0,.808,0v-2.827Zm2.375,1.676-1.341-1.676h1.341Zm0-3.292v.808H150.5l-.646-.808Zm-5.655-2.484,1.341,1.676h-1.341Zm0,2.484h1.987l.646.808h-2.633Z" transform="translate(-135.588 -155.13)" fill="#133c8b"/>
      </g>
    </g>
    <g id="mobile-phone" transform="translate(931.449 653.113)">
      <path id="Path_2586" data-name="Path 2586" d="M58.3,238.691a7.063,7.063,0,0,1,1.3-4.1,1.353,1.353,0,0,0-2.207-1.567,9.807,9.807,0,0,0,0,11.322,1.351,1.351,0,0,0,1.1.574,1.3,1.3,0,0,0,.783-.254,1.358,1.358,0,0,0,.32-1.887A7,7,0,0,1,58.3,238.691Z" transform="translate(-50.712 -228.997)" fill="#133c8b"/>
      <path id="Path_2587" data-name="Path 2587" d="M14,210.844a12.982,12.982,0,0,1,2.395-7.559,1.353,1.353,0,0,0-2.207-1.567,15.813,15.813,0,0,0,0,18.229,1.351,1.351,0,0,0,1.1.574,1.3,1.3,0,0,0,.783-.254,1.358,1.358,0,0,0,.32-1.887A12.915,12.915,0,0,1,14,210.844Z" transform="translate(-11.3 -201.15)" fill="#133c8b"/>
      <path id="Path_2588" data-name="Path 2588" d="M420.306,233.019a1.353,1.353,0,0,0-2.207,1.567,7.1,7.1,0,0,1,0,8.2,1.358,1.358,0,0,0,.32,1.887,1.379,1.379,0,0,0,.783.254,1.351,1.351,0,0,0,1.1-.574,9.7,9.7,0,0,0,1.8-5.661A9.813,9.813,0,0,0,420.306,233.019Z" transform="translate(-372.988 -228.997)" fill="#133c8b"/>
      <path id="Path_2589" data-name="Path 2589" d="M452.819,201.409a1.358,1.358,0,0,0-.32,1.887,13.127,13.127,0,0,1,0,15.118,1.358,1.358,0,0,0,.32,1.887,1.379,1.379,0,0,0,.783.254,1.351,1.351,0,0,0,1.1-.574,15.813,15.813,0,0,0,0-18.229A1.344,1.344,0,0,0,452.819,201.409Z" transform="translate(-403.593 -201.161)" fill="#133c8b"/>
    </g>
  </g>
</svg>
