<svg id="transfer" xmlns="http://www.w3.org/2000/svg" width="29.848" height="32" viewBox="0 0 29.848 32">
  <path id="Path_2600" data-name="Path 2600" d="M163.943,179.574a3.869,3.869,0,1,0,3.869,3.869A3.869,3.869,0,0,0,163.943,179.574Zm0,6.633a2.764,2.764,0,1,1,2.764-2.764A2.764,2.764,0,0,1,163.943,186.207Zm0,0" transform="translate(-149.019 -167.167)" fill="#34d183"/>
  <path id="Path_2601" data-name="Path 2601" d="M33.18,140.679h1.105v-1.105H32.627a.553.553,0,0,0-.553.553v1.658H33.18Zm0,0" transform="translate(-29.863 -129.931)" fill="#34d183"/>
  <path id="Path_2602" data-name="Path 2602" d="M33.18,299.574H32.074v1.658a.553.553,0,0,0,.553.553h1.658V300.68H33.18Zm0,0" transform="translate(-29.863 -278.876)" fill="#34d183"/>
  <path id="Path_2603" data-name="Path 2603" d="M.074,108.127v16.582a.553.553,0,0,0,.553.553H29.369a.552.552,0,0,0,.553-.553V108.127a.553.553,0,0,0-.553-.553H.627A.553.553,0,0,0,.074,108.127Zm1.105.553H28.816v15.477H1.18Zm0,0" transform="translate(-0.074 -100.142)" fill="#34d183"/>
  <path id="Path_2604" data-name="Path 2604" d="M56.947,143.443a3.32,3.32,0,0,1-3.316-3.316.553.553,0,0,0-.553-.553H36.5a.553.553,0,0,0-.553.553,3.319,3.319,0,0,1-3.316,3.316.553.553,0,0,0-.553.553v4.422a.553.553,0,0,0,.553.553,3.32,3.32,0,0,1,3.316,3.316.553.553,0,0,0,.553.553H53.078a.552.552,0,0,0,.553-.553,3.32,3.32,0,0,1,3.316-3.316.552.552,0,0,0,.553-.553V144A.553.553,0,0,0,56.947,143.443Zm-.553,4.456a4.433,4.433,0,0,0-3.835,3.835H37.014a4.432,4.432,0,0,0-3.835-3.835v-3.385a4.432,4.432,0,0,0,3.835-3.835H52.559a4.432,4.432,0,0,0,3.835,3.835Zm0,0" transform="translate(-29.863 -129.931)" fill="#34d183"/>
  <path id="Path_2605" data-name="Path 2605" d="M369.732,139.574h-1.658v1.105h1.105v1.105h1.105v-1.658A.553.553,0,0,0,369.732,139.574Zm0,0" transform="translate(-342.648 -129.931)" fill="#34d183"/>
  <path id="Path_2606" data-name="Path 2606" d="M369.18,300.68h-1.105v1.105h1.658a.552.552,0,0,0,.553-.553v-1.658H369.18Zm0,0" transform="translate(-342.648 -278.876)" fill="#34d183"/>
  <path id="Path_2607" data-name="Path 2607" d="M108.074,3.35l.553.956a13.819,13.819,0,0,1,12.312-.745l-2.333,1.166.494.989,3.316-1.658a.553.553,0,0,0,.25-.742L121.008,0l-.989.494.939,1.879a14.917,14.917,0,0,0-12.884.976Zm0,0" transform="translate(-100.612 0)" fill="#34d183"/>
  <path id="Path_2608" data-name="Path 2608" d="M118.724,382.781l-.553-.956a13.818,13.818,0,0,1-12.311.745l2.333-1.166-.494-.989-3.316,1.658a.553.553,0,0,0-.247.742l1.658,3.316.989-.494-.939-1.879a14.917,14.917,0,0,0,12.881-.976Zm0,0" transform="translate(-96.891 -354.131)" fill="#34d183"/>
</svg>
