<svg xmlns="http://www.w3.org/2000/svg" width="41.45" height="47.162" viewBox="0 0 41.45 47.162">
  <g id="currency-exchange_1_" data-name="currency-exchange (1)" transform="translate(-0.001)">
    <path id="Path_2581" data-name="Path 2581" d="M71.877,37.746l-4.306-3.075a19.156,19.156,0,0,0,3.5-11.09A19.364,19.364,0,0,0,51.9,4.241c-1.1-.14-1.22-.089-8.458-.093V1.383A1.383,1.383,0,0,0,41.255.259L31.583,7.167a1.382,1.382,0,0,0,0,2.248l4.3,3.071A19.343,19.343,0,0,0,51.73,42.923v-.007c1.195.172,1.572.07,8.29.1v2.763A1.383,1.383,0,0,0,62.2,46.9l9.672-6.908a1.382,1.382,0,0,0,0-2.248ZM40.676,4.068v1.46a1.382,1.382,0,0,0,1.38,1.382h8.32c3.848,0,6.257,2.2,6.779,5.565a9.684,9.684,0,0,0-6.807-2.8h-8.29a1.382,1.382,0,0,0-1.382,1.382v1.46L34.763,8.291ZM38.132,14.093l3.123,2.23A1.383,1.383,0,0,0,43.44,15.2V12.436h6.908a6.917,6.917,0,0,1,6.515,4.6,1.382,1.382,0,0,0,2.605,0,10.459,10.459,0,0,0-.824-8.529,16.58,16.58,0,0,1,6.678,24.551L62.2,30.838a1.383,1.383,0,0,0-2.185,1.124v2.763H53.112a6.917,6.917,0,0,1-6.515-4.6,1.382,1.382,0,0,0-2.605,0,9.657,9.657,0,0,0,1.127,8.665,16.6,16.6,0,0,1-6.986-24.69Zm24.651,29v-1.46A1.382,1.382,0,0,0,61.4,40.252h-8.29a6.92,6.92,0,0,1-6.77-5.529,9.685,9.685,0,0,0,6.77,2.766H61.4a1.382,1.382,0,0,0,1.382-1.382v-1.46L68.7,38.87Z" transform="translate(-31.004 0)" fill="#34d183"/>
    <path id="Path_2579" data-name="Path 2579" d="M150.107,173.654l2.464,3.08a.4.4,0,0,0,.719-.252v-2.827h1.616a.4.4,0,0,0,0-.808H153.29v-.808h1.616a.4.4,0,0,0,0-.808H153.29V168.4a.4.4,0,1,0-.808,0v2.827H149.2l-2.464-3.08a.4.4,0,0,0-.719.252v2.827H144.4a.4.4,0,1,0,0,.808h1.616v.808H144.4a.4.4,0,1,0,0,.808h1.616v2.827a.4.4,0,0,0,.808,0v-2.827Zm2.375,1.676-1.341-1.676h1.341Zm0-3.292v.808H150.5l-.646-.808Zm-5.655-2.484,1.341,1.676h-1.341Zm0,2.484h1.987l.646.808h-2.633Z" transform="translate(-128.899 -148.443)" fill="#34d183"/>
  </g>
</svg>
