<svg xmlns="http://www.w3.org/2000/svg" width="72" height="72" viewBox="0 0 72 72">
  <g id="notification" transform="translate(-1558 -915)">
    <circle id="Ellipse_525" data-name="Ellipse 525" cx="36" cy="36" r="36" transform="translate(1558 915)" fill="#ef1d52" opacity="0.2"/>
    <circle id="Ellipse_526" data-name="Ellipse 526" cx="24.5" cy="24.5" r="24.5" transform="translate(1570 927)" fill="#ff1a29" opacity="0.11"/>
    <g id="notification-2" data-name="notification" transform="translate(1580.667 934.328)">
      <g id="Group_2750" data-name="Group 2750" transform="translate(0 0)">
        <g id="Group_2749" data-name="Group 2749">
          <path id="Path_97" data-name="Path 97" d="M69.287,27.032,66.994,23.21a11.352,11.352,0,0,1-1.618-5.841V14.021A9.359,9.359,0,0,0,58.7,5.068v-2.4a2.671,2.671,0,1,0-5.342,0v2.4a9.359,9.359,0,0,0-6.677,8.954v3.348a11.359,11.359,0,0,1-1.617,5.84L42.77,27.031a.669.669,0,0,0,.572,1.012H68.714a.668.668,0,0,0,.573-1.011Z" transform="translate(-42.675 0)" fill="#ff1a29" stroke="#fff" stroke-width="1"/>
        </g>
      </g>
      <g id="Group_2752" data-name="Group 2752" transform="translate(9.148 29.378)">
        <g id="Group_2751" data-name="Group 2751">
          <path id="Path_98" data-name="Path 98" d="M188.815,469.333a4.646,4.646,0,0,0,8.41,0Z" transform="translate(-188.815 -469.333)" fill="#ff1a29" stroke="#fff" stroke-width="1"/>
        </g>
      </g>
    </g>
  </g>
</svg>
