<svg xmlns="http://www.w3.org/2000/svg" width="36" height="36" viewBox="0 0 36 36">
  <g id="online-payment" transform="translate(-66 -356)">
    <g id="online-payment-2" data-name="online-payment" transform="translate(91.572 362.833) rotate(90)">
      <path id="Path_94" data-name="Path 94" d="M283.86,310.9a.328.328,0,0,0-.329.329v2.509a.049.049,0,0,1-.049.049h-9.254a.329.329,0,1,0,0,.657h9.254a.707.707,0,0,0,.706-.706v-2.509A.329.329,0,0,0,283.86,310.9Z" transform="translate(-261.908 -301.14)" fill="#fff" stroke="#fff" stroke-width="0.35"/>
      <path id="Path_95" data-name="Path 95" d="M22.285,91.148a.707.707,0,0,0-.706-.706H13.4a2.564,2.564,0,0,0-2.441-2.393H2.682A2.5,2.5,0,0,0,0,90.319v11.558a.574.574,0,0,0,.985.4l.748-.768.811.919a.574.574,0,0,0,.942-.121l.748-1.477,1.1,1.5a.573.573,0,0,0,.992-.123l.259-.631.631.678a.574.574,0,0,0,.994-.391v-.5h2.623a.328.328,0,0,0,0-.657H8.213V99.5a.328.328,0,1,0-.657,0v2.15l-.575-.618a.574.574,0,0,0-.951.174l-.252.614-1.155-1.564a.514.514,0,0,0-.871.074l-.8,1.575-.79-.895a.574.574,0,0,0-.841-.02l-.667.686V90.319a1.856,1.856,0,0,1,2.025-1.613H8.352a2.107,2.107,0,0,0-.8,1.613v7.688a.328.328,0,1,0,.657,0V95.1H21.628v1.546a.328.328,0,1,0,.657,0Zm-.657,0V92.2H8.213V91.1H21.579A.049.049,0,0,1,21.628,91.148ZM10.238,88.706h.724a1.9,1.9,0,0,1,1.78,1.736H8.213v-.123A1.857,1.857,0,0,1,10.238,88.706Zm-2.025,5.74V92.857H21.628v1.589Z" transform="translate(0.166 -88.049)" fill="#fff" stroke="#fff" stroke-width="0.35"/>
      <path id="Path_96" data-name="Path 96" d="M375.687,295.823a.7.7,0,0,0,.7-.7v-1.284a.7.7,0,0,0-.7-.7H373.1a.7.7,0,0,0-.7.7v1.284a.7.7,0,0,0,.7.7Zm-2.629-.7v-1.284a.042.042,0,0,1,.042-.042h2.587a.042.042,0,0,1,.042.042v1.284a.042.042,0,0,1-.042.042H373.1A.042.042,0,0,1,373.058,295.124Z" transform="translate(-356.095 -284.157)" fill="#fff" stroke="#fff" stroke-width="0.35"/>
    </g>
    <g id="Ellipse_764" data-name="Ellipse 764" transform="translate(66 356)" fill="none" stroke="#fff" stroke-width="1">
      <circle cx="18" cy="18" r="18" stroke="none"/>
      <circle cx="18" cy="18" r="17.5" fill="none"/>
    </g>
  </g>
</svg>
