<svg id="pay-bills" xmlns="http://www.w3.org/2000/svg" width="39.29" height="44.903" viewBox="0 0 39.29 44.903">
  <path id="invoices" d="M47.306,15.342a9.822,9.822,0,1,0,9.822-9.822A9.834,9.834,0,0,0,47.306,15.342Zm18.148,0a8.326,8.326,0,1,1-8.326-8.326A8.335,8.335,0,0,1,65.454,15.342ZM57.129,10.29a.748.748,0,0,1,.748.748v.316a2.249,2.249,0,0,1,1.5,2.116.748.748,0,1,1-1.5,0,.748.748,0,0,0-1.5,0v.3a.745.745,0,0,0,.525.714l.893.279a2.236,2.236,0,0,1,1.576,2.143v.3a2.249,2.249,0,0,1-1.777,2.2v.236a.748.748,0,1,1-1.5,0v-.438a2.247,2.247,0,0,1-1.216-1.994.748.748,0,1,1,1.5,0,.748.748,0,0,0,1.5,0v-.3a.745.745,0,0,0-.525-.714l-.893-.279a2.236,2.236,0,0,1-1.576-2.143v-.3a2.249,2.249,0,0,1,1.5-2.116v-.316A.748.748,0,0,1,57.129,10.29ZM69.29,30.122v9.542A5.245,5.245,0,0,1,64.051,44.9H35.239A5.245,5.245,0,0,1,30,39.664V2.994A3,3,0,0,1,32.993,0H57.316a3,3,0,0,1,2.994,2.994.748.748,0,0,1-1.5,0,1.5,1.5,0,0,0-1.5-1.5H32.993a1.5,1.5,0,0,0-1.5,1.5V39.664a3.746,3.746,0,0,0,3.742,3.742H60.39a5.222,5.222,0,0,1-1.577-3.742V27.971a.748.748,0,1,1,1.5,0V39.664a3.742,3.742,0,1,0,7.484,0V30.122a1.5,1.5,0,0,0-1.5-1.5H63.116a.748.748,0,0,1,0-1.5H66.3A3,3,0,0,1,69.29,30.122ZM36.548,20.113a.748.748,0,0,1,.748-.748h6.361a.748.748,0,1,1,0,1.5H37.3A.748.748,0,0,1,36.548,20.113Zm0-8.419a.748.748,0,0,1,.748-.748h6.361a.748.748,0,1,1,0,1.5H37.3A.748.748,0,0,1,36.548,11.693ZM53.761,28.532a.748.748,0,0,1-.748.748H37.3a.748.748,0,0,1,0-1.5H53.013A.748.748,0,0,1,53.761,28.532Zm0,7.858a.748.748,0,0,1-.748.748H37.3a.748.748,0,0,1,0-1.5H53.013A.748.748,0,0,1,53.761,36.39Z" transform="translate(-30 0)" fill="#133c8b"/>
  <g id="Ellipse_532" data-name="Ellipse 532" transform="translate(16.956 5.434)" fill="#b7cdfe" stroke="#133c8b" stroke-width="1">
    <circle cx="10" cy="10" r="10" stroke="none"/>
    <circle cx="10" cy="10" r="9.5" fill="none"/>
  </g>
  <path id="Path_2652" data-name="Path 2652" d="M150.107,173.654l2.464,3.08a.4.4,0,0,0,.719-.252v-2.827h1.616a.4.4,0,0,0,0-.808H153.29v-.808h1.616a.4.4,0,0,0,0-.808H153.29V168.4a.4.4,0,1,0-.808,0v2.827H149.2l-2.464-3.08a.4.4,0,0,0-.719.252v2.827H144.4a.4.4,0,1,0,0,.808h1.616v.808H144.4a.4.4,0,1,0,0,.808h1.616v2.827a.4.4,0,0,0,.808,0v-2.827Zm2.375,1.676-1.341-1.676h1.341Zm0-3.292v.808H150.5l-.646-.808Zm-5.655-2.484,1.341,1.676h-1.341Zm0,2.484h1.987l.646.808h-2.633Z" transform="translate(-122.881 -156.817)" fill="#133c8b"/>
</svg>
