<svg xmlns="http://www.w3.org/2000/svg" width="36" height="36" viewBox="0 0 36 36">
  <g id="progress" transform="translate(-66 -476)">
    <g id="progress-2" data-name="progress" transform="translate(73 483)">
      <path id="Path_99" data-name="Path 99" d="M1.712,13.26a.423.423,0,0,0,.6,0l6.405-6.4,3.878,3.878a.423.423,0,0,0,.6,0l2.249-2.249a.423.423,0,0,0-.6-.6l-1.95,1.95L9.015,5.957a.423.423,0,0,0-.6,0l-6.4,6.405-.99-.99L8.716,3.679l3.878,3.878a.423.423,0,0,0,.6,0L18.3,2.446a.423.423,0,0,0,0-.6l-.156-.156,2.5-.669-.669,2.5-.085-.085a.423.423,0,0,0-.6,0L17.237,5.491a.423.423,0,0,0,.6.6l1.757-1.757.3.3a.423.423,0,0,0,.708-.19L21.652.533a.423.423,0,0,0-.518-.518L17.22,1.064a.423.423,0,0,0-.19.708l.375.375L12.893,6.659,9.015,2.781a.423.423,0,0,0-.6,0L.124,11.074a.423.423,0,0,0,0,.6Zm0,0" transform="translate(0 0)" fill="#fff"/>
      <path id="Path_100" data-name="Path 100" d="M21.243,192.885H20.82V180.091a.423.423,0,0,0-.423-.423h-2.37a.423.423,0,0,0-.423.423v12.794h-.973v-7.744a.423.423,0,0,0-.423-.423h-2.37a.423.423,0,0,0-.423.423v7.744h-.973v-5.5a.423.423,0,0,0-.423-.423H9.648a.423.423,0,0,0-.423.423v5.5H8.252v-7.744a.423.423,0,0,0-.423-.423H5.459a.423.423,0,0,0-.423.423v7.744H4.062v-3.879a.423.423,0,0,0-.423-.423H1.27a.423.423,0,0,0-.423.423v3.879H.423a.423.423,0,0,0,0,.846h20.82a.423.423,0,0,0,0-.846Zm-19.551,0v-3.456H3.216v3.456Zm4.189,0v-7.321H7.406v7.321Zm4.189,0v-5.078H11.6v5.078Zm4.189,0v-7.321h1.523v7.321Zm4.189,0V180.514h1.523v12.371Zm0,0" transform="translate(0 -172.064)" fill="#fff"/>
      <path id="Path_101" data-name="Path 101" d="M376.225,155.233a.423.423,0,1,0,.3-.124A.427.427,0,0,0,376.225,155.233Zm0,0" transform="translate(-360.186 -148.545)" fill="#fff"/>
    </g>
    <g id="Ellipse_763" data-name="Ellipse 763" transform="translate(66 476)" fill="none" stroke="#fff" stroke-width="1">
      <circle cx="18" cy="18" r="18" stroke="none"/>
      <circle cx="18" cy="18" r="17.5" fill="none"/>
    </g>
  </g>
</svg>
