<svg id="request-money" xmlns="http://www.w3.org/2000/svg" xmlns:xlink="http://www.w3.org/1999/xlink" width="59.743" height="54.74" viewBox="0 0 59.743 54.74">
  <defs>
    <linearGradient id="linear-gradient" x1="0.5" x2="0.5" y2="1" gradientUnits="objectBoundingBox">
      <stop offset="0" stop-color="#fff33b"/>
      <stop offset="0.014" stop-color="#fee72e"/>
      <stop offset="0.042" stop-color="#fed51b"/>
      <stop offset="0.07" stop-color="#fdca10"/>
      <stop offset="0.1" stop-color="#fdc70c"/>
      <stop offset="0.4" stop-color="#f3903f"/>
      <stop offset="0.8" stop-color="#ed683c"/>
      <stop offset="1" stop-color="#e93e3a"/>
    </linearGradient>
  </defs>
  <g id="hand_1_" data-name="hand (1)" transform="translate(0 0)">
    <path id="Path_2801" data-name="Path 2801" d="M59.535,236.153a4.43,4.43,0,0,0-4.406-3.109l-.427.018a4.961,4.961,0,0,0-3.313,1.45l-6.6,6.532a4.629,4.629,0,0,0-3.875-2.1H31.6a19.1,19.1,0,0,1-5.093-.677,12.519,12.519,0,0,0-11.662,2.442,16.864,16.864,0,0,0-3.1,3.343,4.186,4.186,0,0,0-5.4.538L.327,250.84a1.17,1.17,0,0,0,.021,1.645l4.84,4.774a1.17,1.17,0,1,0,1.643-1.666l-4.017-3.961,5.216-5.415a1.849,1.849,0,0,1,2.618-.044l9.306,9.031a1.848,1.848,0,0,1,.036,2.617l-5.125,5.259-1.319-1.256a1.17,1.17,0,1,0-1.614,1.695l2.156,2.054a1.171,1.171,0,0,0,1.645-.031l5.933-6.087a4.194,4.194,0,0,0,.9-4.454l2.09-.243a25.491,25.491,0,0,1,2.932-.17H41.758c.217,0,.436-.009.653-.027l1.358-.113A7.856,7.856,0,0,0,49.1,251.7l9.547-11.232a4.552,4.552,0,0,0,.884-4.318Zm-2.667,2.8-9.547,11.232a5.521,5.521,0,0,1-3.747,1.926l-1.358.113c-.151.013-.306.019-.458.019H27.591a27.876,27.876,0,0,0-3.2.185L21,252.824l-7.486-7.218a14.484,14.484,0,0,1,2.805-3.078,10.138,10.138,0,0,1,9.561-2,21.429,21.429,0,0,0,5.717.761h9.311a2.3,2.3,0,0,1,1.65.7,2.277,2.277,0,0,1,.6,1.145,1.154,1.154,0,0,0,.039.314,2.284,2.284,0,0,1-.5,1.563l-.036.045a2.278,2.278,0,0,1-1.785.857H32.77a1.17,1.17,0,0,0,0,2.34h8.106a4.607,4.607,0,0,0,3.611-1.733l.036-.045a4.616,4.616,0,0,0,1.016-2.881l7.5-7.422A2.633,2.633,0,0,1,54.8,235.4l.427-.017a2.083,2.083,0,0,1,2.075,1.464,2.223,2.223,0,0,1-.432,2.109Zm0,0" transform="translate(0 -211.154)" fill="url(#linear-gradient)"/>
    <path id="Path_2802" data-name="Path 2802" d="M68.9,394.566a3.169,3.169,0,1,0,3.169,3.169A3.172,3.172,0,0,0,68.9,394.566Zm0,4a.828.828,0,1,1,.828-.829A.83.83,0,0,1,68.9,398.564Zm0,0" transform="translate(-59.598 -357.602)" fill="url(#linear-gradient)"/>
    <path id="Path_2803" data-name="Path 2803" d="M288.435,372.465l-.06.014a1.17,1.17,0,1,0,.535,2.278l.06-.014a1.17,1.17,0,1,0-.535-2.278Zm0,0" transform="translate(-260.637 -337.535)" fill="url(#linear-gradient)"/>
    <path id="Path_2804" data-name="Path 2804" d="M88.711,505.136l-.061.014a1.17,1.17,0,0,0,.536,2.278l.06-.014a1.17,1.17,0,0,0-.535-2.279Zm0,0" transform="translate(-79.556 -457.822)" fill="url(#linear-gradient)"/>
    <path id="Path_2805" data-name="Path 2805" d="M246.6,23.352a12.385,12.385,0,0,0,0-24.77,12.258,12.258,0,0,0-7.641,2.638A12.385,12.385,0,0,0,246.6,23.352ZM237.884,5.977a10.109,10.109,0,0,1,2.523-2.916A9.944,9.944,0,0,1,246.6.923a10.04,10.04,0,1,1-8.719,5.054Zm0,0" transform="translate(-212.355 1.418)" fill="url(#linear-gradient)"/>
  </g>
  <g id="nigeria-naira-currency-symbol" transform="translate(27.538 6.479)">
    <path id="Path_2650" data-name="Path 2650" d="M13.093,51.283H11.237V49.5h1.856a.5.5,0,1,0,0-1.01H11.237V46.014a1.194,1.194,0,0,0-.212-.788A.68.68,0,0,0,10.471,45a.651.651,0,0,0-.533.224,1.208,1.208,0,0,0-.21.79V48.49H6.237L4.752,46.243c-.127-.2-.247-.388-.363-.569a2.529,2.529,0,0,0-.3-.393.968.968,0,0,0-.3-.207.98.98,0,0,0-.4-.073,1.022,1.022,0,0,0-.571.172.945.945,0,0,0-.374.433,2.213,2.213,0,0,0-.1.757V48.49H.5a.5.5,0,0,0,0,1.01H2.343v1.784H.5a.5.5,0,1,0,0,1.01H2.343v2.826a1.168,1.168,0,0,0,.22.78.682.682,0,0,0,.554.233.694.694,0,0,0,.55-.234,1.142,1.142,0,0,0,.223-.779V52.293H7.049l1.71,2.622c.119.173.242.348.364.52a2.46,2.46,0,0,0,.358.4,1.115,1.115,0,0,0,.365.224,1.348,1.348,0,0,0,.455.071c.462,0,.936-.142.936-1.191V52.293h1.856a.5.5,0,0,0,0-1.01ZM9.729,49.5v1.784H8.083L6.9,49.5ZM3.889,47.45l.678,1.04H3.889Zm0,3.834V49.5H5.226L6.39,51.283Zm5.839,2.49-.978-1.48h.978v1.48Z" transform="translate(0 -45.001)" fill="url(#linear-gradient)"/>
  </g>
</svg>
