<svg xmlns="http://www.w3.org/2000/svg" xmlns:xlink="http://www.w3.org/1999/xlink" width="60" height="30" viewBox="0 0 60 30">
  <defs>
    <linearGradient id="linear-gradient" x1="0.5" x2="0.5" y2="1" gradientUnits="objectBoundingBox">
      <stop offset="0" stop-color="#fff33b"/>
      <stop offset="0.014" stop-color="#fee72e"/>
      <stop offset="0.042" stop-color="#fed51b"/>
      <stop offset="0.07" stop-color="#fdca10"/>
      <stop offset="0.1" stop-color="#fdc70c"/>
      <stop offset="0.4" stop-color="#f3903f"/>
      <stop offset="0.8" stop-color="#ed683c"/>
      <stop offset="1" stop-color="#e93e3a"/>
    </linearGradient>
  </defs>
  <g id="Group_3286" data-name="Group 3286" transform="translate(-265 -219)">
    <rect id="Rectangle_2728" data-name="Rectangle 2728" width="60" height="30" rx="2" transform="translate(265 219)" fill="#0d0b0b"/>
    <g id="visa_1_" data-name="visa (1)" transform="translate(277.904 128.77)">
      <g id="Group_3205" data-name="Group 3205" transform="translate(3.185 100.23)">
        <g id="Group_3204" data-name="Group 3204" transform="translate(0 0)">
          <path id="Path_4398" data-name="Path 4398" d="M38.009,100.23,36.3,110.875h2.734l1.71-10.645Zm8.247,4.336c-.955-.472-1.541-.79-1.541-1.273.012-.439.5-.888,1.575-.888a4.758,4.758,0,0,1,2.037.394l.248.111.372-2.227a6.9,6.9,0,0,0-2.454-.439c-2.7,0-4.6,1.4-4.613,3.412-.022,1.482,1.361,2.3,2.4,2.8,1.058.506,1.418.834,1.418,1.284-.012.69-.855,1.009-1.642,1.009a5.561,5.561,0,0,1-2.566-.549l-.36-.164-.382,2.315a8.539,8.539,0,0,0,3.05.55c2.87,0,4.737-1.383,4.76-3.522C48.563,106.2,47.833,105.3,46.257,104.566Zm9.7-4.3H53.842a1.355,1.355,0,0,0-1.429.856l-4.061,9.756h2.87l.79-2.112h3.21l.41,2.121h2.531Zm-3.151,6.368c.055.005,1.1-3.448,1.1-3.448l.833,3.448Zm-18.792-6.4-2.679,7.232-.292-1.426a7.947,7.947,0,0,0-3.781-4.322l2.453,9.151h2.893l4.3-10.633H34.014Z" transform="translate(-27.262 -100.23)" fill="#03a8fa"/>
        </g>
      </g>
      <path id="Path_4399" data-name="Path 4399" d="M6.065,101.619a1.786,1.786,0,0,0-1.779-1.371H.044l-.044.2a10.414,10.414,0,0,1,6.988,5.688Z" transform="translate(0 -0.016)" fill="url(#linear-gradient)"/>
    </g>
  </g>
</svg>
