<svg width="184" height="55" viewBox="0 0 184 55" fill="none" xmlns="http://www.w3.org/2000/svg">
<g clip-path="url(#clip0)">
<path d="M169.347 4.90503e-05H14.6609C14.097 4.90503e-05 13.5399 4.90504e-05 12.9776 0.00279905C12.5068 0.00554905 12.0398 0.0135378 11.5646 0.0202616C10.5321 0.0311265 9.502 0.112354 8.4833 0.263238C7.46604 0.417406 6.48064 0.708058 5.56044 1.12536C4.64136 1.5462 3.80157 2.09303 3.07154 2.74602C2.33767 3.39717 1.72594 4.14982 1.25986 4.97502C0.792499 5.79857 0.468427 6.68109 0.29884 7.59208C0.127641 8.50193 0.0355169 9.42227 0.0232952 10.3448C0.00902594 10.7664 0.00751905 11.1894 0 11.611V43.3931C0.00751905 43.8201 0.00902594 44.2337 0.0232952 44.6607C0.0355207 45.5833 0.127645 46.5035 0.29884 47.4133C0.467958 48.3249 0.79205 49.2079 1.25986 50.0318C1.72573 50.8543 2.33755 51.6039 3.07154 52.2514C3.7988 52.9073 4.63913 53.4545 5.56044 53.8721C6.48063 54.2906 7.46592 54.5829 8.4833 54.7395C9.50217 54.8892 10.5321 54.9704 11.5646 54.9826C12.0398 54.9919 12.5068 54.9973 12.9776 54.9973C13.5399 55 14.0971 55 14.6609 55H169.347C169.9 55 170.462 55 171.014 54.9973C171.483 54.9973 171.963 54.9919 172.432 54.9826C173.462 54.9711 174.49 54.8898 175.507 54.7395C176.528 54.5818 177.516 54.2895 178.441 53.8721C179.362 53.4543 180.201 52.9071 180.928 52.2514C181.66 51.6014 182.273 50.8523 182.745 50.0318C183.209 49.2073 183.53 48.3243 183.697 47.4133C183.868 46.5034 183.963 45.5833 183.982 44.6607C183.988 44.2337 183.988 43.8201 183.988 43.3931C184 42.8936 184 42.3968 184 41.8891V13.1122C184 12.6087 184 12.1092 183.988 11.611C183.988 11.1894 183.988 10.7664 183.982 10.3448C183.963 9.42213 183.868 8.502 183.697 7.59203C183.53 6.68156 183.209 5.79912 182.745 4.97496C181.796 3.32094 180.29 1.97458 178.441 1.12524C177.516 0.708954 176.528 0.41838 175.507 0.263114C174.49 0.111565 173.462 0.0303097 172.432 0.020069C171.963 0.0133591 171.483 0.00530155 171.014 0.0026203C170.462 -0.0001297 169.9 -0.0001297 169.347 -0.0001297V4.90503e-05Z" fill="#A6A6A6"/>
<path d="M12.8523 53.801C12.383 53.801 11.925 53.7956 11.4594 53.7863C10.4948 53.7751 9.53254 53.7001 8.58038 53.562C7.69254 53.4254 6.83246 53.1715 6.02852 52.8085C5.23194 52.4484 4.5054 51.9764 3.87673 51.4103C3.23895 50.851 2.70798 50.2022 2.30484 49.4898C1.89726 48.7727 1.61519 48.004 1.46846 47.2106C1.31 46.3581 1.22427 45.4961 1.212 44.632C1.20224 44.3419 1.18945 43.3762 1.18945 43.3762V11.6063C1.18945 11.6063 1.20307 10.6554 1.21208 10.376C1.22383 9.51328 1.30906 8.65259 1.46704 7.80139C1.61405 7.00581 1.89634 6.23496 2.30413 5.51552C2.70579 4.80355 3.23381 4.1543 3.86775 3.59294C4.50097 3.02624 5.22983 2.55174 6.02776 2.18675C6.82986 1.82489 7.68831 1.57271 8.57436 1.43867C9.52965 1.29917 10.4953 1.22375 11.4632 1.21305L12.853 1.19625H171.147L172.553 1.21372C173.512 1.2239 174.469 1.29864 175.416 1.43733C176.311 1.57305 177.178 1.82698 177.989 2.19078C179.588 2.92635 180.889 4.09008 181.709 5.51888C182.11 6.23335 182.388 6.99791 182.534 7.78662C182.693 8.6448 182.783 9.51226 182.801 10.3821C182.806 10.7716 182.806 11.1899 182.806 11.6063C182.818 12.122 182.818 12.6129 182.818 13.1078V41.8907C182.818 42.3904 182.818 42.8779 182.806 43.3694C182.806 43.8167 182.806 44.2264 182.8 44.6481C182.782 45.5023 182.694 46.3543 182.536 47.1971C182.393 47.9963 182.112 48.7709 181.705 49.4939C181.299 50.1986 180.771 50.8417 180.14 51.3996C179.511 51.9687 178.783 52.4435 177.985 52.8058C177.176 53.1717 176.31 53.4266 175.416 53.562C174.464 53.7008 173.501 53.7758 172.537 53.7863C172.085 53.7956 171.613 53.801 171.154 53.801L169.485 53.8038L12.8523 53.801Z" fill="black"/>
<path d="M44.7014 27.9134C44.716 26.7658 45.0182 25.6405 45.5798 24.6423C46.1414 23.6441 46.9441 22.8055 47.9133 22.2044C47.2976 21.3173 46.4853 20.5872 45.541 20.0722C44.5967 19.5572 43.5464 19.2714 42.4735 19.2376C40.1847 18.9952 37.9659 20.6192 36.7996 20.6192C35.6107 20.6192 33.815 19.2616 31.8814 19.3018C30.6306 19.3425 29.4116 19.7094 28.3432 20.3668C27.2749 21.0241 26.3935 21.9494 25.7849 23.0526C23.149 27.6566 25.1152 34.4231 27.6402 38.1447C28.9035 39.967 30.38 42.0027 32.3119 41.9305C34.2024 41.8514 34.9085 40.7143 37.1905 40.7143C39.4514 40.7143 40.1138 41.9305 42.0849 41.8846C44.1135 41.8513 45.3917 40.0541 46.6107 38.2145C47.5184 36.916 48.2168 35.4809 48.6802 33.9623C47.5016 33.4594 46.4959 32.6177 45.7883 31.542C45.0808 30.4664 44.7028 29.2044 44.7014 27.9134Z" fill="white"/>
<path d="M40.9777 16.79C42.0838 15.4504 42.6287 13.7287 42.4967 11.9904C40.8069 12.1694 39.2459 12.9842 38.1249 14.2723C37.5768 14.9016 37.157 15.6337 36.8895 16.4268C36.6221 17.2198 36.5121 18.0583 36.5661 18.8943C37.4113 18.903 38.2475 18.7182 39.0116 18.3537C39.7758 17.9892 40.448 17.4546 40.9777 16.79Z" fill="white"/>
<path d="M68.5986 37.317H62.1471L60.5978 41.9321H57.8652L63.9759 24.8574H66.815L72.9257 41.9321H70.1465L68.5986 37.317ZM62.8153 35.1874H67.9291L65.4082 27.6974H65.3376L62.8153 35.1874Z" fill="white"/>
<path d="M86.1238 35.7084C86.1238 39.5769 84.0714 42.0624 80.9741 42.0624C80.1895 42.1038 79.4092 41.9214 78.7226 41.5362C78.0359 41.1511 77.4707 40.5786 77.0915 39.8844H77.0329V46.0504H74.5V29.4833H76.9518V31.5538H76.9984C77.3949 30.8629 77.9697 30.2934 78.6616 29.9059C79.3535 29.5183 80.1366 29.3273 80.9275 29.353C84.0594 29.353 86.1238 31.8506 86.1238 35.7084ZM83.5203 35.7084C83.5203 33.188 82.2292 31.531 80.2593 31.531C78.324 31.531 77.0223 33.2229 77.0223 35.7084C77.0223 38.2167 78.324 39.8965 80.2593 39.8965C82.2293 39.8965 83.5203 38.2516 83.5203 35.7084Z" fill="white"/>
<path d="M99.7039 35.7084C99.7039 39.5769 97.6515 42.0624 94.5542 42.0624C93.7696 42.1038 92.9893 41.9215 92.3027 41.5363C91.616 41.1511 91.0507 40.5786 90.6716 39.8844H90.613V46.0504H88.0801V29.4833H90.5318V31.5538H90.5784C90.975 30.863 91.5498 30.2934 92.2416 29.9059C92.9335 29.5184 93.7166 29.3273 94.5076 29.353C97.6395 29.353 99.7039 31.8506 99.7039 35.7084ZM97.1004 35.7084C97.1004 33.188 95.8093 31.531 93.8394 31.531C91.9041 31.531 90.6024 33.2229 90.6024 35.7084C90.6024 38.2167 91.9041 39.8965 93.8394 39.8965C95.8093 39.8965 97.1004 38.2516 97.1004 35.7084H97.1004Z" fill="white"/>
<path d="M108.681 37.1747C108.868 38.8679 110.499 39.9797 112.727 39.9797C114.862 39.9797 116.398 38.8679 116.398 37.3411C116.398 36.0158 115.472 35.2222 113.278 34.6784L111.085 34.1453C107.977 33.388 106.534 31.9217 106.534 29.5423C106.534 26.5962 109.079 24.5727 112.692 24.5727C116.269 24.5727 118.721 26.5962 118.803 29.5423H116.246C116.093 27.8383 114.697 26.8097 112.656 26.8097C110.616 26.8097 109.22 27.8504 109.22 29.365C109.22 30.5722 110.112 31.2825 112.293 31.8263L114.158 32.2882C117.63 33.1167 119.073 34.524 119.073 37.0215C119.073 40.2159 116.551 42.2167 112.539 42.2167C108.786 42.2167 106.252 40.2629 106.088 37.1745L108.681 37.1747Z" fill="white"/>
<path d="M124.54 26.5372V29.4833H126.887V31.5068H124.54V38.3697C124.54 39.4359 125.01 39.9327 126.042 39.9327C126.32 39.9278 126.598 39.9081 126.875 39.8736V41.8851C126.411 41.9725 125.94 42.0121 125.468 42.0033C122.97 42.0033 121.995 41.0566 121.995 38.6423V31.5068H120.201V29.4833H121.995V26.5372H124.54Z" fill="white"/>
<path d="M128.246 35.7084C128.246 31.7915 130.533 29.3302 134.099 29.3302C137.676 29.3302 139.952 31.7915 139.952 35.7084C139.952 39.636 137.688 42.0865 134.099 42.0865C130.51 42.0865 128.246 39.636 128.246 35.7084ZM137.372 35.7084C137.372 33.0215 136.151 31.4357 134.099 31.4357C132.046 31.4357 130.827 33.0336 130.827 35.7084C130.827 38.406 132.046 39.9797 134.099 39.9797C136.151 39.9797 137.371 38.406 137.371 35.7084H137.372Z" fill="white"/>
<path d="M142.041 29.4833H144.457V31.6021H144.515C144.679 30.9404 145.063 30.3555 145.604 29.946C146.144 29.5364 146.808 29.327 147.484 29.353C147.775 29.352 148.067 29.384 148.351 29.4483V31.8385C147.983 31.7249 147.599 31.6727 147.213 31.6841C146.845 31.669 146.479 31.7345 146.138 31.8759C145.797 32.0174 145.491 32.2315 145.241 32.5036C144.99 32.7757 144.8 33.0994 144.685 33.4523C144.57 33.8052 144.532 34.1791 144.574 34.5482V41.9321H142.041L142.041 29.4833Z" fill="white"/>
<path d="M160.03 38.2758C159.689 40.5356 157.507 42.0865 154.716 42.0865C151.127 42.0865 148.898 39.6601 148.898 35.7675C148.898 31.8627 151.139 29.3302 154.61 29.3302C158.024 29.3302 160.171 31.6962 160.171 35.4707V36.3462H151.455V36.5006C151.415 36.9588 151.472 37.4203 151.622 37.8546C151.772 38.2889 152.012 38.6859 152.326 39.0194C152.64 39.3529 153.021 39.6152 153.443 39.7889C153.865 39.9626 154.319 40.0436 154.775 40.0267C155.373 40.0833 155.974 39.9434 156.488 39.628C157.001 39.3125 157.4 38.8382 157.625 38.2757L160.03 38.2758ZM151.467 34.5603H157.637C157.659 34.1484 157.597 33.7361 157.455 33.3495C157.312 32.9628 157.092 32.61 156.808 32.3134C156.523 32.0167 156.181 31.7825 155.803 31.6254C155.425 31.4684 155.019 31.3919 154.61 31.4008C154.197 31.3983 153.788 31.4782 153.407 31.636C153.025 31.7938 152.678 32.0262 152.386 32.32C152.094 32.6137 151.862 32.9629 151.705 33.3475C151.547 33.732 151.466 34.1442 151.467 34.5603V34.5603Z" fill="white"/>
<path d="M62.4981 12.0051C63.0291 11.9667 63.562 12.0476 64.0583 12.2421C64.5545 12.4366 65.0018 12.7397 65.3679 13.1297C65.734 13.5197 66.0097 13.9868 66.1752 14.4973C66.3406 15.0078 66.3917 15.549 66.3248 16.0818C66.3248 18.7029 64.9206 20.2095 62.4981 20.2095H59.5605V12.0051H62.4981ZM60.8237 19.0493H62.357C62.7365 19.0721 63.1162 19.0094 63.4686 18.8655C63.821 18.7217 64.1371 18.5004 64.394 18.2177C64.6509 17.9351 64.8421 17.5982 64.9537 17.2316C65.0653 16.865 65.0944 16.4779 65.039 16.0985C65.0904 15.7206 65.0583 15.3359 64.945 14.972C64.8317 14.6081 64.6401 14.274 64.3837 13.9936C64.1274 13.7132 63.8128 13.4934 63.4624 13.3501C63.112 13.2068 62.7345 13.1434 62.357 13.1646H60.8237V19.0493Z" fill="white"/>
<path d="M67.752 17.111C67.7134 16.7041 67.7595 16.2936 67.8874 15.9057C68.0153 15.5179 68.2222 15.1613 68.4947 14.8588C68.7672 14.5563 69.0994 14.3146 69.4699 14.1493C69.8404 13.9839 70.2411 13.8985 70.6463 13.8985C71.0514 13.8985 71.4521 13.9839 71.8227 14.1493C72.1932 14.3146 72.5254 14.5563 72.7979 14.8588C73.0704 15.1613 73.2772 15.5179 73.4051 15.9057C73.533 16.2936 73.5792 16.7041 73.5406 17.111C73.5799 17.5183 73.5343 17.9294 73.4067 18.3179C73.2792 18.7063 73.0725 19.0636 72.7999 19.3666C72.5273 19.6697 72.1949 19.9119 71.824 20.0776C71.4531 20.2434 71.0519 20.329 70.6463 20.329C70.2406 20.329 69.8395 20.2434 69.4686 20.0776C69.0977 19.9119 68.7653 19.6697 68.4927 19.3666C68.2201 19.0636 68.0134 18.7063 67.8858 18.3179C67.7582 17.9294 67.7127 17.5183 67.752 17.111ZM72.2947 17.111C72.2947 15.7689 71.6971 14.984 70.6483 14.984C69.5954 14.984 69.0032 15.7689 69.0032 17.111C69.0032 18.4638 69.5955 19.2426 70.6483 19.2426C71.6971 19.2426 72.2947 18.4584 72.2947 17.111H72.2947Z" fill="white"/>
<path d="M81.2342 20.2094H79.9777L78.7093 15.6493H78.6134L77.3503 20.2094H76.1058L74.4141 14.0179H75.6426L76.742 18.7424H76.8325L78.0943 14.0179H79.2563L80.5181 18.7424H80.614L81.708 14.0179H82.9193L81.2342 20.2094Z" fill="white"/>
<path d="M84.3418 14.0179H85.5078V15.0015H85.5983C85.7518 14.6482 86.0108 14.352 86.3391 14.1543C86.6674 13.9566 87.0487 13.8671 87.4298 13.8984C87.7284 13.8757 88.0282 13.9211 88.3071 14.0313C88.586 14.1414 88.8367 14.3134 89.0407 14.5346C89.2447 14.7557 89.3968 15.0204 89.4856 15.3089C89.5745 15.5974 89.5979 15.9023 89.5541 16.2012V20.2093H88.3428V16.5081C88.3428 15.5131 87.9143 15.0182 87.0185 15.0182C86.8157 15.0087 86.6133 15.0435 86.4252 15.1203C86.237 15.1971 86.0675 15.314 85.9283 15.463C85.7891 15.612 85.6835 15.7897 85.6187 15.9837C85.554 16.1778 85.5315 16.3837 85.553 16.5873V20.2094H84.3418L84.3418 14.0179Z" fill="white"/>
<path d="M91.4844 11.6009H92.6956V20.2094H91.4844V11.6009Z" fill="white"/>
<path d="M94.3808 17.111C94.3423 16.7041 94.3885 16.2935 94.5164 15.9057C94.6443 15.5178 94.8512 15.1612 95.1237 14.8587C95.3963 14.5562 95.7285 14.3145 96.099 14.1492C96.4696 13.9838 96.8703 13.8984 97.2755 13.8984C97.6807 13.8984 98.0814 13.9838 98.4519 14.1492C98.8225 14.3145 99.1547 14.5562 99.4272 14.8587C99.6998 15.1612 99.9066 15.5178 100.035 15.9057C100.162 16.2935 100.209 16.7041 100.17 17.111C100.209 17.5183 100.164 17.9294 100.036 18.3179C99.9085 18.7064 99.7018 19.0636 99.4292 19.3667C99.1566 19.6697 98.8241 19.9119 98.4532 20.0776C98.0823 20.2434 97.6811 20.329 97.2755 20.329C96.8698 20.329 96.4686 20.2434 96.0977 20.0776C95.7268 19.9119 95.3944 19.6697 95.1218 19.3667C94.8492 19.0636 94.6424 18.7064 94.5148 18.3179C94.3872 17.9294 94.3416 17.5183 94.3808 17.111ZM98.9236 17.111C98.9236 15.7689 98.326 14.984 97.2771 14.984C96.2243 14.984 95.632 15.7689 95.632 17.111C95.632 18.4639 96.2243 19.2427 97.2771 19.2427C98.326 19.2426 98.9236 18.4585 98.9236 17.111H98.9236Z" fill="white"/>
<path d="M101.445 18.4584C101.445 17.3439 102.268 16.7014 103.728 16.6101L105.39 16.5134V15.979C105.39 15.3251 104.962 14.9558 104.134 14.9558C103.458 14.9558 102.989 15.2062 102.855 15.644H101.682C101.806 14.5805 102.798 13.8984 104.19 13.8984C105.729 13.8984 106.596 14.6711 106.596 15.979V20.2094H105.43V19.3393H105.335C105.14 19.6514 104.867 19.9059 104.543 20.0767C104.219 20.2474 103.856 20.3285 103.491 20.3114C103.233 20.3385 102.973 20.3107 102.727 20.23C102.48 20.1493 102.253 20.0174 102.061 19.8428C101.868 19.6682 101.714 19.4549 101.608 19.2164C101.502 18.978 101.446 18.7198 101.445 18.4584ZM105.39 17.9294V17.4117L103.892 17.5084C103.047 17.5655 102.663 17.8555 102.663 18.4014C102.663 18.9586 103.142 19.2829 103.801 19.2829C103.994 19.3026 104.189 19.2829 104.375 19.2251C104.56 19.1672 104.732 19.0723 104.88 18.946C105.029 18.8197 105.15 18.6646 105.238 18.49C105.325 18.3153 105.377 18.1247 105.39 17.9294Z" fill="white"/>
<path d="M108.188 17.111C108.188 15.1546 109.184 13.9152 110.735 13.9152C111.119 13.8973 111.499 13.99 111.833 14.1824C112.166 14.3747 112.438 14.6588 112.617 15.0014H112.708V11.6009H113.919V20.2094H112.758V19.2312H112.662C112.469 19.5715 112.188 19.852 111.848 20.0424C111.508 20.2329 111.123 20.3259 110.735 20.3114C109.174 20.3115 108.188 19.0721 108.188 17.111ZM109.439 17.111C109.439 18.4242 110.052 19.2144 111.079 19.2144C112.099 19.2144 112.73 18.4128 112.73 17.1164C112.73 15.8259 112.093 15.0129 111.079 15.0129C110.059 15.0129 109.439 15.8085 109.439 17.111H109.439Z" fill="white"/>
<path d="M118.93 17.111C118.891 16.7041 118.937 16.2936 119.065 15.9057C119.193 15.5179 119.4 15.1613 119.672 14.8588C119.945 14.5563 120.277 14.3146 120.648 14.1493C121.018 13.9839 121.419 13.8985 121.824 13.8985C122.229 13.8985 122.63 13.9839 123 14.1493C123.371 14.3146 123.703 14.5563 123.976 14.8588C124.248 15.1613 124.455 15.5179 124.583 15.9057C124.711 16.2936 124.757 16.7041 124.718 17.111C124.758 17.5183 124.712 17.9294 124.584 18.3179C124.457 18.7063 124.25 19.0636 123.978 19.3666C123.705 19.6697 123.373 19.9119 123.002 20.0776C122.631 20.2434 122.23 20.329 121.824 20.329C121.418 20.329 121.017 20.2434 120.646 20.0776C120.275 19.9119 119.943 19.6697 119.67 19.3666C119.398 19.0636 119.191 18.7063 119.064 18.3179C118.936 17.9294 118.89 17.5183 118.93 17.111ZM123.472 17.111C123.472 15.7689 122.875 14.984 121.826 14.984C120.773 14.984 120.181 15.7689 120.181 17.111C120.181 18.4638 120.773 19.2426 121.826 19.2426C122.875 19.2426 123.472 18.4584 123.472 17.111Z" fill="white"/>
<path d="M126.344 14.0179H127.51V15.0015H127.6C127.754 14.6482 128.013 14.352 128.341 14.1543C128.669 13.9566 129.051 13.8671 129.432 13.8984C129.73 13.8757 130.03 13.9211 130.309 14.0313C130.588 14.1414 130.839 14.3134 131.043 14.5346C131.247 14.7557 131.399 15.0204 131.488 15.3089C131.576 15.5974 131.6 15.9023 131.556 16.2012V20.2093H130.345V16.5081C130.345 15.5131 129.916 15.0182 129.02 15.0182C128.818 15.0087 128.615 15.0435 128.427 15.1203C128.239 15.1971 128.069 15.314 127.93 15.463C127.791 15.612 127.685 15.7897 127.621 15.9837C127.556 16.1778 127.534 16.3837 127.555 16.5873V20.2094H126.344V14.0179Z" fill="white"/>
<path d="M138.4 12.4764V14.0461H139.729V15.0753H138.4V18.259C138.4 18.9076 138.665 19.1916 139.268 19.1916C139.422 19.1911 139.576 19.1817 139.729 19.1634V20.1812C139.512 20.2205 139.292 20.2414 139.071 20.2436C137.724 20.2436 137.187 19.7656 137.187 18.5719V15.0753H136.213V14.046H137.187V12.4764H138.4Z" fill="white"/>
<path d="M141.385 11.6009H142.585V15.0129H142.681C142.842 14.6563 143.108 14.3585 143.443 14.16C143.778 13.9615 144.165 13.8721 144.553 13.9037C144.85 13.8874 145.147 13.9375 145.422 14.0503C145.698 14.1631 145.946 14.3359 146.147 14.5564C146.349 14.7768 146.501 15.0395 146.59 15.3257C146.68 15.6119 146.706 15.9145 146.666 16.212V20.2094H145.454V16.5134C145.454 15.5245 144.997 15.0236 144.141 15.0236C143.933 15.0064 143.724 15.0353 143.528 15.1082C143.332 15.1811 143.154 15.2964 143.007 15.4459C142.86 15.5954 142.747 15.7756 142.676 15.9738C142.605 16.172 142.578 16.3834 142.596 16.5933V20.2094H141.385L141.385 11.6009Z" fill="white"/>
<path d="M153.728 18.5377C153.563 19.1035 153.207 19.593 152.72 19.9205C152.234 20.2479 151.649 20.3925 151.068 20.3289C150.664 20.3397 150.262 20.2616 149.891 20.1C149.519 19.9384 149.187 19.6972 148.917 19.3931C148.648 19.089 148.447 18.7294 148.329 18.3391C148.21 17.9489 148.178 17.5374 148.233 17.1331C148.179 16.7277 148.212 16.3153 148.33 15.9238C148.448 15.5324 148.648 15.1711 148.916 14.8644C149.185 14.5577 149.515 14.3127 149.886 14.146C150.256 13.9793 150.657 13.8949 151.063 13.8984C152.771 13.8984 153.801 15.0754 153.801 17.0196V17.446H149.467V17.5145C149.448 17.7417 149.476 17.9704 149.55 18.1859C149.624 18.4015 149.742 18.5991 149.895 18.7661C150.049 18.9331 150.236 19.0658 150.444 19.1557C150.652 19.2456 150.876 19.2908 151.102 19.2882C151.391 19.3233 151.685 19.2707 151.945 19.137C152.205 19.0034 152.42 18.7947 152.562 18.5376L153.728 18.5377ZM149.467 16.5423H152.567C152.582 16.3345 152.554 16.1258 152.485 15.9295C152.415 15.7333 152.306 15.5539 152.164 15.4028C152.021 15.2518 151.849 15.1324 151.659 15.0524C151.468 14.9724 151.263 14.9336 151.056 14.9384C150.847 14.9357 150.639 14.9754 150.445 15.0551C150.251 15.1347 150.075 15.2528 149.926 15.4023C149.778 15.5518 149.661 15.7296 149.582 15.9254C149.504 16.1212 149.464 16.331 149.467 16.5423H149.467Z" fill="white"/>
</g>
<defs>
<clipPath id="clip0">
<rect width="184" height="55" fill="white"/>
</clipPath>
</defs>
</svg>
