<svg id="Bg" xmlns="http://www.w3.org/2000/svg" xmlns:xlink="http://www.w3.org/1999/xlink" width="576.53" height="254.98" viewBox="0 0 576.53 254.98">
  <defs>
    <clipPath id="clip-path">
      <rect id="Base" width="576.53" height="254.98" rx="15" fill="#0041c4"/>
    </clipPath>
  </defs>
  <rect id="Base-2" data-name="Base" width="576.53" height="254.98" rx="8" fill="#123b88"/>
  <g id="Bg-2" data-name="Bg" clip-path="url(#clip-path)">
    <circle id="Oval" cx="79" cy="79" r="79" transform="translate(373.677 -6.799)" fill="#01ddc3" opacity="0.05"/>
    <circle id="Oval-2" data-name="Oval" cx="79" cy="79" r="79" transform="translate(239.153 -122.391)" fill="#f9f9f9" opacity="0.05"/>
    <path id="Combined_Shape" data-name="Combined Shape" d="M484.712,260.18a3.5,3.5,0,1,1,3.5,3.5A3.5,3.5,0,0,1,484.712,260.18Zm-32.029,0a3.5,3.5,0,1,1,3.5,3.5A3.5,3.5,0,0,1,452.683,260.18Zm-32.03,0a3.5,3.5,0,1,1,3.5,3.5A3.5,3.5,0,0,1,420.653,260.18Zm-32.029,0a3.5,3.5,0,1,1,3.5,3.5A3.5,3.5,0,0,1,388.624,260.18Zm-32.029,0a3.5,3.5,0,1,1,3.5,3.5A3.5,3.5,0,0,1,356.594,260.18Zm-34.165,0a3.5,3.5,0,1,1,3.5,3.5A3.5,3.5,0,0,1,322.43,260.18Zm-32.029,0a3.5,3.5,0,1,1,3.5,3.5A3.5,3.5,0,0,1,290.4,260.18Zm-32.029,0a3.5,3.5,0,1,1,3.5,3.5A3.5,3.5,0,0,1,258.371,260.18Zm-32.03,0a3.5,3.5,0,1,1,3.5,3.5A3.5,3.5,0,0,1,226.341,260.18Zm-32.029,0a3.5,3.5,0,1,1,3.5,3.5A3.5,3.5,0,0,1,194.312,260.18Zm-32.029,0a3.5,3.5,0,1,1,3.5,3.5A3.5,3.5,0,0,1,162.283,260.18Zm-34.165,0a3.5,3.5,0,1,1,3.5,3.5A3.5,3.5,0,0,1,128.118,260.18Zm-32.029,0a3.5,3.5,0,1,1,3.5,3.5A3.5,3.5,0,0,1,96.089,260.18Zm-32.029,0a3.5,3.5,0,1,1,3.5,3.5A3.5,3.5,0,0,1,64.059,260.18Zm-32.03,0a3.5,3.5,0,1,1,3.5,3.5A3.5,3.5,0,0,1,32.029,260.18ZM0,260.18a3.5,3.5,0,1,1,3.5,3.5A3.5,3.5,0,0,1,0,260.18Zm484.712-25.5a3.5,3.5,0,1,1,3.5,3.5A3.5,3.5,0,0,1,484.712,234.682Zm-32.029,0a3.5,3.5,0,1,1,3.5,3.5A3.5,3.5,0,0,1,452.683,234.682Zm-32.03,0a3.5,3.5,0,1,1,3.5,3.5A3.5,3.5,0,0,1,420.653,234.682Zm-32.029,0a3.5,3.5,0,1,1,3.5,3.5A3.5,3.5,0,0,1,388.624,234.682Zm-32.029,0a3.5,3.5,0,1,1,3.5,3.5A3.5,3.5,0,0,1,356.594,234.682Zm-34.165,0a3.5,3.5,0,1,1,3.5,3.5A3.5,3.5,0,0,1,322.43,234.682Zm-32.029,0a3.5,3.5,0,1,1,3.5,3.5A3.5,3.5,0,0,1,290.4,234.682Zm-32.029,0a3.5,3.5,0,1,1,3.5,3.5A3.5,3.5,0,0,1,258.371,234.682Zm-32.03,0a3.5,3.5,0,1,1,3.5,3.5A3.5,3.5,0,0,1,226.341,234.682Zm-32.029,0a3.5,3.5,0,1,1,3.5,3.5A3.5,3.5,0,0,1,194.312,234.682Zm-32.029,0a3.5,3.5,0,1,1,3.5,3.5A3.5,3.5,0,0,1,162.283,234.682Zm-34.165,0a3.5,3.5,0,1,1,3.5,3.5A3.5,3.5,0,0,1,128.118,234.682Zm-32.029,0a3.5,3.5,0,1,1,3.5,3.5A3.5,3.5,0,0,1,96.089,234.682Zm-32.029,0a3.5,3.5,0,1,1,3.5,3.5A3.5,3.5,0,0,1,64.059,234.682Zm-32.03,0a3.5,3.5,0,1,1,3.5,3.5A3.5,3.5,0,0,1,32.029,234.682ZM0,234.682a3.5,3.5,0,1,1,3.5,3.5A3.5,3.5,0,0,1,0,234.682Zm484.712-25.5a3.5,3.5,0,1,1,3.5,3.5A3.5,3.5,0,0,1,484.712,209.184Zm-32.029,0a3.5,3.5,0,1,1,3.5,3.5A3.5,3.5,0,0,1,452.683,209.184Zm-32.03,0a3.5,3.5,0,1,1,3.5,3.5A3.5,3.5,0,0,1,420.653,209.184Zm-32.029,0a3.5,3.5,0,1,1,3.5,3.5A3.5,3.5,0,0,1,388.624,209.184Zm-32.029,0a3.5,3.5,0,1,1,3.5,3.5A3.5,3.5,0,0,1,356.594,209.184Zm-34.165,0a3.5,3.5,0,1,1,3.5,3.5A3.5,3.5,0,0,1,322.43,209.184Zm-32.029,0a3.5,3.5,0,1,1,3.5,3.5A3.5,3.5,0,0,1,290.4,209.184Zm-32.029,0a3.5,3.5,0,1,1,3.5,3.5A3.5,3.5,0,0,1,258.371,209.184Zm-32.03,0a3.5,3.5,0,1,1,3.5,3.5A3.5,3.5,0,0,1,226.341,209.184Zm-32.029,0a3.5,3.5,0,1,1,3.5,3.5A3.5,3.5,0,0,1,194.312,209.184Zm-32.029,0a3.5,3.5,0,1,1,3.5,3.5A3.5,3.5,0,0,1,162.283,209.184Zm-34.165,0a3.5,3.5,0,1,1,3.5,3.5A3.5,3.5,0,0,1,128.118,209.184Zm-32.029,0a3.5,3.5,0,1,1,3.5,3.5A3.5,3.5,0,0,1,96.089,209.184Zm-32.029,0a3.5,3.5,0,1,1,3.5,3.5A3.5,3.5,0,0,1,64.059,209.184Zm-32.03,0a3.5,3.5,0,1,1,3.5,3.5A3.5,3.5,0,0,1,32.029,209.184ZM0,209.184a3.5,3.5,0,1,1,3.5,3.5A3.5,3.5,0,0,1,0,209.184Zm484.712-25.5a3.5,3.5,0,1,1,3.5,3.5A3.5,3.5,0,0,1,484.712,183.686Zm-32.029,0a3.5,3.5,0,1,1,3.5,3.5A3.5,3.5,0,0,1,452.683,183.686Zm-32.03,0a3.5,3.5,0,1,1,3.5,3.5A3.5,3.5,0,0,1,420.653,183.686Zm-32.029,0a3.5,3.5,0,1,1,3.5,3.5A3.5,3.5,0,0,1,388.624,183.686Zm-32.029,0a3.5,3.5,0,1,1,3.5,3.5A3.5,3.5,0,0,1,356.594,183.686Zm-34.165,0a3.5,3.5,0,1,1,3.5,3.5A3.5,3.5,0,0,1,322.43,183.686Zm-32.029,0a3.5,3.5,0,1,1,3.5,3.5A3.5,3.5,0,0,1,290.4,183.686Zm-32.029,0a3.5,3.5,0,1,1,3.5,3.5A3.5,3.5,0,0,1,258.371,183.686Zm-32.03,0a3.5,3.5,0,1,1,3.5,3.5A3.5,3.5,0,0,1,226.341,183.686Zm-32.029,0a3.5,3.5,0,1,1,3.5,3.5A3.5,3.5,0,0,1,194.312,183.686Zm-32.029,0a3.5,3.5,0,1,1,3.5,3.5A3.5,3.5,0,0,1,162.283,183.686Zm-34.165,0a3.5,3.5,0,1,1,3.5,3.5A3.5,3.5,0,0,1,128.118,183.686Zm-32.029,0a3.5,3.5,0,1,1,3.5,3.5A3.5,3.5,0,0,1,96.089,183.686Zm-32.029,0a3.5,3.5,0,1,1,3.5,3.5A3.5,3.5,0,0,1,64.059,183.686Zm-32.03,0a3.5,3.5,0,1,1,3.5,3.5A3.5,3.5,0,0,1,32.029,183.686ZM0,183.686a3.5,3.5,0,1,1,3.5,3.5A3.5,3.5,0,0,1,0,183.686Zm484.712-25.5a3.5,3.5,0,1,1,3.5,3.5A3.5,3.5,0,0,1,484.712,158.189Zm-32.029,0a3.5,3.5,0,1,1,3.5,3.5A3.5,3.5,0,0,1,452.683,158.189Zm-32.03,0a3.5,3.5,0,1,1,3.5,3.5A3.5,3.5,0,0,1,420.653,158.189Zm-32.029,0a3.5,3.5,0,1,1,3.5,3.5A3.5,3.5,0,0,1,388.624,158.189Zm-32.029,0a3.5,3.5,0,1,1,3.5,3.5A3.5,3.5,0,0,1,356.594,158.189Zm-34.165,0a3.5,3.5,0,1,1,3.5,3.5A3.5,3.5,0,0,1,322.43,158.189Zm-32.029,0a3.5,3.5,0,1,1,3.5,3.5A3.5,3.5,0,0,1,290.4,158.189Zm-32.029,0a3.5,3.5,0,1,1,3.5,3.5A3.5,3.5,0,0,1,258.371,158.189Zm-32.03,0a3.5,3.5,0,1,1,3.5,3.5A3.5,3.5,0,0,1,226.341,158.189Zm-32.029,0a3.5,3.5,0,1,1,3.5,3.5A3.5,3.5,0,0,1,194.312,158.189Zm-32.029,0a3.5,3.5,0,1,1,3.5,3.5A3.5,3.5,0,0,1,162.283,158.189Zm-34.165,0a3.5,3.5,0,1,1,3.5,3.5A3.5,3.5,0,0,1,128.118,158.189Zm-32.029,0a3.5,3.5,0,1,1,3.5,3.5A3.5,3.5,0,0,1,96.089,158.189Zm-32.029,0a3.5,3.5,0,1,1,3.5,3.5A3.5,3.5,0,0,1,64.059,158.189Zm-32.03,0a3.5,3.5,0,1,1,3.5,3.5A3.5,3.5,0,0,1,32.029,158.189ZM0,158.189a3.5,3.5,0,1,1,3.5,3.5A3.5,3.5,0,0,1,0,158.189Zm484.712-27.2a3.5,3.5,0,1,1,3.5,3.5A3.5,3.5,0,0,1,484.712,130.991Zm-32.029,0a3.5,3.5,0,1,1,3.5,3.5A3.5,3.5,0,0,1,452.683,130.991Zm-32.03,0a3.5,3.5,0,1,1,3.5,3.5A3.5,3.5,0,0,1,420.653,130.991Zm-32.029,0a3.5,3.5,0,1,1,3.5,3.5A3.5,3.5,0,0,1,388.624,130.991Zm-32.029,0a3.5,3.5,0,1,1,3.5,3.5A3.5,3.5,0,0,1,356.594,130.991Zm-34.165,0a3.5,3.5,0,1,1,3.5,3.5A3.5,3.5,0,0,1,322.43,130.991Zm-32.029,0a3.5,3.5,0,1,1,3.5,3.5A3.5,3.5,0,0,1,290.4,130.991Zm-32.029,0a3.5,3.5,0,1,1,3.5,3.5A3.5,3.5,0,0,1,258.371,130.991Zm-32.03,0a3.5,3.5,0,1,1,3.5,3.5A3.5,3.5,0,0,1,226.341,130.991Zm-32.029,0a3.5,3.5,0,1,1,3.5,3.5A3.5,3.5,0,0,1,194.312,130.991Zm-32.029,0a3.5,3.5,0,1,1,3.5,3.5A3.5,3.5,0,0,1,162.283,130.991Zm-34.165,0a3.5,3.5,0,1,1,3.5,3.5A3.5,3.5,0,0,1,128.118,130.991Zm-32.029,0a3.5,3.5,0,1,1,3.5,3.5A3.5,3.5,0,0,1,96.089,130.991Zm-32.029,0a3.5,3.5,0,1,1,3.5,3.5A3.5,3.5,0,0,1,64.059,130.991Zm-32.03,0a3.5,3.5,0,1,1,3.5,3.5A3.5,3.5,0,0,1,32.029,130.991ZM0,130.991a3.5,3.5,0,1,1,3.5,3.5A3.5,3.5,0,0,1,0,130.991Zm484.712-25.5a3.5,3.5,0,1,1,3.5,3.5A3.5,3.5,0,0,1,484.712,105.493Zm-32.029,0a3.5,3.5,0,1,1,3.5,3.5A3.5,3.5,0,0,1,452.683,105.493Zm-32.03,0a3.5,3.5,0,1,1,3.5,3.5A3.5,3.5,0,0,1,420.653,105.493Zm-32.029,0a3.5,3.5,0,1,1,3.5,3.5A3.5,3.5,0,0,1,388.624,105.493Zm-32.029,0a3.5,3.5,0,1,1,3.5,3.5A3.5,3.5,0,0,1,356.594,105.493Zm-34.165,0a3.5,3.5,0,1,1,3.5,3.5A3.5,3.5,0,0,1,322.43,105.493Zm-32.029,0a3.5,3.5,0,1,1,3.5,3.5A3.5,3.5,0,0,1,290.4,105.493Zm-32.029,0a3.5,3.5,0,1,1,3.5,3.5A3.5,3.5,0,0,1,258.371,105.493Zm-32.03,0a3.5,3.5,0,1,1,3.5,3.5A3.5,3.5,0,0,1,226.341,105.493Zm-32.029,0a3.5,3.5,0,1,1,3.5,3.5A3.5,3.5,0,0,1,194.312,105.493Zm-32.029,0a3.5,3.5,0,1,1,3.5,3.5A3.5,3.5,0,0,1,162.283,105.493Zm-34.165,0a3.5,3.5,0,1,1,3.5,3.5A3.5,3.5,0,0,1,128.118,105.493Zm-32.029,0a3.5,3.5,0,1,1,3.5,3.5A3.5,3.5,0,0,1,96.089,105.493Zm-32.029,0a3.5,3.5,0,1,1,3.5,3.5A3.5,3.5,0,0,1,64.059,105.493Zm-32.03,0a3.5,3.5,0,1,1,3.5,3.5A3.5,3.5,0,0,1,32.029,105.493ZM0,105.493a3.5,3.5,0,1,1,3.5,3.5A3.5,3.5,0,0,1,0,105.493Zm484.712-25.5a3.5,3.5,0,1,1,3.5,3.5A3.5,3.5,0,0,1,484.712,79.994Zm-32.029,0a3.5,3.5,0,1,1,3.5,3.5A3.5,3.5,0,0,1,452.683,79.994Zm-32.03,0a3.5,3.5,0,1,1,3.5,3.5A3.5,3.5,0,0,1,420.653,79.994Zm-32.029,0a3.5,3.5,0,1,1,3.5,3.5A3.5,3.5,0,0,1,388.624,79.994Zm-32.029,0a3.5,3.5,0,1,1,3.5,3.5A3.5,3.5,0,0,1,356.594,79.994Zm-34.165,0a3.5,3.5,0,1,1,3.5,3.5A3.5,3.5,0,0,1,322.43,79.994Zm-32.029,0a3.5,3.5,0,1,1,3.5,3.5A3.5,3.5,0,0,1,290.4,79.994Zm-32.029,0a3.5,3.5,0,1,1,3.5,3.5A3.5,3.5,0,0,1,258.371,79.994Zm-32.03,0a3.5,3.5,0,1,1,3.5,3.5A3.5,3.5,0,0,1,226.341,79.994Zm-32.029,0a3.5,3.5,0,1,1,3.5,3.5A3.5,3.5,0,0,1,194.312,79.994Zm-32.029,0a3.5,3.5,0,1,1,3.5,3.5A3.5,3.5,0,0,1,162.283,79.994Zm-34.165,0a3.5,3.5,0,1,1,3.5,3.5A3.5,3.5,0,0,1,128.118,79.994Zm-32.029,0a3.5,3.5,0,1,1,3.5,3.5A3.5,3.5,0,0,1,96.089,79.994Zm-32.029,0a3.5,3.5,0,1,1,3.5,3.5A3.5,3.5,0,0,1,64.059,79.994Zm-32.03,0a3.5,3.5,0,1,1,3.5,3.5A3.5,3.5,0,0,1,32.029,79.994ZM0,79.994a3.5,3.5,0,1,1,3.5,3.5A3.5,3.5,0,0,1,0,79.994ZM484.712,54.5a3.5,3.5,0,1,1,3.5,3.5A3.5,3.5,0,0,1,484.712,54.5Zm-32.029,0a3.5,3.5,0,1,1,3.5,3.5A3.5,3.5,0,0,1,452.683,54.5Zm-32.03,0a3.5,3.5,0,1,1,3.5,3.5A3.5,3.5,0,0,1,420.653,54.5Zm-32.029,0a3.5,3.5,0,1,1,3.5,3.5A3.5,3.5,0,0,1,388.624,54.5Zm-32.029,0a3.5,3.5,0,1,1,3.5,3.5A3.5,3.5,0,0,1,356.594,54.5Zm-34.165,0a3.5,3.5,0,1,1,3.5,3.5A3.5,3.5,0,0,1,322.43,54.5Zm-32.029,0a3.5,3.5,0,1,1,3.5,3.5A3.5,3.5,0,0,1,290.4,54.5Zm-32.029,0a3.5,3.5,0,1,1,3.5,3.5A3.5,3.5,0,0,1,258.371,54.5Zm-32.03,0a3.5,3.5,0,1,1,3.5,3.5A3.5,3.5,0,0,1,226.341,54.5Zm-32.029,0a3.5,3.5,0,1,1,3.5,3.5A3.5,3.5,0,0,1,194.312,54.5Zm-32.029,0a3.5,3.5,0,1,1,3.5,3.5A3.5,3.5,0,0,1,162.283,54.5Zm-34.165,0a3.5,3.5,0,1,1,3.5,3.5A3.5,3.5,0,0,1,128.118,54.5Zm-32.029,0a3.5,3.5,0,1,1,3.5,3.5A3.5,3.5,0,0,1,96.089,54.5Zm-32.029,0a3.5,3.5,0,1,1,3.5,3.5A3.5,3.5,0,0,1,64.059,54.5Zm-32.03,0a3.5,3.5,0,1,1,3.5,3.5A3.5,3.5,0,0,1,32.029,54.5ZM0,54.5A3.5,3.5,0,1,1,3.5,58,3.5,3.5,0,0,1,0,54.5ZM484.712,29a3.5,3.5,0,1,1,3.5,3.5A3.5,3.5,0,0,1,484.712,29Zm-32.029,0a3.5,3.5,0,1,1,3.5,3.5A3.5,3.5,0,0,1,452.683,29Zm-32.03,0a3.5,3.5,0,1,1,3.5,3.5A3.5,3.5,0,0,1,420.653,29Zm-32.029,0a3.5,3.5,0,1,1,3.5,3.5A3.5,3.5,0,0,1,388.624,29Zm-32.029,0a3.5,3.5,0,1,1,3.5,3.5A3.5,3.5,0,0,1,356.594,29ZM322.43,29a3.5,3.5,0,1,1,3.5,3.5A3.5,3.5,0,0,1,322.43,29ZM290.4,29a3.5,3.5,0,1,1,3.5,3.5A3.5,3.5,0,0,1,290.4,29Zm-32.029,0a3.5,3.5,0,1,1,3.5,3.5A3.5,3.5,0,0,1,258.371,29Zm-32.03,0a3.5,3.5,0,1,1,3.5,3.5A3.5,3.5,0,0,1,226.341,29Zm-32.029,0a3.5,3.5,0,1,1,3.5,3.5A3.5,3.5,0,0,1,194.312,29Zm-32.029,0a3.5,3.5,0,1,1,3.5,3.5A3.5,3.5,0,0,1,162.283,29Zm-34.165,0a3.5,3.5,0,1,1,3.5,3.5A3.5,3.5,0,0,1,128.118,29ZM96.089,29a3.5,3.5,0,1,1,3.5,3.5A3.5,3.5,0,0,1,96.089,29ZM64.059,29a3.5,3.5,0,1,1,3.5,3.5A3.5,3.5,0,0,1,64.059,29Zm-32.03,0a3.5,3.5,0,1,1,3.5,3.5A3.5,3.5,0,0,1,32.029,29ZM0,29a3.5,3.5,0,1,1,3.5,3.5A3.5,3.5,0,0,1,0,29ZM484.712,3.5a3.5,3.5,0,1,1,3.5,3.5A3.5,3.5,0,0,1,484.712,3.5Zm-32.029,0a3.5,3.5,0,1,1,3.5,3.5A3.5,3.5,0,0,1,452.683,3.5Zm-32.03,0a3.5,3.5,0,1,1,3.5,3.5A3.5,3.5,0,0,1,420.653,3.5Zm-32.029,0a3.5,3.5,0,1,1,3.5,3.5A3.5,3.5,0,0,1,388.624,3.5Zm-32.029,0a3.5,3.5,0,1,1,3.5,3.5A3.5,3.5,0,0,1,356.594,3.5Zm-34.165,0a3.5,3.5,0,1,1,3.5,3.5A3.5,3.5,0,0,1,322.43,3.5ZM290.4,3.5A3.5,3.5,0,1,1,293.9,7,3.5,3.5,0,0,1,290.4,3.5Zm-32.029,0a3.5,3.5,0,1,1,3.5,3.5A3.5,3.5,0,0,1,258.371,3.5Zm-32.03,0a3.5,3.5,0,1,1,3.5,3.5A3.5,3.5,0,0,1,226.341,3.5Zm-32.029,0a3.5,3.5,0,1,1,3.5,3.5A3.5,3.5,0,0,1,194.312,3.5Zm-32.029,0a3.5,3.5,0,1,1,3.5,3.5A3.5,3.5,0,0,1,162.283,3.5Zm-34.165,0a3.5,3.5,0,1,1,3.5,3.5A3.5,3.5,0,0,1,128.118,3.5Zm-32.029,0a3.5,3.5,0,1,1,3.5,3.5A3.5,3.5,0,0,1,96.089,3.5Zm-32.029,0a3.5,3.5,0,1,1,3.5,3.5A3.5,3.5,0,0,1,64.059,3.5Zm-32.03,0a3.5,3.5,0,1,1,3.5,3.5A3.5,3.5,0,0,1,32.029,3.5ZM0,3.5A3.5,3.5,0,1,1,3.5,7,3.5,3.5,0,0,1,0,3.5Z" transform="translate(-341.647 205.684)" fill="#fff" opacity="0.1"/>
  </g>
</svg>
