<svg width="184" height="55" viewBox="0 0 184 55" fill="none" xmlns="http://www.w3.org/2000/svg">
<path d="M177.185 0H6.81481C3.0511 0 0 3.07803 0 6.87497V48.1248C0 51.9217 3.0511 54.9997 6.81481 54.9997H177.185C180.949 54.9997 184 51.9217 184 48.1248V6.87497C184 3.07803 180.949 0 177.185 0Z" fill="black"/>
<path d="M177.185 1.09992C178.703 1.10169 180.158 1.71073 181.231 2.79343C182.304 3.87613 182.908 5.34406 182.91 6.87517V48.125C182.908 49.6561 182.304 51.124 181.231 52.2067C180.158 53.2894 178.703 53.8984 177.185 53.9002H6.81481C5.29709 53.8984 3.84203 53.2894 2.76886 52.2067C1.69569 51.124 1.09205 49.6561 1.09037 48.125V6.87517C1.09202 5.34404 1.69565 3.87609 2.76883 2.79339C3.84201 1.71069 5.29708 1.10166 6.81481 1.09992H177.185ZM177.185 0.000200272H6.81481C5.00904 0.00553263 3.27873 0.73157 2.00185 2.01972C0.72497 3.30787 0.0052857 5.05345 0 6.87517L0 48.125C0.0052857 49.9467 0.72497 51.6923 2.00185 52.9804C3.27873 54.2686 5.00904 54.9946 6.81481 54.9999H177.185C178.991 54.9946 180.721 54.2686 181.998 52.9804C183.275 51.6923 183.995 49.9467 184 48.125V6.87517C183.995 5.05345 183.275 3.30787 181.998 2.01972C180.721 0.73157 178.991 0.00553263 177.185 0.000200272Z" fill="#A6A6A6"/>
<path d="M64.6291 14.0845C64.6538 14.589 64.5766 15.0934 64.4019 15.5668C64.2273 16.0403 63.959 16.4729 63.6134 16.8384C63.226 17.2437 62.7582 17.562 62.2405 17.7723C61.7228 17.9826 61.167 18.0803 60.6093 18.059C60.048 18.0641 59.4914 17.9559 58.9722 17.7409C58.453 17.5258 57.9817 17.2083 57.5858 16.8068C57.19 16.4054 56.8778 15.9282 56.6674 15.4032C56.457 14.8783 56.3528 14.3162 56.3608 13.7501C56.3528 13.1839 56.4571 12.6218 56.6675 12.0969C56.8779 11.5719 57.1901 11.0947 57.5859 10.6932C57.9817 10.2917 58.4531 9.97406 58.9723 9.75893C59.4914 9.54379 60.048 9.4355 60.6093 9.44042C61.1863 9.43866 61.7576 9.55635 62.2878 9.78623C62.7801 9.98758 63.2184 10.3034 63.5669 10.708L62.8481 11.4337C62.5741 11.1085 62.2298 10.8511 61.8416 10.6814C61.4535 10.5116 61.0318 10.4342 60.6093 10.4549C60.1839 10.4527 59.7625 10.5371 59.3702 10.703C58.978 10.869 58.623 11.1132 58.3265 11.4208C58.0299 11.7285 57.798 12.0934 57.6446 12.4936C57.4912 12.8938 57.4194 13.3212 57.4336 13.7501C57.4234 14.3924 57.6026 15.0234 57.9484 15.5629C58.2942 16.1025 58.791 16.5262 59.3758 16.7805C59.9607 17.0349 60.6072 17.1082 61.2334 16.9914C61.8596 16.8745 62.4374 16.5727 62.8933 16.1241C63.313 15.6679 63.5562 15.0749 63.5788 14.453H60.6093V13.462H64.5718C64.6093 13.6673 64.6284 13.8757 64.6291 14.0845Z" fill="white" stroke="white" stroke-width="0.2" stroke-miterlimit="10"/>
<path d="M70.912 10.6389H67.1879V13.2545H70.5461V14.2456H67.1879V16.8613H70.912V17.8751H66.1377V9.6251H70.912V10.6389Z" fill="white" stroke="white" stroke-width="0.2" stroke-miterlimit="10"/>
<path d="M75.3424 17.8751H74.2909V10.6389H72.0068V9.6251H77.6264V10.6389H75.3424V17.8751Z" fill="white" stroke="white" stroke-width="0.2" stroke-miterlimit="10"/>
<path d="M81.6934 17.8751V9.6251H82.7435V17.8751H81.6934Z" fill="white" stroke="white" stroke-width="0.2" stroke-miterlimit="10"/>
<path d="M87.4038 17.8751H86.3523V10.6389H84.0684V9.6251H89.6879V10.6389H87.4038V17.8751Z" fill="white" stroke="white" stroke-width="0.2" stroke-miterlimit="10"/>
<path d="M100.327 16.8089C99.5309 17.6095 98.4528 18.059 97.3288 18.059C96.2048 18.059 95.1266 17.6095 94.3307 16.8089C93.9369 16.4065 93.6273 15.9284 93.4204 15.4029C93.2135 14.8774 93.1134 14.3153 93.1261 13.7501C93.1134 13.1848 93.2135 12.6227 93.4204 12.0972C93.6273 11.5717 93.9369 11.0936 94.3307 10.6912C94.7241 10.2942 95.1913 9.97941 95.7055 9.76478C96.2196 9.55014 96.7707 9.43992 97.3272 9.44042C97.8837 9.44092 98.4346 9.55213 98.9484 9.76768C99.4622 9.98324 99.9288 10.2989 100.322 10.6966C100.716 11.0979 101.026 11.575 101.234 12.0995C101.441 12.624 101.543 13.1853 101.531 13.7501C101.544 14.3153 101.444 14.8773 101.237 15.4027C101.03 15.9281 100.72 16.4063 100.327 16.8089ZM95.1066 16.1181C95.6961 16.7118 96.4951 17.0452 97.3281 17.0452C98.1611 17.0452 98.96 16.7118 99.5496 16.1181C99.8519 15.8058 100.088 15.435 100.245 15.028C100.401 14.621 100.474 14.1863 100.459 13.7501C100.474 13.3139 100.401 12.8791 100.245 12.4721C100.088 12.0651 99.8519 11.6943 99.5496 11.382C98.96 10.7883 98.1611 10.4549 97.3281 10.4549C96.4951 10.4549 95.6961 10.7883 95.1066 11.382C94.8047 11.6945 94.5687 12.0654 94.4127 12.4724C94.2567 12.8794 94.1839 13.314 94.1989 13.7501C94.1839 14.1861 94.2567 14.6208 94.4127 15.0277C94.5687 15.4347 94.8047 15.8056 95.1066 16.1181Z" fill="white" stroke="white" stroke-width="0.2" stroke-miterlimit="10"/>
<path d="M103.006 17.8751V9.6251H104.285L108.259 16.0429H108.305L108.259 14.453V9.6251H109.311V17.8751H108.214L104.056 11.1464H104.011L104.056 12.7363V17.8751H103.006Z" fill="white" stroke="white" stroke-width="0.2" stroke-miterlimit="10"/>
<path d="M92.8661 29.9084C91.7205 29.9128 90.6019 30.2595 89.6515 30.9048C88.7011 31.55 87.9615 32.4649 87.5261 33.5339C87.0908 34.6029 86.9791 35.7781 87.2052 36.911C87.4314 38.044 87.9853 39.0839 88.7968 39.8996C89.6084 40.7152 90.6414 41.27 91.7653 41.4938C92.8892 41.7177 94.0536 41.6006 95.1116 41.1573C96.1696 40.714 97.0736 39.9644 97.7096 39.0032C98.3456 38.0419 98.685 36.9121 98.685 35.7564C98.6963 34.9834 98.5533 34.2161 98.2646 33.4999C97.9758 32.7838 97.5473 32.1336 97.0044 31.588C96.4615 31.0424 95.8154 30.6126 95.1044 30.324C94.3935 30.0355 93.6323 29.8941 92.8661 29.9084ZM92.8661 39.3007C92.1606 39.3515 91.4563 39.1868 90.8449 38.8281C90.2335 38.4693 89.7433 37.9332 89.4381 37.2895C89.133 36.6458 89.027 35.9243 89.134 35.219C89.241 34.5137 89.556 33.8572 90.038 33.335C90.52 32.8128 91.1467 32.4491 91.8365 32.2913C92.5263 32.1334 93.2472 32.1888 93.9053 32.45C94.5635 32.7113 95.1284 33.1664 95.5266 33.7562C95.9248 34.3459 96.1378 35.0429 96.1378 35.7564C96.1592 36.2072 96.091 36.6577 95.9372 37.0815C95.7834 37.5053 95.5471 37.8938 95.2422 38.224C94.9374 38.5543 94.5701 38.8197 94.162 39.0046C93.754 39.1895 93.3133 39.2902 92.8661 39.3007ZM80.1723 29.9084C79.0267 29.9128 77.9081 30.2595 76.9577 30.9047C76.0072 31.55 75.2676 32.4648 74.8322 33.5338C74.3968 34.6028 74.2851 35.778 74.5113 36.9109C74.7374 38.0439 75.2913 39.0839 76.1028 39.8995C76.9144 40.7152 77.9474 41.27 79.0713 41.4938C80.1952 41.7177 81.3596 41.6006 82.4176 41.1573C83.4756 40.714 84.3797 39.9644 85.0156 39.0032C85.6517 38.0419 85.9911 36.9121 85.9911 35.7564C86.0023 34.9834 85.8593 34.2161 85.5706 33.5C85.2819 32.7839 84.8534 32.1337 84.3105 31.5881C83.7676 31.0425 83.1215 30.6126 82.4106 30.3241C81.6997 30.0355 80.9385 29.8942 80.1723 29.9084ZM80.1723 39.3007C79.4668 39.3515 78.7625 39.1868 78.1511 38.8281C77.5397 38.4693 77.0495 37.9332 76.7443 37.2895C76.4392 36.6458 76.3332 35.9243 76.4402 35.219C76.5472 34.5137 76.8622 33.8572 77.3442 33.335C77.8262 32.8128 78.4529 32.4491 79.1427 32.2913C79.8324 32.1334 80.5533 32.1888 81.2115 32.45C81.8697 32.7113 82.4346 33.1664 82.8328 33.7562C83.231 34.3459 83.4439 35.0429 83.444 35.7564C83.4654 36.2072 83.3972 36.6578 83.2434 37.0815C83.0896 37.5053 82.8533 37.8938 82.5485 38.2241C82.2436 38.5543 81.8763 38.8197 81.4682 39.0047C81.0601 39.1896 80.6195 39.2902 80.1723 39.3007ZM65.0723 31.7028V34.1837H70.9572C70.8723 35.3474 70.4002 36.448 69.6176 37.3071C69.0279 37.9136 68.3187 38.3885 67.5358 38.7014C66.7529 39.0142 65.9137 39.158 65.0723 39.1235C63.3522 39.1 61.7105 38.3942 60.5023 37.1588C59.2942 35.9234 58.6168 34.2577 58.6168 32.5223C58.6168 30.7869 59.2942 29.1212 60.5023 27.8858C61.7105 26.6504 63.3522 25.9446 65.0723 25.9211C66.7245 25.8993 68.3185 26.5361 69.5079 27.6932L71.2426 25.9432C70.431 25.1327 69.4672 24.4938 68.4077 24.0639C67.3481 23.6341 66.2142 23.422 65.0723 23.4401C63.879 23.4225 62.6942 23.6445 61.5867 24.0931C60.4792 24.5416 59.4711 25.2078 58.6211 26.0529C57.7711 26.898 57.0962 27.9052 56.6355 29.0158C56.1748 30.1264 55.9375 31.3184 55.9375 32.5223C55.9375 33.7263 56.1748 34.9182 56.6355 36.0288C57.0962 37.1394 57.7711 38.1466 58.6211 38.9917C59.4711 39.8368 60.4792 40.503 61.5867 40.9515C62.6942 41.4001 63.879 41.6221 65.0723 41.6045C66.2383 41.6533 67.4012 41.4514 68.4839 41.0122C69.5666 40.573 70.5444 39.9066 71.3523 39.0571C72.7867 37.4776 73.5512 35.3944 73.4823 33.2534C73.488 32.7334 73.4438 32.2142 73.3504 31.7028H65.0723ZM126.826 33.6299C126.477 32.5706 125.814 31.6452 124.926 30.9794C124.039 30.3136 122.969 29.9397 121.863 29.9084C121.118 29.9131 120.382 30.0701 119.699 30.3699C119.016 30.6697 118.401 31.1061 117.89 31.6527C117.379 32.1993 116.983 32.8448 116.726 33.5502C116.469 34.2555 116.357 35.0061 116.396 35.7564C116.379 36.5253 116.516 37.2897 116.799 38.0039C117.081 38.7182 117.504 39.3677 118.041 39.9135C118.578 40.4594 119.218 40.8905 119.924 41.181C120.63 41.4716 121.387 41.6156 122.149 41.6045C123.104 41.6099 124.045 41.3759 124.888 40.9235C125.731 40.4711 126.45 39.8146 126.979 39.0128L125.003 37.6838C124.707 38.1798 124.288 38.5896 123.788 38.8731C123.288 39.1566 122.723 39.3039 122.149 39.3007C121.558 39.3235 120.975 39.1668 120.473 38.8508C119.972 38.5348 119.577 38.0742 119.338 37.5287L127.089 34.2945L126.826 33.6299ZM118.921 35.5793C118.894 35.1537 118.951 34.7268 119.089 34.3237C119.227 33.9206 119.444 33.5494 119.726 33.2317C120.008 32.9141 120.35 32.6564 120.732 32.4737C121.114 32.2911 121.529 32.1871 121.951 32.168C122.391 32.1388 122.829 32.2408 123.212 32.4614C123.595 32.682 123.905 33.0114 124.103 33.4085L118.921 35.5793ZM112.619 41.2501H115.166V24.0605H112.619V41.2501ZM108.447 31.2154H108.359C107.972 30.7909 107.499 30.4548 106.973 30.2294C106.447 30.004 105.879 29.8946 105.307 29.9084C103.812 29.9726 102.4 30.6168 101.365 31.7065C100.329 32.7962 99.7515 34.2472 99.7515 35.7565C99.7515 37.2658 100.329 38.7168 101.365 39.8065C102.4 40.8962 103.812 41.5404 105.307 41.6045C105.881 41.6199 106.451 41.509 106.978 41.2795C107.505 41.05 107.977 40.7074 108.359 40.2755H108.447V41.1172C108.447 43.3546 107.261 44.5507 105.351 44.5507C104.714 44.5354 104.096 44.3291 103.576 43.9583C103.056 43.5874 102.657 43.0688 102.431 42.4685L100.213 43.3989C100.631 44.4256 101.343 45.303 102.259 45.9186C103.174 46.5343 104.251 46.8602 105.351 46.8545C108.337 46.8545 110.862 45.0825 110.862 40.7628V30.2628H108.447V31.2154ZM105.527 39.3007C104.646 39.2254 103.826 38.8194 103.228 38.1631C102.63 37.5067 102.299 36.6478 102.299 35.7565C102.299 34.8652 102.63 34.0063 103.228 33.3499C103.826 32.6936 104.646 32.2876 105.527 32.2122C105.965 32.2338 106.394 32.3441 106.789 32.5366C107.184 32.7291 107.536 32.9998 107.825 33.3326C108.114 33.6654 108.333 34.0535 108.47 34.4737C108.607 34.894 108.659 35.3377 108.623 35.7786C108.657 36.2167 108.603 36.6573 108.465 37.074C108.326 37.4907 108.106 37.8749 107.817 38.2037C107.528 38.5325 107.176 38.7992 106.783 38.9877C106.389 39.1762 105.962 39.2826 105.527 39.3007ZM138.757 24.0607H132.663V41.2501H135.206V34.7376H138.757C139.476 34.7773 140.196 34.6688 140.873 34.4184C141.549 34.1681 142.167 33.7814 142.691 33.2817C143.214 32.7821 143.63 32.1801 143.915 31.5126C144.2 30.845 144.347 30.1259 144.347 29.3991C144.347 28.6724 144.2 27.9533 143.915 27.2857C143.63 26.6182 143.214 26.0162 142.691 25.5166C142.167 25.0169 141.549 24.6301 140.873 24.3798C140.196 24.1295 139.476 24.021 138.757 24.0607ZM138.823 32.3453H135.206V26.4531H138.823C139.211 26.445 139.598 26.5152 139.959 26.6596C140.32 26.804 140.65 27.0197 140.927 27.2941C141.205 27.5684 141.425 27.896 141.576 28.2574C141.727 28.6189 141.804 29.0071 141.804 29.3992C141.804 29.7913 141.727 30.1795 141.576 30.541C141.425 30.9025 141.205 31.23 140.927 31.5044C140.65 31.7787 140.32 31.9945 139.959 32.1389C139.598 32.2833 139.211 32.3535 138.823 32.3453ZM154.54 29.8768C153.612 29.8221 152.688 30.042 151.882 30.5095C151.076 30.977 150.423 31.6717 150.002 32.5084L152.26 33.4594C152.484 33.0441 152.823 32.7037 153.236 32.4798C153.649 32.2559 154.117 32.1582 154.584 32.1988C155.229 32.1352 155.873 32.3323 156.374 32.7469C156.875 33.1614 157.193 33.7595 157.258 34.4102V34.5871C156.442 34.1494 155.531 33.9216 154.606 33.9237C152.173 33.9237 149.696 35.2727 149.696 37.7938C149.719 38.3251 149.848 38.8462 150.075 39.3261C150.303 39.8061 150.623 40.2352 151.017 40.5879C151.412 40.9406 151.873 41.2097 152.373 41.3793C152.872 41.5489 153.401 41.6156 153.926 41.5753C154.567 41.6133 155.205 41.4774 155.776 41.1818C156.346 40.8863 156.828 40.4417 157.171 39.8946H157.258V41.2215H159.713V34.6314C159.713 31.5796 157.455 29.8768 154.54 29.8768ZM154.233 39.2974C153.4 39.2974 152.238 38.8774 152.238 37.8379C152.238 36.5112 153.685 36.0024 154.935 36.0024C155.746 35.9806 156.549 36.1792 157.258 36.5774C157.165 37.323 156.807 38.0093 156.251 38.5093C155.695 39.0093 154.978 39.2893 154.233 39.2974ZM168.657 30.2527L165.742 37.7052H165.654L162.629 30.2527H159.889L164.426 40.6686L161.84 46.4625H164.492L171.485 30.2527H168.657ZM145.75 41.2501H148.293V24.0607H145.75V41.2501Z" fill="white"/>
<path d="M14.2226 10.3648C13.7757 10.9039 13.55 11.595 13.5919 12.2966V42.7061C13.5499 43.4076 13.7756 44.0987 14.2226 44.6378L14.3235 44.7369L31.2093 27.7023V27.3004L14.3235 10.265L14.2226 10.3648Z" fill="url(#paint0_linear)"/>
<path d="M36.8382 33.3829L31.21 27.7023V27.3003L36.8395 21.6211L36.9664 21.6941L43.6351 25.5167C45.54 26.6084 45.54 28.3948 43.6351 29.4873L36.9664 33.3099L36.8382 33.3829Z" fill="url(#paint1_linear)"/>
<path d="M36.9657 33.3092L31.2093 27.5014L14.2227 44.6378C14.6108 44.9831 15.1064 45.1806 15.6237 45.196C16.141 45.2114 16.6474 45.0438 17.055 44.7222L36.9657 33.3092Z" fill="url(#paint2_linear)"/>
<path d="M36.9657 21.6934L17.055 10.2804C16.6474 9.9588 16.141 9.79118 15.6237 9.8066C15.1064 9.82202 14.6108 10.0195 14.2227 10.3648L31.2093 27.5014L36.9657 21.6934Z" fill="url(#paint3_linear)"/>
<path opacity="0.2" d="M36.8388 33.1813L17.055 44.5213C16.6631 44.8224 16.1847 44.9866 15.6921 44.9892C15.1994 44.9919 14.7193 44.8328 14.3242 44.536L14.2227 44.6385L14.3235 44.7376L14.3242 44.7369C14.7193 45.0339 15.1994 45.193 15.6921 45.1904C16.1847 45.1877 16.6631 45.0234 17.055 44.7222L36.9657 33.3092L36.8388 33.1813Z" fill="black"/>
<path opacity="0.12" d="M14.2226 44.4376C13.7757 43.8985 13.5501 43.2074 13.5918 42.5059V42.7067C13.55 43.4083 13.7757 44.0994 14.2226 44.6385L14.3242 44.536L14.2226 44.4376Z" fill="black"/>
<path opacity="0.12" d="M43.6345 29.2857L36.8389 33.1813L36.9658 33.3092L43.6345 29.4866C44.0267 29.3149 44.3662 29.0402 44.6175 28.6911C44.8688 28.342 45.0227 27.9314 45.0633 27.5019C44.9789 27.8908 44.8059 28.2546 44.5579 28.5642C44.3099 28.8739 43.9937 29.1209 43.6345 29.2857Z" fill="black"/>
<path opacity="0.25" d="M17.0559 10.482L43.6353 25.7169C43.9947 25.8817 44.311 26.1288 44.559 26.4386C44.8071 26.7484 44.98 27.1123 45.0641 27.5014C45.0239 27.0717 44.8701 26.6609 44.6187 26.3117C44.3674 25.9624 44.0278 25.6877 43.6353 25.516L17.0559 10.2811C15.151 9.18921 13.5928 10.0962 13.5928 12.2972V12.4981C13.5928 10.2972 15.151 9.39023 17.0559 10.482Z" fill="white"/>
<defs>
<linearGradient id="paint0_linear" x1="29.7118" y1="11.9759" x2="6.63702" y2="34.8489" gradientUnits="userSpaceOnUse">
<stop stop-color="#00A0FF"/>
<stop offset="0.00657" stop-color="#00A1FF"/>
<stop offset="0.2601" stop-color="#00BEFF"/>
<stop offset="0.5122" stop-color="#00D2FF"/>
<stop offset="0.7604" stop-color="#00DFFF"/>
<stop offset="1" stop-color="#00E3FF"/>
</linearGradient>
<linearGradient id="paint1_linear" x1="46.1153" y1="27.502" x2="13.1358" y2="27.502" gradientUnits="userSpaceOnUse">
<stop stop-color="#FFE000"/>
<stop offset="0.4087" stop-color="#FFBD00"/>
<stop offset="0.7754" stop-color="#FFA500"/>
<stop offset="1" stop-color="#FF9C00"/>
</linearGradient>
<linearGradient id="paint2_linear" x1="33.8378" y1="30.6571" x2="2.54654" y2="61.6746" gradientUnits="userSpaceOnUse">
<stop stop-color="#FF3A44"/>
<stop offset="1" stop-color="#C31162"/>
</linearGradient>
<linearGradient id="paint3_linear" x1="9.94558" y1="0.242393" x2="23.9184" y2="14.093" gradientUnits="userSpaceOnUse">
<stop stop-color="#32A071"/>
<stop offset="0.0685" stop-color="#2DA771"/>
<stop offset="0.4762" stop-color="#15CF74"/>
<stop offset="0.8009" stop-color="#06E775"/>
<stop offset="1" stop-color="#00F076"/>
</linearGradient>
</defs>
</svg>
