<svg width="278" height="208" viewBox="0 0 278 208" fill="none" xmlns="http://www.w3.org/2000/svg">
<path d="M278 182.034H0V182.173H278V182.034Z" fill="#EBEBEB"/>
<path d="M250.144 190.98H241.859V191.119H250.144V190.98Z" fill="#EBEBEB"/>
<path d="M184.158 192.493H179.326V192.632H184.158V192.493Z" fill="#EBEBEB"/>
<path d="M239.514 185.821H220.504V185.96H239.514V185.821Z" fill="#EBEBEB"/>
<path d="M60.955 188.69H36.9414V188.829H60.955V188.69Z" fill="#EBEBEB"/>
<path d="M74.5648 188.69H65.9023V188.829H74.5648V188.69Z" fill="#EBEBEB"/>
<path d="M141.647 186.822H89.5605V186.961H141.647V186.822Z" fill="#EBEBEB"/>
<path d="M131.771 157.237H24.4133C23.5723 157.235 22.7662 156.9 22.172 156.305C21.5779 155.71 21.2441 154.903 21.2441 154.062V3.14696C21.2515 2.31075 21.5884 1.5112 22.1818 0.921969C22.7752 0.332743 23.5771 0.00143247 24.4133 0H131.771C132.613 0 133.421 0.334483 134.016 0.929866C134.612 1.52525 134.946 2.33276 134.946 3.17476V154.062C134.946 154.904 134.612 155.712 134.016 156.307C133.421 156.902 132.613 157.237 131.771 157.237ZM24.4133 0.1112C23.6092 0.112673 22.8384 0.43316 22.2703 1.00232C21.7022 1.57147 21.3831 2.34279 21.3831 3.14696V154.062C21.3831 154.866 21.7022 155.638 22.2703 156.207C22.8384 156.776 23.6092 157.096 24.4133 157.098H131.771C132.576 157.096 133.347 156.776 133.916 156.207C134.485 155.638 134.806 154.867 134.807 154.062V3.14696C134.806 2.34228 134.485 1.57097 133.916 1.00198C133.347 0.43298 132.576 0.11267 131.771 0.1112H24.4133Z" fill="#EBEBEB"/>
<path d="M252.04 157.237H144.677C143.835 157.235 143.029 156.9 142.433 156.305C141.838 155.71 141.503 154.904 141.502 154.062V3.14696C141.511 2.31024 141.849 1.51069 142.443 0.921622C143.037 0.332548 143.84 0.00141685 144.677 0H252.04C252.876 0.0028937 253.676 0.334851 254.268 0.923921C254.86 1.51299 255.197 2.31171 255.204 3.14696V154.062C255.204 154.902 254.871 155.708 254.278 156.303C253.685 156.898 252.88 157.234 252.04 157.237ZM144.677 0.1112C143.872 0.11267 143.101 0.43298 142.532 1.00198C141.963 1.57097 141.642 2.34228 141.641 3.14696V154.062C141.642 154.867 141.963 155.638 142.532 156.207C143.101 156.776 143.872 157.096 144.677 157.098H252.04C252.845 157.096 253.616 156.776 254.185 156.207C254.754 155.638 255.075 154.867 255.076 154.062V3.14696C255.075 2.34228 254.754 1.57097 254.185 1.00198C253.616 0.43298 252.845 0.11267 252.04 0.1112H144.677Z" fill="#EBEBEB"/>
<path d="M123.154 177.976H127.547V147.896H123.154V177.976Z" fill="#F0F0F0"/>
<path d="M34.3115 182.034H124.65V177.976H34.3115V182.034Z" fill="#F0F0F0"/>
<path d="M123.154 147.896H31.4082V177.976H123.154V147.896Z" fill="#F5F5F5"/>
<path d="M117.217 153.134H37.3418V170.314H117.217V153.134Z" fill="#F0F0F0"/>
<path d="M57.8511 155.43H96.7155C97.4432 155.43 98.0332 154.84 98.0332 154.112V153.868C98.0332 153.14 97.4432 152.55 96.7155 152.55H57.8511C57.1233 152.55 56.5334 153.14 56.5334 153.868V154.112C56.5334 154.84 57.1233 155.43 57.8511 155.43Z" fill="#F5F5F5"/>
<path d="M29.396 147.896H123.154V145.211H29.396V147.896Z" fill="#F0F0F0"/>
<path d="M129.654 145.21H123.154V147.896H129.654V145.21Z" fill="#E6E6E6"/>
<path d="M119.8 105.534L237.355 105.534V15.379L119.8 15.379L119.8 105.534Z" fill="#E6E6E6"/>
<path d="M108.798 11.8706H244.007C244.276 11.8706 244.535 11.9778 244.726 12.1686C244.917 12.3594 245.024 12.6182 245.024 12.8881C245.023 13.157 244.915 13.4144 244.724 13.604C244.533 13.7936 244.275 13.9 244.007 13.9H108.798C108.664 13.9008 108.531 13.875 108.407 13.8242C108.283 13.7734 108.17 13.6985 108.075 13.604C107.98 13.5094 107.905 13.397 107.853 13.2732C107.802 13.1494 107.775 13.0166 107.775 12.8825C107.776 12.7489 107.803 12.6168 107.855 12.4936C107.907 12.3704 107.982 12.2587 108.077 12.1647C108.172 12.0707 108.285 11.9964 108.409 11.9459C108.532 11.8955 108.665 11.8699 108.798 11.8706Z" fill="#E6E6E6"/>
<path d="M115.443 105.534L235.322 105.534V15.379L115.443 15.379L115.443 105.534Z" fill="#F0F0F0"/>
<path d="M119.801 105.534H237.356V108.42H116.799L119.801 105.534Z" fill="#E6E6E6"/>
<path d="M108.18 105.534H228.06L225.057 108.42H105.184L108.18 105.534Z" fill="#F0F0F0"/>
<path d="M229.217 99.435V21.4783L121.542 21.4783V99.435H229.217Z" fill="#FAFAFA"/>
<path d="M193.287 99.4295L157.486 21.4783H140.578L176.385 99.4295H193.287Z" fill="white"/>
<path d="M172.754 99.4295L136.948 21.4783H130.359L166.166 99.4295H172.754Z" fill="white"/>
<path d="M122.32 99.435V21.4783H121.547V99.435H122.32Z" fill="#E6E6E6"/>
<g opacity="0.4">
<path opacity="0.4" d="M229.151 84.4397H239.648V10.0413H229.151V84.4397Z" fill="#F0F0F0"/>
<path opacity="0.4" d="M225.058 84.4397H233.236V10.0413H225.058V84.4397Z" fill="#E6E6E6"/>
<path opacity="0.4" d="M218.653 84.4397H229.15V10.0413H218.653V84.4397Z" fill="#F0F0F0"/>
<path opacity="0.4" d="M214.561 84.4397H222.74V10.0413H214.561V84.4397Z" fill="#E6E6E6"/>
<path opacity="0.4" d="M208.151 84.4397H218.648V10.0413H208.151V84.4397Z" fill="#F0F0F0"/>
</g>
<g opacity="0.4">
<path opacity="0.4" d="M125.457 84.4397H131.506V10.0413H125.457L125.457 84.4397Z" fill="#F0F0F0"/>
<path opacity="0.4" d="M123.092 84.4397H127.807L127.807 10.0413H123.092L123.092 84.4397Z" fill="#E6E6E6"/>
<path opacity="0.4" d="M119.4 84.4397H125.449L125.449 10.0413H119.4L119.4 84.4397Z" fill="#F0F0F0"/>
<path opacity="0.4" d="M117.043 84.4397H121.758L121.758 10.0413H117.043L117.043 84.4397Z" fill="#E6E6E6"/>
<path opacity="0.4" d="M113.351 84.4397H119.4L119.4 10.0413H113.351L113.351 84.4397Z" fill="#F0F0F0"/>
</g>
<path d="M87.4032 10.0913H39.1035V133.501H87.4032V10.0913Z" fill="#F5F5F5"/>
<path d="M87.4091 133.496H88.7324L88.7324 10.0859H87.4091L87.4091 133.496Z" fill="#E0E0E0"/>
<path d="M82.9277 129.025V14.5615L43.5741 14.5615L43.5741 129.025H82.9277Z" fill="white"/>
<path d="M57.4297 129.025L70.4901 14.5615H78.0239L64.969 129.025H57.4297Z" fill="#FAFAFA"/>
<path d="M50.9023 129.025L63.9572 14.5615H67.7269L54.672 129.025H50.9023Z" fill="#FAFAFA"/>
<path d="M139 207.143C198.538 207.143 246.803 204.325 246.803 200.849C246.803 197.373 198.538 194.555 139 194.555C79.4622 194.555 31.1973 197.373 31.1973 200.849C31.1973 204.325 79.4622 207.143 139 207.143Z" fill="#F5F5F5"/>
<path d="M221.314 200.85H156.374C155.469 200.859 154.572 200.68 153.74 200.325C152.908 199.969 152.16 199.443 151.542 198.782C150.924 198.121 150.451 197.339 150.152 196.485C149.854 195.631 149.736 194.724 149.807 193.822L158.87 56.4508C159.022 54.5581 159.873 52.7898 161.258 51.4905C162.642 50.1913 164.461 49.4542 166.359 49.4229H231.295C232.199 49.414 233.095 49.5933 233.926 49.9496C234.757 50.3058 235.505 50.8312 236.123 51.4922C236.74 52.1532 237.212 52.9355 237.511 53.7891C237.809 54.6428 237.926 55.5493 237.855 56.4508L228.804 193.822C228.652 195.714 227.801 197.483 226.416 198.782C225.032 200.081 223.213 200.818 221.314 200.85Z" fill="#263238"/>
<path d="M234.988 86.3636H227.126C226.908 86.3658 226.692 86.3225 226.491 86.2366C226.291 86.1507 226.11 86.024 225.961 85.8645C225.812 85.705 225.698 85.5162 225.626 85.3102C225.553 85.1042 225.525 84.8854 225.542 84.6678L226.326 72.7694C226.37 72.317 226.579 71.8966 226.913 71.5888C227.248 71.281 227.684 71.1075 228.138 71.1014H235.995C236.21 71.0995 236.424 71.1419 236.623 71.2262C236.822 71.3104 237.001 71.4346 237.149 71.5911C237.298 71.7475 237.413 71.9328 237.487 72.1355C237.561 72.3382 237.592 72.554 237.579 72.7694L236.795 84.6678C236.759 85.1247 236.554 85.5518 236.22 85.8654C235.886 86.179 235.447 86.3567 234.988 86.3636Z" fill="#263238"/>
<path d="M183.357 47.4768H180.482V48.0328H183.357V47.4768Z" fill="#133C8B"/>
<path d="M176.941 47.4768H166.488V48.0328H176.941V47.4768Z" fill="#133C8B"/>
<path d="M220.326 200.849H155.385C154.48 200.858 153.584 200.679 152.752 200.323C151.921 199.967 151.173 199.441 150.555 198.78C149.938 198.12 149.464 197.337 149.165 196.484C148.866 195.63 148.748 194.723 148.819 193.822L157.904 56.4507C158.055 54.5581 158.906 52.7898 160.291 51.4905C161.676 50.1912 163.494 49.4541 165.393 49.4229H230.334C231.235 49.4194 232.127 49.6027 232.953 49.9613C233.78 50.32 234.523 50.8461 235.136 51.5066C235.749 52.167 236.218 52.9474 236.514 53.7984C236.81 54.6494 236.926 55.5525 236.856 56.4507L227.815 193.822C227.663 195.714 226.812 197.483 225.428 198.782C224.043 200.081 222.224 200.818 220.326 200.849Z" fill="#133C8B"/>
<path d="M223.273 184.848H154.568C154.054 184.853 153.545 184.752 153.072 184.549C152.6 184.347 152.175 184.049 151.824 183.673C151.473 183.298 151.204 182.853 151.034 182.368C150.864 181.883 150.797 181.368 150.837 180.856L158.727 61.2601C158.812 60.1877 159.293 59.1853 160.076 58.4476C160.859 57.7099 161.888 57.2895 162.964 57.268H231.685C232.199 57.2626 232.709 57.3642 233.181 57.5664C233.654 57.7686 234.079 58.0669 234.43 58.4424C234.781 58.8179 235.05 59.2624 235.22 59.7475C235.389 60.2326 235.456 60.7477 235.416 61.2601L227.527 180.856C227.441 181.931 226.958 182.936 226.171 183.674C225.385 184.412 224.352 184.83 223.273 184.848Z" fill="white"/>
<path d="M210.456 57.2681H196.812L163.758 184.848H177.402L210.456 57.2681Z" fill="#FAFAFA"/>
<path d="M222.478 57.2681H215.656L182.602 184.848H189.424L222.478 57.2681Z" fill="#FAFAFA"/>
<path d="M213.415 145.316L198.581 89.2102C198.184 87.7186 197.212 86.445 195.878 85.6686C194.544 84.8922 192.957 84.6762 191.464 85.068L156.369 94.342L151.688 167.656L209.272 152.438C210.764 152.039 212.036 151.066 212.812 149.732C213.588 148.397 213.805 146.81 213.415 145.316Z" fill="#F0F0F0"/>
<path opacity="0.2" d="M191.404 194.346C193.187 192.621 193.324 189.87 191.71 188.202C190.096 186.533 187.342 186.579 185.559 188.304C183.776 190.029 183.639 192.78 185.253 194.449C186.867 196.117 189.621 196.071 191.404 194.346Z" fill="white"/>
<path opacity="0.2" d="M199.398 53.1203C199.359 53.6048 199.141 54.0573 198.786 54.3895C198.431 54.7216 197.965 54.9095 197.48 54.9162C197.249 54.9169 197.021 54.8699 196.81 54.7782C196.599 54.6865 196.409 54.5521 196.252 54.3834C196.096 54.2147 195.976 54.0154 195.9 53.798C195.824 53.5806 195.794 53.3499 195.812 53.1203C195.849 52.6354 196.067 52.1822 196.422 51.8498C196.777 51.5174 197.243 51.33 197.73 51.3245C197.96 51.3238 198.188 51.3708 198.399 51.4625C198.61 51.5542 198.8 51.6886 198.957 51.8573C199.114 52.026 199.234 52.2253 199.309 52.4427C199.385 52.6601 199.415 52.8908 199.398 53.1203Z" fill="white"/>
<path opacity="0.2" d="M198.587 53.1202C198.567 53.3867 198.448 53.6363 198.254 53.8195C198.059 54.0028 197.803 54.1064 197.536 54.1099C197.408 54.1119 197.282 54.0871 197.164 54.0372C197.047 53.9873 196.941 53.9133 196.854 53.82C196.767 53.7267 196.701 53.6163 196.659 53.4957C196.618 53.3752 196.602 53.2472 196.613 53.1202C196.632 52.8536 196.751 52.604 196.946 52.4208C197.14 52.2376 197.396 52.134 197.664 52.1305C197.791 52.1285 197.918 52.1532 198.035 52.2031C198.152 52.2531 198.258 52.327 198.345 52.4203C198.432 52.5136 198.498 52.6241 198.54 52.7446C198.582 52.8652 198.597 52.9931 198.587 53.1202Z" fill="white"/>
<path d="M94.1423 46.1814C96.2162 41.0829 95.4712 34.8723 89.5887 33.4823C88.2925 33.1484 86.936 33.1228 85.6281 33.4076C84.3202 33.6925 83.0972 34.2798 82.0572 35.1225C81.0172 35.9652 80.1891 37.0399 79.6393 38.2603C79.0895 39.4808 78.8333 40.8131 78.8913 42.1504C79.1248 47.7104 82.7833 52.3419 76.3726 56.3729C69.9619 60.4039 70.6458 72.5525 83.0446 70.2061C95.4434 67.8598 88.7436 61.4825 88.7436 61.4825C88.7436 61.4825 85.7023 63.9623 84.7237 61.438C83.4838 58.1687 91.7404 52.1473 94.1423 46.1814Z" fill="#263238"/>
<path d="M72.3252 62.9059L72.0527 62.8448C72.8812 59.1363 74.1822 58.1799 75.5555 57.168C76.9289 56.1561 78.2299 55.1942 79.2807 51.5469C79.7756 49.8288 79.4642 47.9273 79.1584 46.0925C78.7692 43.7517 78.3689 41.3276 79.5754 39.1592L79.8145 39.2982C78.658 41.3776 79.0528 43.7462 79.4309 46.048C79.7422 47.9162 80.0647 49.8455 79.5476 51.608C78.4745 55.3443 77.0734 56.3729 75.7223 57.3737C74.3713 58.3745 73.1314 59.3031 72.3252 62.9059Z" fill="#263238"/>
<path d="M109.933 74.187C109.972 74.3761 110.038 74.6596 110.099 74.9154L110.294 75.6993C110.427 76.2275 110.578 76.7557 110.733 77.2839C111.05 78.3348 111.389 79.3967 111.756 80.442C112.49 82.5454 113.329 84.6108 114.269 86.6303L114.97 88.0926C115.089 88.354 115.257 88.59 115.465 88.7876C116.09 89.2901 116.835 89.6199 117.628 89.7439C119.707 90.08 121.826 90.08 123.905 89.7439L124.655 92.1069C124.08 92.3604 123.492 92.5831 122.893 92.7741C122.298 92.972 121.693 93.1391 121.08 93.2745C119.805 93.5683 118.496 93.6898 117.188 93.6359C115.65 93.5926 114.154 93.1208 112.868 92.2737C112.145 91.772 111.535 91.1242 111.078 90.3722L110.989 90.2332L110.933 90.1387L110.822 89.9385L110.594 89.5493L110.144 88.7598C108.98 86.6391 107.959 84.4437 107.086 82.1879C106.663 81.0759 106.246 79.9138 105.907 78.7407C105.74 78.1847 105.574 77.5675 105.423 76.967C105.273 76.3665 105.14 75.7994 105.018 75.0877L109.933 74.187Z" fill="#FFC3BD"/>
<path d="M105.641 66.4141C111.251 68.9161 111.201 77.3228 111.201 77.3228L105.29 80.8756C105.29 80.8756 100.842 74.2926 101.176 71.3013C101.504 68.1822 102.46 65.0074 105.641 66.4141Z" fill="#133C8B"/>
<path opacity="0.2" d="M106.524 73.5866C104.99 72.0354 103.639 73.8257 102.404 75.8106C103.251 77.5657 104.215 79.2617 105.29 80.8869L107.714 79.4302C108.192 77.5787 108.053 75.1434 106.524 73.5866Z" fill="black"/>
<path d="M123.322 89.9553L127.269 87.9871L127.314 93.1523C127.314 93.1523 124.367 93.6638 122.404 91.5955L123.322 89.9553Z" fill="#FFC3BD"/>
<path d="M131.512 88.9045L130.833 92.7409L127.314 93.1523L127.27 87.9871L131.512 88.9045Z" fill="#FFC3BD"/>
<path d="M87.1875 196.746L92.0692 197.213L94.3432 185.854L89.4615 185.387L87.1875 196.746Z" fill="#FFC3BD"/>
<path d="M55.1777 183.43L59.1476 186.321L65.7695 176.925L61.7941 174.034L55.1777 183.43Z" fill="#FFC3BD"/>
<path d="M60.6048 184.514L57.3355 180.038C57.2811 179.959 57.1994 179.903 57.106 179.88C57.0126 179.857 56.9141 179.87 56.8295 179.916L52.9097 181.995C52.8129 182.052 52.7289 182.128 52.6635 182.219C52.5981 182.309 52.5526 182.413 52.53 182.523C52.5074 182.633 52.5083 182.746 52.5325 182.855C52.5568 182.965 52.6038 183.068 52.6707 183.157C53.8383 184.698 54.4777 185.381 55.9177 187.355C56.8073 188.567 58.5865 191.375 59.8097 193.049C61.0329 194.722 62.7509 193.605 62.3951 192.798C60.7827 189.179 60.7271 187.061 60.8494 185.365C60.8727 185.061 60.7859 184.759 60.6048 184.514Z" fill="#263238"/>
<path d="M92.7129 195.74H86.8526C86.7473 195.74 86.6449 195.775 86.5614 195.839C86.478 195.904 86.4181 195.994 86.3912 196.096L85.1179 200.716C85.0866 200.825 85.0814 200.941 85.1026 201.052C85.1239 201.164 85.1709 201.269 85.2401 201.359C85.3093 201.45 85.3986 201.523 85.501 201.572C85.6034 201.622 85.7159 201.646 85.8296 201.645C87.8979 201.645 88.8765 201.645 91.4508 201.645H99.3293C101.47 201.645 101.915 199.482 101.031 199.282C97.0608 198.403 94.7701 197.191 93.5413 196.035C93.3124 195.835 93.0163 195.73 92.7129 195.74Z" fill="#263238"/>
<path opacity="0.2" d="M94.3427 185.86L93.1696 191.714H88.1934L89.461 185.393L94.3427 185.86Z" fill="black"/>
<path opacity="0.2" d="M61.7947 174.034L65.7701 176.93L62.3563 181.773L58.3809 178.876L61.7947 174.034Z" fill="black"/>
<path d="M107.955 70.8456C107.61 74.5986 106.365 81.9656 102.723 96.3605L82.7401 94.6313C83.7019 87.1309 84.1523 82.2714 82.273 68.0712C82.2119 67.6018 82.248 67.1249 82.379 66.67C82.51 66.2152 82.7331 65.7921 83.0345 65.4271C83.3358 65.0621 83.709 64.763 84.1309 64.5483C84.5528 64.3336 85.0142 64.208 85.4867 64.1792C86.9267 64.1013 88.6392 64.0513 90.3573 64.118C93.3967 64.1635 96.429 64.4255 99.4312 64.902C101.194 65.2189 103.073 65.6748 104.602 66.0751C105.635 66.3456 106.538 66.9732 107.152 67.8466C107.765 68.7199 108.05 69.7824 107.955 70.8456Z" fill="#133C8B"/>
<path opacity="0.2" d="M82.7832 72.2299C83.039 74.4539 83.228 76.4388 83.3392 78.218C85.1796 78.0568 86.5362 76.0385 86.6752 71.8184C85.9858 69.7779 84.3456 70.5174 82.7832 72.2299Z" fill="black"/>
<path d="M102.722 96.3604C102.722 96.3604 109.483 126.273 104.946 147.362C101.927 161.485 95.2051 190.013 95.2051 190.013L86.6816 189.796C86.6816 189.796 90.7516 159.856 92.4585 148.096C95.3775 127.958 88.0661 95.115 88.0661 95.115L102.722 96.3604Z" fill="#263238"/>
<path opacity="0.2" d="M94.9266 102.404L90.6621 109.126C91.9462 117.096 92.7613 125.135 93.1029 133.201C99.0966 122.47 96.2555 108.081 94.9266 102.404Z" fill="black"/>
<path d="M96.4271 190.458L85.8965 190.191L86.5081 186.955L97.25 187.461L96.4271 190.458Z" fill="#133C8B"/>
<path d="M98.352 96.0436C98.352 96.0436 94.3877 127.763 85.7864 145.083C78.842 159.072 64.3137 181.306 64.3137 181.306L59.0039 177.053C59.0039 177.053 68.0889 152.461 73.2486 143.17C85.9087 120.374 75.5616 102.999 82.7395 94.6313L98.352 96.0436Z" fill="#263238"/>
<path d="M181.506 67.8153L86.9989 107.523C84.0321 108.77 82.6375 112.185 83.884 115.152L106.362 168.651C107.609 171.618 111.024 173.013 113.991 171.766L208.498 132.059C211.465 130.812 212.859 127.397 211.613 124.43L189.135 70.9303C187.888 67.9634 184.473 66.5688 181.506 67.8153Z" fill="#133C8B"/>
<path opacity="0.1" d="M181.506 67.8153L86.9989 107.523C84.0321 108.77 82.6375 112.185 83.884 115.152L106.362 168.651C107.609 171.618 111.024 173.013 113.991 171.766L208.498 132.059C211.465 130.812 212.859 127.397 211.613 124.43L189.135 70.9303C187.888 67.9634 184.473 66.5688 181.506 67.8153Z" fill="black"/>
<path opacity="0.2" d="M113.067 105.141L94.562 112.916C93.1352 113.515 92.4645 115.158 93.064 116.585L96.9643 125.868C97.5638 127.295 99.2064 127.966 100.633 127.366L119.138 119.591C120.565 118.992 121.235 117.349 120.636 115.922L116.736 106.639C116.136 105.212 114.493 104.542 113.067 105.141Z" fill="white"/>
<path opacity="0.4" d="M126.052 141.836L107.922 149.454C107.387 149.679 107.135 150.295 107.36 150.83L108.736 154.105C108.961 154.64 109.577 154.892 110.112 154.667L128.243 147.05C128.778 146.825 129.029 146.209 128.804 145.674L127.428 142.398C127.203 141.863 126.587 141.612 126.052 141.836Z" fill="white"/>
<path opacity="0.4" d="M149.64 131.928L131.51 139.546C130.975 139.771 130.723 140.387 130.948 140.922L132.324 144.197C132.549 144.732 133.165 144.984 133.7 144.759L151.831 137.142C152.366 136.917 152.617 136.301 152.392 135.766L151.016 132.49C150.791 131.955 150.175 131.704 149.64 131.928Z" fill="white"/>
<path opacity="0.4" d="M173.224 122.02L155.094 129.638C154.559 129.863 154.307 130.479 154.532 131.014L155.908 134.289C156.133 134.824 156.749 135.076 157.284 134.851L175.415 127.233C175.95 127.009 176.201 126.393 175.976 125.857L174.6 122.582C174.375 122.047 173.759 121.795 173.224 122.02Z" fill="white"/>
<path opacity="0.4" d="M196.812 112.112L178.682 119.73C178.147 119.954 177.895 120.57 178.12 121.106L179.496 124.381C179.721 124.916 180.337 125.168 180.872 124.943L199.002 117.325C199.537 117.1 199.789 116.484 199.564 115.949L198.188 112.674C197.963 112.139 197.347 111.887 196.812 112.112Z" fill="white"/>
<g opacity="0.6">
<path opacity="0.6" d="M180.409 93.7484C184.623 92.7546 187.234 88.5327 186.24 84.3186C185.246 80.1045 181.024 77.494 176.81 78.4879C172.596 79.4817 169.985 83.7035 170.979 87.9176C171.973 92.1317 176.195 94.7422 180.409 93.7484Z" fill="#263238"/>
<path opacity="0.6" d="M175.38 94.7937C177.978 91.3295 177.275 86.4158 173.811 83.8186C170.346 81.2214 165.433 81.9242 162.835 85.3884C160.238 88.8526 160.941 93.7663 164.405 96.3636C167.87 98.9608 172.783 98.2579 175.38 94.7937Z" fill="white"/>
</g>
<path d="M64.8696 181.895L58.0586 176.741L59.7322 173.75L66.9713 179.366L64.8696 181.895Z" fill="#133C8B"/>
<path d="M82.5382 93.4359L81.4818 95.1483C81.3984 95.2762 81.5541 95.4375 81.782 95.4541L102.743 97.2667C102.921 97.2667 103.077 97.2055 103.099 97.0943L103.433 95.3207C103.46 95.1984 103.31 95.0816 103.116 95.0649L82.8773 93.3135C82.8151 93.3036 82.7513 93.3095 82.692 93.3309C82.6327 93.3523 82.5797 93.3884 82.5382 93.4359Z" fill="#133C8B"/>
<path opacity="0.5" d="M82.5382 93.4359L81.4818 95.1483C81.3984 95.2762 81.5541 95.4375 81.782 95.4541L102.743 97.2667C102.921 97.2667 103.077 97.2055 103.099 97.0943L103.433 95.3207C103.46 95.1984 103.31 95.0816 103.116 95.0649L82.8773 93.3135C82.8151 93.3036 82.7513 93.3095 82.692 93.3309C82.6327 93.3523 82.5797 93.3884 82.5382 93.4359Z" fill="black"/>
<path d="M85.0693 95.9323L84.5133 95.8878C84.4076 95.8878 84.3298 95.8155 84.3409 95.7488L84.7968 93.4469C84.7968 93.3747 84.908 93.3302 85.0192 93.3413L85.5752 93.3858C85.6864 93.3858 85.7643 93.4581 85.7476 93.5248L85.2917 95.8266C85.2694 95.8933 85.1693 95.9434 85.0693 95.9323Z" fill="#133C8B"/>
<path d="M101.192 97.3279L100.636 97.2834C100.531 97.2834 100.453 97.2112 100.464 97.1444L100.92 94.8426C100.94 94.8027 100.973 94.7707 101.013 94.7515C101.053 94.7324 101.099 94.7273 101.142 94.737L101.698 94.7814C101.809 94.7814 101.887 94.8537 101.871 94.9204L101.415 97.2223C101.409 97.3001 101.309 97.339 101.192 97.3279Z" fill="#133C8B"/>
<path d="M93.131 96.6327L92.575 96.5827C92.4638 96.5827 92.386 96.5104 92.4026 96.4437L92.8586 94.1419C92.8586 94.0751 92.9698 94.0251 93.0754 94.0362L93.6314 94.0863C93.737 94.0863 93.8149 94.1585 93.8038 94.2253L93.3478 96.5271C93.3367 96.5938 93.2422 96.6383 93.131 96.6327Z" fill="#133C8B"/>
<path d="M61.8497 186.988C61.7871 186.999 61.7232 186.999 61.6606 186.988C61.0546 186.866 60.5486 185.837 60.2818 185.237C60.2712 185.221 60.2656 185.203 60.2656 185.184C60.2656 185.165 60.2712 185.147 60.2818 185.131C60.2962 185.12 60.3138 185.115 60.3318 185.115C60.3498 185.115 60.3674 185.12 60.3818 185.131C60.5709 185.198 62.2278 185.837 62.3556 186.443C62.371 186.509 62.3677 186.578 62.3461 186.641C62.3244 186.705 62.2854 186.762 62.2333 186.805C62.1282 186.905 61.9938 186.969 61.8497 186.988ZM60.5542 185.365C60.9323 186.193 61.3548 186.721 61.6996 186.788C61.7774 186.8 61.857 186.792 61.9308 186.765C62.0047 186.737 62.0705 186.692 62.1221 186.632C62.1499 186.612 62.171 186.583 62.1829 186.551C62.1948 186.518 62.1968 186.483 62.1888 186.449C62.111 186.076 61.1269 185.598 60.5542 185.365Z" fill="#133C8B"/>
<path d="M61.8997 185.443C61.3712 185.508 60.8347 185.451 60.3318 185.276C60.3164 185.269 60.3031 185.258 60.2934 185.245C60.2836 185.231 60.2777 185.215 60.2762 185.198C60.274 185.181 60.2765 185.164 60.2833 185.148C60.2902 185.133 60.3011 185.119 60.3151 185.109C60.3651 185.076 61.5105 184.242 62.1999 184.398C62.2851 184.414 62.3656 184.449 62.4358 184.5C62.5059 184.55 62.564 184.616 62.6058 184.692C62.6608 184.762 62.6907 184.848 62.6907 184.937C62.6907 185.026 62.6608 185.112 62.6058 185.181C62.408 185.348 62.1583 185.44 61.8997 185.443ZM60.6042 185.148C61.1602 185.309 62.1999 185.32 62.4557 185.037C62.5002 184.992 62.5391 184.92 62.4557 184.776C62.4282 184.724 62.3895 184.679 62.3423 184.644C62.2951 184.61 62.2408 184.586 62.1832 184.575C61.7162 184.481 60.9156 184.942 60.6042 185.148Z" fill="#133C8B"/>
<path d="M95.3157 196.685C94.7766 196.671 94.2402 196.604 93.7144 196.485C93.6965 196.477 93.6813 196.464 93.6707 196.448C93.66 196.432 93.6543 196.413 93.6543 196.393C93.6543 196.374 93.66 196.355 93.6707 196.338C93.6813 196.322 93.6965 196.309 93.7144 196.301C93.959 196.185 96.0829 195.189 96.6167 195.567C96.6662 195.599 96.7057 195.644 96.7303 195.697C96.755 195.75 96.7638 195.81 96.7557 195.868C96.7544 195.977 96.7276 196.084 96.6774 196.18C96.6271 196.277 96.5549 196.36 96.4666 196.424C96.1207 196.631 95.7174 196.723 95.3157 196.685ZM94.048 196.351C94.6818 196.468 95.8494 196.624 96.3276 196.262C96.3896 196.214 96.4405 196.152 96.4769 196.082C96.5133 196.012 96.5345 195.935 96.5389 195.857C96.5389 195.779 96.5389 195.745 96.4888 195.729C96.1886 195.523 94.932 195.962 94.048 196.351Z" fill="#133C8B"/>
<path d="M93.7362 196.485C93.7165 196.493 93.6947 196.493 93.675 196.485C93.6606 196.474 93.6497 196.46 93.6437 196.443C93.6378 196.426 93.6371 196.408 93.6416 196.39C93.6416 196.296 94.142 194.2 95.3096 194.333C95.5988 194.372 95.6766 194.511 95.6933 194.628C95.7656 195.184 94.4256 196.24 93.7806 196.502L93.7362 196.485ZM95.1929 194.5C94.4534 194.5 94.0253 195.723 93.8807 196.213C94.5757 195.846 95.5487 194.973 95.4876 194.634C95.4876 194.606 95.4876 194.528 95.2707 194.506L95.1929 194.5Z" fill="#133C8B"/>
<path d="M84.9519 72.3301L84.6572 72.7471L84.3347 73.2197C84.1179 73.5422 83.901 73.8703 83.6953 74.2094C83.2728 74.8766 82.8891 75.5716 82.4999 76.2666C81.7314 77.6646 81.0553 79.1114 80.4761 80.5979C79.8921 82.0754 79.4036 83.589 79.0138 85.1293L78.7525 86.2413C78.7525 86.2079 78.7191 86.3246 78.7803 86.5359C78.9716 87.1302 79.2509 87.6924 79.6087 88.2039C80.5068 89.4952 81.5151 90.7062 82.6222 91.8235C83.7342 93.0022 84.9686 94.142 86.1973 95.2763C87.4261 96.4105 88.716 97.5002 90.0059 98.5733C91.2958 99.6464 92.6136 100.731 93.8979 101.776L92.5079 103.828C89.5297 102.061 86.6542 100.127 83.8955 98.034C82.5055 96.9887 81.1433 95.8879 79.8256 94.698C78.4438 93.487 77.1831 92.1444 76.0614 90.6893C75.3891 89.8347 74.863 88.8746 74.5046 87.8481C74.2613 87.1336 74.1796 86.374 74.2656 85.6241V85.4684V85.385L74.2934 85.2182L74.349 84.8791L74.4657 84.2063C74.7929 82.4155 75.2538 80.6517 75.8446 78.9299C76.4556 77.2165 77.1781 75.5449 78.0074 73.9259C78.4244 73.1141 78.8804 72.3301 79.3696 71.5573C79.6087 71.1681 79.8589 70.7844 80.1202 70.4008L80.5317 69.8448C80.6762 69.6502 80.7986 69.4778 80.9932 69.2388L84.9519 72.3301Z" fill="#FFC3BD"/>
<path d="M84.4578 64.4961C80.6436 65.4969 76.9629 74.7432 76.9629 74.7432L81.9002 79.2579C81.9002 79.2579 89.6564 72.1856 89.3951 68.9941C89.1782 66.2808 87.5213 63.6843 84.4578 64.4961Z" fill="#133C8B"/>
<path opacity="0.2" d="M90.3554 63.9399C89.6567 64.0826 88.9444 64.1479 88.2315 64.1345C88.0813 66.8812 89.8439 69.5333 94.1751 73.0917C95.2148 69.8502 97.5111 69.1497 97.5111 69.1497L90.3554 63.9399Z" fill="black"/>
<path opacity="0.2" d="M99.431 64.813C99.431 64.813 99.9369 64.8853 101.143 65.1633C101.95 66.4031 102.995 70.2229 100.621 72.9473C99.6979 69.6113 97.4961 69.1887 97.4961 69.1887L99.431 64.813Z" fill="black"/>
<path d="M90.3559 63.9399C90.3559 63.9399 89.2439 63.9399 87.8872 63.9399C87.081 65.1798 89.8555 68.6159 94.1811 72.1743C95.2209 68.9328 97.5171 69.1274 97.5171 69.1274L90.3559 63.9399Z" fill="white"/>
<path d="M99.431 64.813C99.431 64.813 99.9369 64.8853 101.143 65.1633C101.95 66.4031 103.69 69.7614 101.316 72.4635C100.393 69.1275 97.4961 69.172 97.4961 69.172L99.431 64.813Z" fill="white"/>
<path d="M92.1402 53.9597C92.4627 56.9288 92.5683 62.2997 90.3555 64.1012C90.3555 64.1012 91.5064 67.4372 97.4945 69.1719C101.097 67.0924 99.4294 64.8851 99.4294 64.8851C96.2435 63.8287 96.5382 61.4212 97.2999 59.1972L92.1402 53.9597Z" fill="#FFC3BD"/>
<path opacity="0.2" d="M94.2427 56.1003L97.3007 59.1973C97.1134 59.712 96.972 60.2422 96.8782 60.7819C95.6494 60.4983 93.8702 59.2195 93.8535 57.9073C93.8761 57.2868 94.0079 56.6752 94.2427 56.1003Z" fill="black"/>
<path d="M98.9018 42.0948C99.8748 41.0217 101.804 42.3894 102.516 45.0193C103.583 48.9113 100.737 49.1893 99.2465 47.2433C97.7564 45.2973 98.09 42.9899 98.9018 42.0948Z" fill="#263238"/>
<path d="M101.916 48.928C102.892 49.2658 103.815 49.7413 104.657 50.3402C104.173 49.1615 103.74 48.4442 101.916 48.928Z" fill="#263238"/>
<path d="M102.477 49.1115C103.267 48.9541 104.076 48.9092 104.878 48.978C104.089 48.372 103.516 48.0718 102.477 49.1115Z" fill="#263238"/>
<path d="M89.5166 49.3229C90.7564 54.0656 91.1846 56.1005 94.0869 58.0855C98.4626 61.0767 104.017 58.5191 104.223 53.4985C104.406 48.9837 102.349 41.9893 97.2728 40.9996C96.1541 40.7725 94.9959 40.8362 93.9089 41.1846C92.8219 41.533 91.8424 42.1545 91.0643 42.9896C90.2861 43.8247 89.7351 44.8455 89.4642 45.9543C89.1932 47.0632 89.2112 48.223 89.5166 49.3229Z" fill="#FFC3BD"/>
<path d="M91.8075 43.0677L90.4341 44.6634C90.0221 45.1349 89.4408 45.425 88.8164 45.4708C88.1919 45.5165 87.5746 45.3144 87.0981 44.9081C86.6259 44.4968 86.3348 43.9159 86.2879 43.2914C86.2411 42.667 86.4423 42.0492 86.8479 41.5721L88.2213 39.9819C88.6333 39.5109 89.214 39.2207 89.838 39.1739C90.4621 39.1271 91.0796 39.3274 91.5573 39.7317C92.0283 40.1438 92.3184 40.7244 92.3652 41.3485C92.412 41.9725 92.2117 42.59 91.8075 43.0677Z" fill="white"/>
<path d="M93.0753 44.8471L91.4073 45.6811C90.7227 46.0164 89.9333 46.0672 89.2113 45.8224C88.4894 45.5775 87.8937 45.057 87.5542 44.3745C87.2187 43.689 87.1677 42.8988 87.4125 42.1759C87.6573 41.4531 88.1779 40.8564 88.8608 40.5158L90.5288 39.6818C91.2149 39.3467 92.0058 39.2965 92.7287 39.5424C93.4516 39.7882 94.0479 40.31 94.3875 40.994C94.7224 41.6793 94.7724 42.4693 94.5265 43.1913C94.2806 43.9133 93.7589 44.5086 93.0753 44.8471Z" fill="#133C8B"/>
<path d="M90.9394 52.8702C90.9394 52.8702 94.3644 52.0862 92.9076 47.0766C92.8533 46.8838 92.8438 46.6812 92.8798 46.4842C92.9159 46.2871 92.9966 46.101 93.1158 45.94C93.2349 45.7789 93.3894 45.6473 93.5672 45.5552C93.7451 45.4631 93.9417 45.413 94.142 45.4086C98.0006 45.303 101.609 44.4968 101.098 42.2617C100.458 39.4372 90.8449 37.2577 89.099 42.9122C85.6908 43.7073 85.5629 50.4238 90.9394 52.8702Z" fill="#263238"/>
<path d="M90.957 51.8803C91.9333 52.2182 92.8563 52.6937 93.6981 53.2926C93.2144 52.125 92.7807 51.4077 90.957 51.8803Z" fill="#263238"/>
<path d="M91.5176 52.0751C92.3079 51.9177 93.1166 51.8728 93.9195 51.9416C93.1355 51.3467 92.5629 51.0409 91.5176 52.0751Z" fill="#263238"/>
<path d="M88.7388 53.048C89.1829 53.8856 89.9405 54.5133 90.8461 54.7938C92.0526 55.1552 92.6753 54.0877 92.3639 52.9368C92.0804 51.9026 91.1129 50.4737 89.8953 50.6127C89.6304 50.6493 89.3788 50.7513 89.1632 50.9094C88.9475 51.0674 88.7745 51.2767 88.6598 51.5182C88.5451 51.7597 88.4923 52.026 88.5061 52.2931C88.5199 52.5601 88.5998 52.8195 88.7388 53.048Z" fill="#FFC3BD"/>
<path d="M97.5562 49.1614C97.6341 49.5506 97.9065 49.8286 98.1567 49.7786C98.4069 49.7286 98.557 49.3672 98.4847 48.978C98.4125 48.5888 98.1345 48.3108 97.8787 48.3608C97.6229 48.4108 97.4784 48.7667 97.5562 49.1614Z" fill="#263238"/>
<path d="M101.976 48.2887C102.054 48.6835 102.321 48.9559 102.577 48.9059C102.832 48.8558 102.977 48.5 102.899 48.1108C102.821 47.7216 102.554 47.4436 102.299 47.4936C102.043 47.5437 101.898 47.8995 101.976 48.2887Z" fill="#263238"/>
<path d="M102.193 47.538L103.077 47.082C103.077 47.082 102.738 47.9105 102.193 47.538Z" fill="#263238"/>
<path d="M100.459 49.2673C100.982 50.0916 101.617 50.84 102.344 51.4913C102.174 51.6772 101.966 51.8233 101.733 51.9194C101.501 52.0155 101.25 52.0592 100.998 52.0473L100.459 49.2673Z" fill="#ED847E"/>
<path d="M99.1915 53.8876C98.3688 53.8982 97.5732 53.5938 96.9675 53.0369C96.9495 53.0183 96.9395 52.9934 96.9395 52.9674C96.9395 52.9415 96.9495 52.9166 96.9675 52.8979C96.9862 52.8799 97.0111 52.8699 97.037 52.8699C97.0629 52.8699 97.0879 52.8799 97.1065 52.8979C97.4807 53.2279 97.9276 53.4648 98.4106 53.5894C98.8937 53.714 99.3994 53.7229 99.8865 53.6152C99.9116 53.6108 99.9374 53.6165 99.9582 53.6311C99.9791 53.6457 99.9933 53.668 99.9977 53.693C100.002 53.7181 99.9964 53.7439 99.9818 53.7647C99.9672 53.7856 99.945 53.7998 99.9199 53.8042C99.6808 53.858 99.4366 53.886 99.1915 53.8876Z" fill="#263238"/>
<path d="M94.9035 47.6437C94.8684 47.6423 94.8342 47.6328 94.8034 47.6159C94.7592 47.5894 94.7273 47.5464 94.7148 47.4963C94.7023 47.4463 94.7102 47.3933 94.7367 47.3491C94.9206 47.0366 95.1765 46.7727 95.4831 46.5793C95.7896 46.3858 96.138 46.2685 96.4992 46.2371C96.5504 46.237 96.5997 46.2565 96.6369 46.2917C96.6742 46.3269 96.6965 46.375 96.6994 46.4261C96.7001 46.4517 96.6958 46.4771 96.6867 46.501C96.6776 46.5249 96.6639 46.5468 96.6463 46.5654C96.6288 46.5839 96.6077 46.5989 96.5844 46.6093C96.561 46.6198 96.5359 46.6255 96.5103 46.6263C96.2121 46.6591 95.9259 46.7624 95.6755 46.9277C95.4251 47.0931 95.2176 47.3156 95.0703 47.577C95.0499 47.6007 95.0241 47.6192 94.995 47.6308C94.966 47.6424 94.9346 47.6468 94.9035 47.6437Z" fill="#263238"/>
<path d="M103.205 46.0758C103.174 46.0841 103.142 46.0841 103.111 46.0758C102.851 45.9229 102.56 45.8332 102.259 45.8138C101.959 45.7945 101.658 45.8462 101.382 45.9646C101.332 45.9897 101.275 45.9941 101.222 45.9769C101.169 45.9597 101.126 45.9223 101.101 45.8729C101.076 45.8235 101.071 45.7661 101.088 45.7135C101.106 45.6608 101.143 45.6172 101.192 45.5921C101.525 45.4412 101.89 45.3731 102.255 45.3934C102.62 45.4137 102.974 45.522 103.289 45.7089C103.311 45.721 103.33 45.7375 103.346 45.7573C103.362 45.7771 103.373 45.7999 103.38 45.8242C103.387 45.8486 103.388 45.8741 103.385 45.8991C103.382 45.9242 103.374 45.9484 103.361 45.9702C103.347 46.0002 103.325 46.0259 103.298 46.0445C103.27 46.0631 103.238 46.0739 103.205 46.0758Z" fill="#263238"/>
<path d="M92.0796 100.947L96.5276 101.259L94.5204 106.012C94.5204 106.012 90.8064 104.839 90.6562 102.12L92.0796 100.947Z" fill="#FFC3BD"/>
<path d="M98.2339 103.95L96.0822 107.197L94.5254 106.013L96.5437 101.259L98.2339 103.95Z" fill="#FFC3BD"/>
<path d="M97.7734 48.4054L98.6575 47.9495C98.6575 47.9495 98.3183 48.7779 97.7734 48.4054Z" fill="#263238"/>
</svg>
