<svg width="183" height="174" viewBox="0 0 183 174" fill="none" xmlns="http://www.w3.org/2000/svg">
<path d="M91.4322 173.752C141.929 173.752 182.864 151.087 182.864 123.127C182.864 95.1669 141.929 72.501 91.4322 72.501C40.9356 72.501 0 95.1669 0 123.127C0 151.087 40.9356 173.752 91.4322 173.752Z" fill="#F5F5F5"/>
<path d="M15.3482 138.164C26.3784 143.741 44.2562 143.741 55.2824 138.164C66.3086 132.588 66.3126 123.525 55.2824 117.936C44.2522 112.348 26.3784 112.36 15.3482 117.936C4.31805 123.513 4.33 132.588 15.3482 138.164Z" fill="#E6E6E6"/>
<path d="M167.516 138.164C156.49 143.741 138.608 143.741 127.582 138.164C116.556 132.588 116.556 123.525 127.582 117.936C138.608 112.348 156.49 112.36 167.516 117.936C178.542 123.513 178.535 132.588 167.516 138.164Z" fill="#E6E6E6"/>
<path d="M114.138 121.529L91.4323 108.42L68.7266 121.529L91.4323 134.635L114.138 121.529Z" fill="#E6E6E6"/>
<path d="M123.879 45.6087C131.368 38.8687 139.414 30.4158 139.526 25.3648C136.048 25.2851 135.252 25.3648 132.977 27.0896C130.953 28.6273 122.648 39.1396 119.832 40.96C116.103 41.8961 109.395 42.9876 106.164 43.0474C105.592 43.0534 105.038 42.8493 104.607 42.4737C103.44 41.4699 102.531 41.5018 101.261 40.8804C100.265 40.3864 99.8785 39.8208 99.6673 39.996C99.4562 40.1713 99.0499 40.9003 99.6036 41.7089C99.9673 42.1827 100.395 42.6036 100.874 42.9597C99.6721 42.8227 98.4949 42.5184 97.3769 42.0555C94.696 40.98 93.3615 41.3146 94.4331 44.8439C95.1023 47.0507 97.0104 48.3852 102.4 48.5246C104.381 48.6153 106.366 48.5634 108.339 48.3693C112.283 47.8554 116.816 47.7757 120.035 47.3694C121.465 47.1851 122.805 46.5712 123.879 45.6087Z" fill="#FFB3B2"/>
<path d="M139.9 25.1459C137.327 24.6719 134.252 25.3451 132.2 27.3329C130.149 29.3206 125.703 34.5031 125.703 34.5031C125.703 34.5031 127.842 38.5144 131.061 39.3071L134.248 35.8296L139.9 25.1459Z" fill="#F7F7F7"/>
<path opacity="0.1" d="M139.9 25.1459C137.327 24.6719 134.252 25.3451 132.2 27.3329C130.149 29.3206 125.703 34.5031 125.703 34.5031C125.703 34.5031 127.842 38.5144 131.061 39.3071L134.248 35.8296L139.9 25.1459Z" fill="black"/>
<path d="M154.233 120.518H149.664V127.17H154.233V120.518Z" fill="#FFB3B2"/>
<path d="M138.162 112.285L133.596 112.442L133.824 119.09L138.391 118.933L138.162 112.285Z" fill="#FFB3B2"/>
<path d="M153.929 55.5674C153.929 59.9492 154.495 88.1521 154.495 88.1521C154.602 89.4108 155.778 91.7371 155.523 96.5452C155.176 103.094 154.61 121.29 154.61 121.29C154.61 121.29 152.467 123.414 149.432 121.29C149.432 121.29 145.297 96.5691 144.476 90.0761C143.763 84.4116 142.548 69.0235 142.548 69.0235L140.222 87.4948C140.222 87.4948 140.967 91.7531 141.134 94.7606C141.302 97.7681 138.449 114.766 138.449 114.766C137.71 115.229 136.862 115.49 135.989 115.524C135.117 115.558 134.251 115.362 133.478 114.957C133.478 114.957 131.725 89.9645 131.267 87.2358C130.809 84.5072 132.574 55.5674 132.574 55.5674H153.929Z" fill="#37474F"/>
<path d="M147.054 25.3529C147.397 25.4365 149.361 25.8986 151.229 26.3926C152.004 26.5968 152.689 27.052 153.178 27.6869C153.666 28.3219 153.931 29.1008 153.93 29.902V55.5674C150.743 59.0529 139.557 60.6782 132.562 55.5674V33.2959C132.562 29.7387 134.554 25.4644 140 25.1458L147.054 25.3529Z" fill="#EBEBEB"/>
<path d="M148.591 7.14063C148.959 7.09741 149.331 7.13883 149.681 7.26172C150.03 7.38461 150.347 7.58572 150.606 7.84968C151.471 8.73401 151.292 10.3712 150.606 14.1356L147.934 14.4423L148.591 7.14063Z" fill="#263238"/>
<path d="M133.001 6.05311C132.426 6.05554 131.856 5.9389 131.328 5.71053C130.507 5.24049 130.292 6.17261 130.743 6.98524C131.041 7.56527 131.483 8.05935 132.026 8.42052C132.569 8.78168 133.195 8.99792 133.846 9.04867C133.87 8.93315 134.614 6.96134 134.614 6.96134L133.001 6.05311Z" fill="#263238"/>
<path d="M137.168 15.243C140.052 15.243 142.39 12.9048 142.39 10.0206C142.39 7.13645 140.052 4.79834 137.168 4.79834C134.283 4.79834 131.945 7.13645 131.945 10.0206C131.945 12.9048 134.283 15.243 137.168 15.243Z" fill="#263238"/>
<path d="M147.338 14.4423C147.737 14.6813 148.302 13.9164 148.792 13.4066C149.282 12.8967 150.88 12.2115 151.676 13.8726C152.473 15.5337 150.971 17.8561 149.713 18.2544C147.546 18.9356 147.219 17.5454 147.219 17.5454L147.056 25.3649C147.056 25.3649 145.633 28.8385 141.789 29.3483C137.945 29.8582 138.738 26.6993 140.001 25.1458V22.7557C140.001 22.7557 138.037 23.0545 137.081 22.9031C135.488 22.6561 134.48 21.4013 133.998 19.6725C133.221 16.8841 132.926 14.6613 133.599 9.21197C134.324 3.23679 141.276 3.17306 145.028 5.53525C148.78 7.89743 147.338 14.4423 147.338 14.4423Z" fill="#FFB3B2"/>
<path d="M147.138 15.5497C147.325 15.478 148.297 13.8568 148.791 13.4066C149.476 12.7812 148.592 7.14065 148.592 7.14065C148.592 7.14065 149.285 5.00154 147.93 3.58343C146.576 2.16532 143.947 2.38839 142.039 2.33262C140.047 2.26092 137.904 2.14142 135.183 0.958333C132.463 -0.224753 132.256 -0.364174 131.917 0.830862C131.578 2.0259 131.451 4.76651 133.076 6.60289L134.43 7.09684C134.43 7.09684 135.159 7.74614 137.701 8.05685C139.61 8.2649 141.536 8.2649 143.445 8.05685C144.182 7.95726 144.967 8.45519 145.214 10.7975C145.397 12.4944 146.006 15.976 147.138 15.5497Z" fill="#263238"/>
<path d="M148.587 7.57877L150.977 6.29211C150.901 6.12992 150.792 5.98499 150.658 5.86614C150.524 5.74728 150.366 5.65697 150.196 5.60071C150.026 5.54445 149.846 5.5234 149.667 5.53886C149.489 5.55431 149.315 5.60594 149.157 5.69061C148.838 5.87205 148.601 6.16929 148.495 6.52078C148.389 6.87227 148.422 7.25108 148.587 7.57877Z" fill="#263238"/>
<path d="M140.004 22.7678C140.004 22.7678 143.565 22.0507 144.808 21.3895C145.54 21.0073 146.14 20.4131 146.529 19.6846C146.34 20.4071 146.008 21.0844 145.553 21.6763C144.641 22.8395 140.004 23.6959 140.004 23.6959V22.7678Z" fill="#F59595"/>
<path d="M140.004 13.554C140.009 13.6947 140.056 13.8306 140.138 13.9449C140.221 14.0591 140.335 14.1467 140.466 14.1966C140.598 14.2465 140.741 14.2565 140.879 14.2255C141.016 14.1944 141.141 14.1236 141.238 14.0219C141.336 13.9202 141.401 13.7921 141.426 13.6536C141.451 13.5151 141.435 13.3722 141.379 13.2429C141.324 13.1136 141.231 13.0035 141.113 12.9263C140.996 12.8492 140.858 12.8084 140.717 12.8091C140.524 12.8153 140.342 12.8968 140.208 13.0361C140.075 13.1753 140.002 13.3612 140.004 13.554Z" fill="#263238"/>
<path d="M140.682 15.4182C140.682 15.4446 140.692 15.4699 140.711 15.4886C140.729 15.5073 140.755 15.5178 140.781 15.5178C140.808 15.5178 140.833 15.5073 140.852 15.4886C140.87 15.4699 140.881 15.4446 140.881 15.4182C140.881 15.3918 140.87 15.3664 140.852 15.3478C140.833 15.3291 140.808 15.3186 140.781 15.3186C140.755 15.3186 140.729 15.3291 140.711 15.3478C140.692 15.3664 140.682 15.3918 140.682 15.4182Z" fill="#F59595"/>
<path d="M141.482 14.9641C141.482 14.9775 141.484 14.9909 141.489 15.0035C141.494 15.016 141.501 15.0274 141.51 15.0371C141.519 15.0468 141.531 15.0545 141.543 15.0597C141.555 15.065 141.569 15.0677 141.582 15.0677C141.61 15.0677 141.636 15.0568 141.655 15.0373C141.675 15.0179 141.686 14.9916 141.686 14.9641C141.689 14.9491 141.688 14.9336 141.685 14.9187C141.681 14.9039 141.674 14.89 141.664 14.8782C141.654 14.8664 141.642 14.8568 141.628 14.8503C141.614 14.8437 141.599 14.8403 141.584 14.8403C141.569 14.8403 141.554 14.8437 141.54 14.8503C141.526 14.8568 141.514 14.8664 141.504 14.8782C141.494 14.89 141.487 14.9039 141.484 14.9187C141.48 14.9336 141.479 14.9491 141.482 14.9641Z" fill="#F59595"/>
<path d="M141.887 15.7608C141.886 15.7743 141.888 15.788 141.892 15.8008C141.897 15.8136 141.904 15.8253 141.913 15.8351C141.923 15.8449 141.934 15.8526 141.947 15.8576C141.959 15.8627 141.973 15.865 141.987 15.8644C142.014 15.8644 142.04 15.8535 142.06 15.834C142.079 15.8146 142.09 15.7883 142.09 15.7608C142.09 15.7333 142.079 15.707 142.06 15.6876C142.04 15.6681 142.014 15.6572 141.987 15.6572C141.96 15.6583 141.935 15.6696 141.916 15.6889C141.897 15.7082 141.887 15.734 141.887 15.7608Z" fill="#F59595"/>
<path d="M142.553 15.0757C142.553 15.1036 142.564 15.1304 142.583 15.1504C142.602 15.1705 142.628 15.1823 142.656 15.1833C142.67 15.1828 142.683 15.1796 142.696 15.1739C142.708 15.1682 142.719 15.1602 142.728 15.1502C142.738 15.1402 142.745 15.1285 142.75 15.1157C142.754 15.1029 142.756 15.0893 142.756 15.0757C142.756 15.0489 142.746 15.0232 142.727 15.0039C142.708 14.9846 142.683 14.9732 142.656 14.9722C142.629 14.9722 142.603 14.9831 142.583 15.0025C142.564 15.0219 142.553 15.0483 142.553 15.0757Z" fill="#F59595"/>
<path d="M139.555 14.8606C139.555 14.887 139.565 14.9123 139.584 14.931C139.603 14.9497 139.628 14.9602 139.654 14.9602C139.681 14.9602 139.706 14.9497 139.725 14.931C139.743 14.9123 139.754 14.887 139.754 14.8606C139.754 14.8342 139.743 14.8088 139.725 14.7902C139.706 14.7715 139.681 14.761 139.654 14.761C139.628 14.761 139.603 14.7715 139.584 14.7902C139.565 14.8088 139.555 14.8342 139.555 14.8606Z" fill="#F59595"/>
<path d="M139.789 15.761C139.788 15.7745 139.79 15.7882 139.795 15.801C139.799 15.8138 139.806 15.8255 139.816 15.8353C139.825 15.8451 139.837 15.8528 139.849 15.8578C139.862 15.8629 139.875 15.8651 139.889 15.8645C139.902 15.8645 139.916 15.8618 139.928 15.8566C139.94 15.8513 139.952 15.8436 139.961 15.834C139.97 15.8243 139.977 15.8128 139.982 15.8003C139.987 15.7878 139.989 15.7744 139.989 15.761C139.989 15.7346 139.978 15.7092 139.959 15.6905C139.941 15.6719 139.915 15.6614 139.889 15.6614C139.863 15.6614 139.837 15.6719 139.819 15.6905C139.8 15.7092 139.789 15.7346 139.789 15.761Z" fill="#F59595"/>
<path d="M138.682 15.1753C138.682 15.2017 138.692 15.227 138.711 15.2457C138.729 15.2644 138.755 15.2749 138.781 15.2749C138.808 15.2749 138.833 15.2644 138.852 15.2457C138.87 15.227 138.881 15.2017 138.881 15.1753C138.881 15.1489 138.87 15.1235 138.852 15.1049C138.833 15.0862 138.808 15.0757 138.781 15.0757C138.755 15.0757 138.729 15.0862 138.711 15.1049C138.692 15.1235 138.682 15.1489 138.682 15.1753Z" fill="#F59595"/>
<path d="M135.574 14.8207C135.574 14.8475 135.585 14.8732 135.603 14.8926C135.622 14.9119 135.647 14.9232 135.674 14.9243C135.687 14.9237 135.701 14.9206 135.713 14.9149C135.726 14.9092 135.737 14.9011 135.746 14.8911C135.755 14.8811 135.762 14.8694 135.767 14.8567C135.772 14.8439 135.774 14.8303 135.773 14.8167C135.773 14.7899 135.763 14.7642 135.745 14.7448C135.726 14.7255 135.701 14.7142 135.674 14.7131C135.66 14.7136 135.647 14.7168 135.635 14.7225C135.622 14.7282 135.611 14.7363 135.602 14.7463C135.593 14.7563 135.585 14.768 135.581 14.7807C135.576 14.7935 135.574 14.8071 135.574 14.8207Z" fill="#F59595"/>
<path d="M134.873 15.3108C134.873 15.3242 134.875 15.3376 134.88 15.3501C134.884 15.3626 134.892 15.3741 134.901 15.3838C134.91 15.3935 134.921 15.4011 134.934 15.4064C134.946 15.4116 134.959 15.4143 134.973 15.4143C134.999 15.4133 135.025 15.4019 135.043 15.3826C135.062 15.3633 135.072 15.3376 135.072 15.3108C135.072 15.2844 135.062 15.259 135.043 15.2404C135.024 15.2217 134.999 15.2112 134.973 15.2112C134.946 15.2112 134.921 15.2217 134.902 15.2404C134.884 15.259 134.873 15.2844 134.873 15.3108Z" fill="#F59595"/>
<path d="M134.324 14.785C134.324 14.7986 134.326 14.8121 134.331 14.8249C134.335 14.8377 134.343 14.8494 134.352 14.8594C134.361 14.8694 134.372 14.8774 134.385 14.8831C134.397 14.8888 134.41 14.892 134.424 14.8925C134.448 14.8877 134.47 14.8746 134.486 14.8553C134.502 14.8361 134.511 14.8119 134.511 14.787C134.511 14.762 134.502 14.7378 134.486 14.7186C134.47 14.6993 134.448 14.6862 134.424 14.6814C134.397 14.6824 134.372 14.6938 134.353 14.7131C134.335 14.7324 134.324 14.7582 134.324 14.785Z" fill="#F59595"/>
<path d="M133.658 15.0279C133.655 15.0429 133.656 15.0584 133.659 15.0733C133.663 15.0881 133.67 15.102 133.68 15.1138C133.689 15.1256 133.702 15.1352 133.716 15.1417C133.729 15.1483 133.745 15.1517 133.76 15.1517C133.775 15.1517 133.79 15.1483 133.804 15.1417C133.818 15.1352 133.83 15.1256 133.84 15.1138C133.85 15.102 133.857 15.0881 133.86 15.0733C133.864 15.0584 133.864 15.0429 133.861 15.0279C133.861 15.0011 133.851 14.9753 133.832 14.956C133.814 14.9367 133.789 14.9253 133.762 14.9243C133.734 14.9243 133.708 14.9352 133.689 14.9547C133.669 14.9741 133.658 15.0004 133.658 15.0279Z" fill="#F59595"/>
<path d="M133.547 14.2471C133.546 14.2607 133.549 14.2743 133.553 14.2871C133.558 14.2998 133.565 14.3116 133.574 14.3215C133.584 14.3315 133.595 14.3396 133.607 14.3453C133.62 14.351 133.633 14.3542 133.647 14.3547C133.671 14.3499 133.693 14.3368 133.709 14.3175C133.725 14.2982 133.733 14.2741 133.733 14.2491C133.733 14.2242 133.725 14.2 133.709 14.1807C133.693 14.1615 133.671 14.1483 133.647 14.1436C133.62 14.1446 133.594 14.1559 133.576 14.1753C133.557 14.1946 133.547 14.2203 133.547 14.2471Z" fill="#F59595"/>
<path d="M140.76 10.8612L142.285 11.7017C142.389 11.4947 142.41 11.2561 142.344 11.0342C142.278 10.8123 142.131 10.6238 141.931 10.5067C141.831 10.4513 141.721 10.4166 141.608 10.4045C141.494 10.3924 141.38 10.4032 141.27 10.4362C141.161 10.4693 141.06 10.5239 140.972 10.5969C140.884 10.67 140.812 10.7598 140.76 10.8612Z" fill="#263238"/>
<path d="M140.326 18.4814L138.697 19.0909C138.733 19.2001 138.79 19.301 138.866 19.3876C138.941 19.4743 139.033 19.5449 139.137 19.5954C139.24 19.6459 139.352 19.6752 139.467 19.6816C139.582 19.688 139.696 19.6714 139.805 19.6327C140.024 19.5461 140.201 19.3776 140.299 19.1627C140.396 18.9479 140.406 18.7035 140.326 18.4814Z" fill="#F59595"/>
<path d="M134.085 11.4548L135.48 10.3832C135.414 10.2917 135.331 10.2142 135.235 10.1551C135.139 10.0961 135.032 10.0567 134.921 10.0393C134.81 10.0219 134.696 10.0267 134.587 10.0536C134.478 10.0806 134.375 10.1289 134.284 10.196C134.096 10.3402 133.97 10.5512 133.933 10.7856C133.896 11.0199 133.951 11.2595 134.085 11.4548Z" fill="#263238"/>
<path d="M134.514 13.3509C134.52 13.4904 134.567 13.625 134.649 13.7379C134.731 13.8509 134.845 13.9374 134.975 13.9865C135.106 14.0356 135.248 14.0452 135.384 14.0142C135.521 13.9832 135.645 13.9129 135.741 13.812C135.838 13.7112 135.903 13.5842 135.928 13.4468C135.953 13.3094 135.937 13.1677 135.882 13.0393C135.827 12.9108 135.736 12.8013 135.619 12.7243C135.503 12.6472 135.366 12.6061 135.227 12.606C135.034 12.6112 134.851 12.6923 134.717 12.8318C134.584 12.9713 134.511 13.1578 134.514 13.3509Z" fill="#263238"/>
<path d="M137.702 12.6736L137.467 16.9638L135.229 16.1989L137.702 12.6736Z" fill="#F59595"/>
<path d="M149.664 124.915V124.262C149.226 124.453 148.21 128.329 146.398 129.982C144.956 131.297 142.992 132.815 142.49 134.281C141.988 135.747 145.226 136.647 146.573 136.408C148.138 136.129 150.851 135.029 151.532 134.018C152.213 133.006 152.528 131.492 153.082 130.743C153.636 129.994 154.91 129.15 155.209 128.293C155.376 127.819 155.181 126.776 154.95 125.903C154.735 125.107 154.508 124.206 154.233 124.282C154.233 124.382 154.233 124.78 154.233 124.78C153.898 125.151 152.982 125.513 151.947 125.553C151.277 125.561 149.656 125.417 149.664 124.915Z" fill="#263238"/>
<path d="M133.778 117.681C133.539 117.681 133.347 118.024 132.822 118.59C132.04 119.379 131.133 120.033 130.137 120.526C128.424 121.382 125.098 122.697 123.592 123.378C122.652 123.8 122.696 124.935 123.668 125.581C124.64 126.226 126.986 126.696 129.806 126.063C131.34 125.72 133.339 124.302 134.586 124.378C135.833 124.453 138.219 124.437 139.155 123.796C140.091 123.155 139.713 121.776 139.45 120.609C139.163 119.323 138.749 117.351 138.323 117.423V117.821C137.773 118.649 134.977 118.992 133.77 118.379L133.778 117.681Z" fill="#263238"/>
<path d="M142.561 69.0236C140.195 68.2887 138.019 67.0431 136.188 65.3748C136.188 65.3748 137.418 67.6732 141.067 69.8123L140.868 82.3761L142.561 69.0236Z" fill="#263238"/>
<path d="M58.9927 45.6087C51.4998 38.8687 43.4373 30.4158 43.3457 25.3648C46.8193 25.2851 47.62 25.3648 49.8905 27.0896C51.9141 28.6273 60.2196 39.1396 63.0359 40.96C66.7644 41.8961 73.4766 42.9876 76.7032 43.0474C77.2751 43.0534 77.8293 42.8493 78.2607 42.4737C79.4278 41.4699 80.3361 41.5018 81.6068 40.8804C82.6066 40.3864 82.989 39.8208 83.2002 39.996C83.475 40.2191 83.8176 40.9003 83.2639 41.7089C82.9002 42.1827 82.4726 42.6036 81.9932 42.9597C83.1954 42.8227 84.3727 42.5184 85.4907 42.0555C88.1715 40.98 89.506 41.3146 88.4384 44.8439C87.7692 47.0507 85.8571 48.3852 80.4715 48.5246C78.4906 48.6153 76.5057 48.5634 74.5322 48.3693C70.5886 47.8554 66.0594 47.7757 62.8407 47.3694C61.4089 47.1874 60.0666 46.5732 58.9927 45.6087Z" fill="#9C5456"/>
<path d="M39.064 2.39224H40.2231C42.8643 2.39224 45.3974 3.44146 47.265 5.30906C49.1326 7.17667 50.1818 9.70969 50.1818 12.3509V24.1499H37.8331C36.6869 24.1488 35.5522 23.922 34.4937 23.4825C33.4352 23.0429 32.4737 22.3991 31.6639 21.5879C30.8542 20.7768 30.2122 19.814 29.7746 18.7547C29.337 17.6954 29.1122 16.5603 29.1133 15.4142V12.3429C29.1133 9.70172 30.1625 7.1687 32.0301 5.30109C33.8977 3.43349 36.4307 2.38428 39.0719 2.38428L39.064 2.39224Z" fill="#263238"/>
<path d="M19.5999 118.028L20.0779 117.534C19.7114 118.303 18.1897 121.677 18.3451 124.258C18.4685 126.31 18.839 128.903 18.1379 130.377C17.4129 131.914 14.5528 129.907 13.7322 128.735C12.7523 127.377 11.8719 125.218 12.0353 123.386C12.1508 122.099 12.6049 120.88 12.7364 119.908C12.8678 118.936 12.5213 117.367 12.9315 116.494C13.1546 116.012 14.0708 115.371 14.8914 114.873C15.6443 114.419 16.4848 113.917 16.6242 114.176L16.2577 114.55C16.2378 115.072 16.6561 116.024 17.4169 116.813C17.9029 117.327 19.2254 118.418 19.5999 118.028Z" fill="#F7F7F7"/>
<path opacity="0.1" d="M19.5999 118.028L20.0779 117.534C19.7114 118.303 18.1897 121.677 18.3451 124.258C18.4685 126.31 18.839 128.903 18.1379 130.377C17.4129 131.914 14.5528 129.907 13.7322 128.735C12.7523 127.377 11.8719 125.218 12.0353 123.386C12.1508 122.099 12.6049 120.88 12.7364 119.908C12.8678 118.936 12.5213 117.367 12.9315 116.494C13.1546 116.012 14.0708 115.371 14.8914 114.873C15.6443 114.419 16.4848 113.917 16.6242 114.176L16.2577 114.55C16.2378 115.072 16.6561 116.024 17.4169 116.813C17.9029 117.327 19.2254 118.418 19.5999 118.028Z" fill="black"/>
<path d="M18.4814 126.091C18.4376 125.461 18.3819 124.836 18.346 124.254C18.2385 122.45 18.9475 120.271 19.5132 118.841C19.8358 118.044 22.8433 113.754 22.8433 113.754L18.6448 110.169L16.2547 114.551L16.171 114.634V114.662C15.6412 115.538 15.3744 118.988 15.0597 121.111C14.8525 122.533 14.968 124.696 16.1591 126.222C17.3063 127.66 18.3659 127.895 18.4814 126.091Z" fill="#9C5456"/>
<path d="M45.0385 119.904C44.9733 119.922 44.9156 119.961 44.8734 120.014C44.8312 120.066 44.8068 120.131 44.8034 120.199C44.7477 120.597 44.6839 121.322 44.5644 121.991C44.4011 122.884 44.2378 124.166 44.3971 124.875C44.5565 125.584 46.2255 126.592 47.3489 126.74C48.4722 126.887 50.4042 127.935 51.3084 128.731C52.4158 129.703 54.7621 130.484 56.3395 130.504C58.1878 130.524 59.6378 130.106 60.0601 128.751C60.2353 128.19 59.7733 127.504 57.3872 126.413C57.3872 126.413 56.1921 125.808 55.495 125.393C52.0414 123.31 50.8543 122.111 49.8226 119.94L45.0385 119.904Z" fill="#F7F7F7"/>
<path opacity="0.1" d="M45.0385 119.904C44.9733 119.922 44.9156 119.961 44.8734 120.014C44.8312 120.066 44.8068 120.131 44.8034 120.199C44.7477 120.597 44.6839 121.322 44.5644 121.991C44.4011 122.884 44.2378 124.166 44.3971 124.875C44.5565 125.584 46.2255 126.592 47.3489 126.74C48.4722 126.887 50.4042 127.935 51.3084 128.731C52.4158 129.703 54.7621 130.484 56.3395 130.504C58.1878 130.524 59.6378 130.106 60.0601 128.751C60.2353 128.19 59.7733 127.504 57.3872 126.413C57.3872 126.413 56.1921 125.808 55.495 125.393C52.0414 123.31 50.8543 122.111 49.8226 119.94L45.0385 119.904Z" fill="black"/>
<path d="M51.1401 121.713C50.5589 120.803 50.2303 119.756 50.188 118.677L50.1123 115.734H45.0215V119.9V120.538C45.3083 122.561 47.2164 122.8 48.8097 123.92C49.6064 124.477 52.7056 126.859 54.7849 127.246C56.4819 127.557 57.1152 126.887 57.3423 126.409C55.1006 125.088 53.0193 123.512 51.1401 121.713Z" fill="#9C5456"/>
<path d="M28.5871 89.2237C26.3229 91.2322 24.5511 93.7346 23.4086 96.5373C21.8391 100.533 17.3418 112.24 17.3418 112.24C17.3418 112.24 19.3096 115.694 21.9865 115.929C21.9865 115.929 34.6977 97.2344 36.1596 92.8646C37.6415 90.6338 39.4938 79.6475 40.8362 72.047L40.884 72.1307L43.1705 88.2557C42.5789 90.1475 42.1511 92.0866 41.8918 94.0516C41.4935 98.0072 44.8436 117.156 44.8436 117.156C44.8436 117.156 47.1181 118.351 50.265 117.295C50.265 117.295 50.771 92.3268 51.1295 87.5586C51.727 79.5558 52.0178 56.9856 50.5519 52.2493L29.579 53.4204C27.8382 58.4475 27.7028 61.6582 27.9258 67.1713C28.133 72.8676 28.5871 89.2237 28.5871 89.2237Z" fill="#37474F"/>
<path d="M40.8711 72.1306L42.0661 64.6855C42.0661 64.6855 47.1052 63.6379 49.3917 61.4988C49.3917 61.4988 47.0016 64.4824 43.4165 65.4583L42.0781 71.1905L42.9903 87.0168L40.8711 72.1306Z" fill="#263238"/>
<path d="M36.0317 25.58C31.3272 25.9027 29.8494 27.8307 29.8175 30.6629C29.8367 32.9249 30.2173 35.1694 30.9448 37.3113L33.08 44.5532C33.08 44.5532 31.3113 48.5685 29.5586 53.4443C37.7884 58.0372 48.0617 55.6232 50.5394 52.2731C50.643 51.5601 50.0057 46.0032 49.6153 42.3703C51.0653 38.7374 51.4477 36.4309 50.8342 34.0289C49.6989 29.5674 45.2932 25.2215 43.3453 25.3768L36.0317 25.58Z" fill="#F7F7F7"/>
<path opacity="0.1" d="M36.0317 25.58C31.3272 25.9027 29.8494 27.8307 29.8175 30.6629C29.8367 32.9249 30.2173 35.1694 30.9448 37.3113L33.08 44.5532C33.08 44.5532 31.3113 48.5685 29.5586 53.4443C37.7884 58.0372 48.0617 55.6232 50.5394 52.2731C50.643 51.5601 50.0057 46.0032 49.6153 42.3703C51.0653 38.7374 51.4477 36.4309 50.8342 34.0289C49.6989 29.5674 45.2932 25.2215 43.3453 25.3768L36.0317 25.58Z" fill="black"/>
<path d="M46.4763 54.8543L39.2225 47.0347L29.9649 32.9731C30.1433 34.4487 30.4716 35.9022 30.9448 37.3111L33.08 44.553C33.08 44.553 31.3113 48.5684 29.5586 53.4441C35.3227 56.6508 42.0905 56.4277 46.4763 54.8543Z" fill="#F7F7F7"/>
<path opacity="0.1" d="M46.4763 54.8543L39.2225 47.0347L29.9649 32.9731C30.1433 34.4487 30.4716 35.9022 30.9448 37.3111L33.08 44.553C33.08 44.553 31.3113 48.5684 29.5586 53.4441C35.3227 56.6508 42.0905 56.4277 46.4763 54.8543Z" fill="black"/>
<path d="M28.8926 5.77417L30.3186 8.06067C30.1721 8.16129 30.0067 8.23097 29.8323 8.26545C29.658 8.29993 29.4785 8.29848 29.3047 8.26119C29.131 8.22391 28.9666 8.15157 28.8218 8.04859C28.677 7.94562 28.5546 7.81419 28.4623 7.66233C28.2814 7.35169 28.2251 6.98391 28.305 6.63338C28.3848 6.28285 28.5949 5.97574 28.8926 5.77417Z" fill="#263238"/>
<path d="M27.3359 8.38345L30.0049 7.98511C30.0415 8.16152 30.0413 8.34358 30.0044 8.51993C29.9675 8.69627 29.8946 8.86311 29.7903 9.01002C29.686 9.15693 29.5525 9.28076 29.3982 9.37377C29.2439 9.46678 29.0721 9.52698 28.8935 9.5506C28.5338 9.59247 28.1717 9.49476 27.882 9.27761C27.5922 9.06046 27.3968 8.74042 27.3359 8.38345Z" fill="#263238"/>
<path d="M46.7149 6.65039C47.8262 7.30766 49.2005 10.108 49.0651 15.9717C48.9496 20.943 47.3403 22.1699 46.5316 22.5245C45.723 22.879 44.1615 22.6639 42.6438 22.4089V25.3925C42.6438 25.3925 44.743 27.8304 44.6076 29.1967C44.4722 30.5631 41.5802 30.8897 39.6203 29.5513C38.3475 28.6375 37.2561 27.4947 36.4017 26.1813V18.9712C36.4017 18.9712 35.3779 20.3375 33.7009 19.2262C32.0239 18.1148 31.9641 15.3582 32.9361 14.3703C33.9081 13.3824 36.0073 13.6931 36.4017 15.0595C36.4017 15.0595 38.8197 15.1471 42.0423 13.3784C43.2953 12.7034 44.3714 11.7423 45.1833 10.5733C45.9952 9.40429 46.5199 8.06027 46.7149 6.65039Z" fill="#9C5456"/>
<path d="M42.9578 14.721C42.9592 14.8437 42.9245 14.964 42.8581 15.0671C42.7916 15.1701 42.6963 15.2514 42.584 15.3007C42.4718 15.3501 42.3475 15.3653 42.2266 15.3446C42.1057 15.3238 41.9936 15.268 41.9042 15.184C41.8148 15.1 41.7521 14.9916 41.7239 14.8723C41.6956 14.753 41.703 14.628 41.7453 14.5128C41.7875 14.3977 41.8627 14.2975 41.9614 14.2247C42.0601 14.152 42.178 14.1098 42.3005 14.1036C42.3842 14.1009 42.4676 14.1148 42.546 14.1444C42.6243 14.174 42.6961 14.2187 42.7571 14.2761C42.8182 14.3334 42.8673 14.4022 42.9017 14.4786C42.9362 14.5549 42.9552 14.6373 42.9578 14.721Z" fill="#263238"/>
<path d="M43.6843 18.9355L45.1342 19.4016C45.1077 19.4985 45.062 19.5891 44.9998 19.668C44.9376 19.7469 44.8601 19.8124 44.772 19.8607C44.6839 19.9091 44.587 19.9392 44.487 19.9492C44.3871 19.9593 44.2861 19.9492 44.1901 19.9195C43.9948 19.8529 43.8329 19.7132 43.7386 19.5296C43.6442 19.3461 43.6247 19.1331 43.6843 18.9355Z" fill="#7D3336"/>
<path d="M48.0851 12.8048L46.8184 11.9245C46.872 11.8398 46.9421 11.7669 47.0246 11.7099C47.1071 11.653 47.2002 11.6133 47.2984 11.5932C47.3966 11.5732 47.4978 11.5731 47.596 11.593C47.6943 11.613 47.7874 11.6526 47.87 11.7094C48.0422 11.8274 48.1613 12.0083 48.2015 12.2131C48.2417 12.418 48.1999 12.6305 48.0851 12.8048Z" fill="#263238"/>
<path d="M47.7937 14.2789C47.7951 14.4015 47.7605 14.5219 47.694 14.6249C47.6275 14.728 47.5323 14.8093 47.42 14.8586C47.3077 14.9079 47.1834 14.9232 47.0625 14.9024C46.9417 14.8817 46.8296 14.8258 46.7402 14.7419C46.6508 14.6579 46.5881 14.5495 46.5598 14.4302C46.5315 14.3108 46.539 14.1858 46.5812 14.0707C46.6235 13.9555 46.6986 13.8554 46.7973 13.7826C46.8961 13.7098 47.014 13.6677 47.1365 13.6615C47.2202 13.6588 47.3036 13.6727 47.3819 13.7023C47.4603 13.7319 47.532 13.7766 47.5931 13.834C47.6541 13.8913 47.7032 13.9601 47.7377 14.0365C47.7721 14.1128 47.7912 14.1952 47.7937 14.2789Z" fill="#263238"/>
<path d="M44.7402 13.9124L44.8398 17.6767L46.8196 17.0633L44.7402 13.9124Z" fill="#7D3336"/>
<path d="M42.6437 22.4091C41.0503 22.202 37.756 21.2579 37.2461 19.9553C37.4497 20.6143 37.8517 21.1944 38.3973 21.6164C39.3812 22.4569 42.6437 23.405 42.6437 23.405V22.4091Z" fill="#7D3336"/>
<path d="M91.4325 91.7253L60.7918 74.0149V46.9394L60.1465 46.5689V37.5344L91.4325 55.5994V91.7253Z" fill="#F7F7F7"/>
<path opacity="0.1" d="M91.4325 91.7253L60.7918 74.0149V46.9394L60.1465 46.5689V37.5344L91.4325 55.5994V91.7253Z" fill="black"/>
<path opacity="0.15" d="M91.4317 64.6297L80.4613 58.296L80.4573 49.2496L79.7045 48.8274L79.7005 57.8579L60.791 46.9392V48.2378L79.7005 59.1525L79.6965 84.9493L80.4653 85.3915L80.4613 59.5907L91.4317 65.9244V64.6297Z" fill="black"/>
<path d="M91.4316 91.7253L121.905 74.1424V47.035L122.718 46.5689V37.5344L91.4316 55.5994V91.7253Z" fill="#F7F7F7"/>
<path opacity="0.1" d="M121.905 47.0349L103.163 57.858L103.159 48.8275L102.406 49.2497V58.2961L91.4316 64.6298V65.9245L102.402 59.5947L102.398 85.3916L103.167 84.9494L103.163 59.1605L121.905 48.3495V47.0349Z" fill="black"/>
<path d="M122.719 37.5344L91.4325 19.4734L60.1465 37.5344L91.4325 55.5993L122.719 37.5344Z" fill="#F7F7F7"/>
<path opacity="0.4" d="M122.719 37.5344L91.4325 19.4734L60.1465 37.5344L91.4325 55.5993L122.719 37.5344Z" fill="white"/>
<path opacity="0.15" d="M86.1668 37.8928L71.2129 31.1608L71.8781 30.7625L86.9595 37.5383" fill="black"/>
<path opacity="0.15" d="M96.6951 37.8928L111.649 31.1608L110.98 30.7625L95.8984 37.5383" fill="black"/>
<path opacity="0.15" d="M103.16 48.8275L92.0579 40.5858V40.5818L91.4325 40.1157L91.4285 40.1197V40.1157L90.7992 40.5818L90.8031 40.5858L79.6973 48.8275L80.4541 49.2498L91.4285 41.0518L102.407 49.2498L103.16 48.8275Z" fill="black"/>
<path d="M110.988 44.3103V81.3325L103.168 85.8498L103.16 48.8275L110.988 44.3103Z" fill="#37474F"/>
<path d="M103.167 85.8497L102.398 85.3916L103.167 84.9495V85.8497Z" fill="#263238"/>
<path d="M71.877 44.3103V81.3325L79.6965 85.8498L79.7044 48.8275L71.877 44.3103Z" fill="#263238"/>
<path d="M79.6973 85.8497L80.4661 85.3916L79.6973 84.9495V85.8497Z" fill="black"/>
<path d="M79.7044 48.8276L91.4357 40.1197L95.9091 37.5345L110.987 30.7626L103.167 26.2454L91.4357 34.9532L86.9663 37.5385L71.877 44.3103L79.7044 48.8276Z" fill="#455A64"/>
<path d="M86.9666 37.5383L86.1699 37.8929L88.803 39.06L90.8067 40.5817L91.436 40.1156L89.4802 38.6656L86.9666 37.5383Z" fill="#263238"/>
<path d="M103.159 48.8276L89.4798 38.6658L71.877 30.7626L79.7005 26.2454L93.3916 36.4072L110.987 44.3103L103.159 48.8276Z" fill="#455A64"/>
<path d="M88.9787 36.0525C88.9787 36.0525 79.7889 43.6808 64.7832 41.944C64.7832 41.944 71.1567 46.1147 78.9484 45.1706C78.9484 45.1706 77.829 48.0148 71.2643 51.4764C71.2643 51.4764 87.6642 51.6278 91.9026 38.0123L88.9787 36.0525Z" fill="#37474F"/>
<path d="M80.3379 49.7317C84.879 48.0268 89.8344 44.6647 91.8899 38.0243L88.9661 36.0645C87.1894 37.4113 85.2468 38.5238 83.1861 39.3747C83.1861 39.3747 86.3728 40.7689 89.6233 39.9085C88.8866 42.1244 87.6735 44.1522 86.0694 45.8493C84.4652 47.5463 82.5089 48.8715 80.3379 49.7317Z" fill="#263238"/>
<path d="M68.6031 26.074C68.6031 26.074 70.4275 23.9388 76.0242 24.9028C79.4022 25.4884 85.1384 29.4241 87.9746 35.9808C88.3331 36.8094 89.1378 37.0882 89.568 37.6459C89.6679 37.7708 89.7771 37.888 89.8946 37.9965L91.6673 38.0164C91.6673 31.8898 88.2295 25.7075 84.979 22.1304C81.7285 18.5532 76.3748 16.8045 72.5586 16.669C71.2053 16.6065 69.8565 16.8659 68.623 17.4259C67.5833 20.3219 67.1531 23.1939 68.6031 26.074Z" fill="#37474F"/>
<path d="M87.584 35.1562C87.584 35.1562 90.7708 34.0807 89.4602 28.9739C90.8353 31.7959 91.584 34.8819 91.6551 38.0203L89.8824 38.0004C89.7649 37.8919 89.6557 37.7747 89.5558 37.6498C89.1256 37.0922 88.3209 36.8133 87.9624 35.9848C87.8469 35.698 87.7154 35.4271 87.584 35.1562Z" fill="#263238"/>
<path d="M71.8698 29.9976C70.5271 28.9221 69.416 27.5861 68.6034 26.0699C67.1494 23.1898 67.5796 20.3178 68.6034 17.4138C65.321 18.8638 63.3612 23.1301 62.6282 26.5758C62.2299 28.5038 62.1821 30.1609 62.5087 30.9576C63.4289 33.1246 68.8185 41.8802 91.9026 38.0242L91.8787 35.5983C86.0987 35.2398 76.0046 33.4791 71.8698 29.9976Z" fill="#37474F"/>
<path d="M68.6031 26.074C68.6031 26.074 68.3282 19.326 72.5586 16.669C71.2053 16.6065 69.8565 16.8659 68.623 17.4259C67.5833 20.3219 67.1531 23.1939 68.6031 26.074Z" fill="#263238"/>
<path d="M93.8867 36.0525C93.8867 36.0525 103.077 43.6808 118.082 41.944C118.082 41.944 111.709 46.1147 103.917 45.1706C103.917 45.1706 105.036 48.0148 111.601 51.4764C111.601 51.4764 95.2013 51.6278 90.9629 38.0123L93.8867 36.0525Z" fill="#37474F"/>
<path d="M93.2415 39.9006C96.4761 40.761 99.6788 39.3668 99.6788 39.3668L99.0773 39.0959L98.9856 39.0561L98.4519 38.8052L98.3324 38.7494L97.8464 38.5064C97.8053 38.4875 97.7654 38.4663 97.7269 38.4427C97.5715 38.367 97.4241 38.2873 97.2767 38.2116L97.1572 38.1479L96.7589 37.9208L96.6434 37.8571L96.2689 37.642L96.1654 37.5822L95.8148 37.3831L95.7192 37.3273L95.4165 37.1361L95.3288 37.0803L95.0619 36.905L94.9823 36.8533L94.7512 36.6979L94.6835 36.6501L94.4883 36.5147L94.4286 36.4708L94.2732 36.3593L94.2214 36.3195L94.1059 36.2318L94.0541 36.192L93.9824 36.1402L93.9346 36.1044L93.9107 36.0805L93.8828 36.0605L92.9268 36.7019L90.959 38.0204C95.1934 51.6359 111.593 51.4845 111.597 51.4845C103.16 51.0861 94.2971 44.6847 93.2415 39.9006Z" fill="#263238"/>
<path d="M114.261 26.074C114.261 26.074 112.437 23.9388 106.84 24.9028C103.462 25.4884 97.7261 29.4241 94.8899 35.9808C94.5314 36.8094 93.7268 37.0882 93.2965 37.6459C93.1966 37.7708 93.0874 37.888 92.9699 37.9965L91.1973 38.0164C91.1973 31.8898 94.635 25.7075 97.8855 22.1304C101.136 18.5532 106.49 16.8045 110.306 16.669C111.659 16.6065 113.008 16.8659 114.242 17.4259C115.281 20.3219 115.731 23.1939 114.261 26.074Z" fill="#37474F"/>
<path d="M95.2801 35.1562C95.2801 35.1562 92.0933 34.0807 93.4039 28.9739C92.0288 31.7959 91.28 34.8819 91.209 38.0203L92.9816 38.0004C93.0991 37.8919 93.2083 37.7747 93.3083 37.6498C93.7385 37.0922 94.5431 36.8133 94.9016 35.9848C95.0172 35.698 95.1486 35.4271 95.2801 35.1562Z" fill="#263238"/>
<path d="M110.996 29.9976C112.338 28.9221 113.449 27.5861 114.262 26.0699C115.716 23.1898 115.286 20.3178 114.262 17.4138C117.544 18.8638 119.504 23.1301 120.237 26.5758C120.636 28.5038 120.683 30.1609 120.357 30.9576C119.437 33.1246 114.047 41.8802 90.9629 38.0242L90.9868 35.5983C96.7668 35.2398 106.861 33.4791 110.996 29.9976Z" fill="#37474F"/>
<path d="M114.262 26.074C114.262 26.074 114.537 19.326 110.307 16.669C111.66 16.6065 113.009 16.8659 114.242 17.4259C115.282 20.3219 115.732 23.1939 114.262 26.074Z" fill="#263238"/>
<path d="M94.6193 36.4149C94.5941 36.1805 94.507 35.9571 94.367 35.7674C94.227 35.5777 94.0392 35.4286 93.8226 35.3354C93.056 35.0663 92.244 34.9499 91.4326 34.9928C90.5982 34.9499 89.7643 35.0857 88.9867 35.3912C88.7875 35.487 88.6164 35.6328 88.49 35.8142C88.3637 35.9957 88.2864 36.2067 88.2657 36.4269C88.1821 37.1519 88.1303 38.3788 88.6083 39.0759C89.3958 39.7504 90.4038 40.112 91.4405 40.0917C92.4728 40.1141 93.4765 39.752 94.2568 39.0759C94.7309 38.3668 94.6831 37.1399 94.6193 36.4149Z" fill="#455A64"/>
<path d="M38.3534 49.7077C30.1276 37.2992 26.1521 27.0976 32.8164 26.2053C34.852 26.6794 36.286 29.0256 38.0626 34.2559C38.0626 34.2559 41.7075 42.1511 43.3447 45.5291C46.412 47.9869 52.3194 53.496 55.2951 54.7428C55.8249 54.9579 56.6016 54.4958 57.1394 54.3046C58.5894 53.7987 59.4259 54.1532 60.84 54.0297C61.9474 53.9341 62.5131 53.5478 62.6485 53.7868C62.8131 54.0606 62.8635 54.3881 62.789 54.6988C62.7145 55.0094 62.521 55.2784 62.2502 55.4479C61.8239 55.7734 61.3173 55.9772 60.7843 56.0374C60.7843 56.0374 61.4535 56.5433 64.0268 56.5353C66.9148 56.5353 68.0381 57.3041 65.7596 60.2041C64.3295 62.0166 62.0669 62.5663 56.996 60.7419C55.1188 60.1064 53.2897 59.337 51.5227 58.4394C48.0372 56.5274 49.2721 57.3281 46.5315 55.5913C44.3127 54.1851 39.1541 50.9266 38.3534 49.7077Z" fill="#9C5456"/>
<path d="M144.513 49.7077C154.296 36.3871 157.913 27.2849 151.245 26.3926C149.213 26.8666 147.775 29.2168 145.999 34.4471C145.999 34.4471 141.159 42.1551 139.526 45.5331C136.454 47.9909 130.547 53.5 127.575 54.7468C127.049 54.9619 126.269 54.4998 125.731 54.3086C124.281 53.8027 123.444 54.1573 122.03 54.0338C120.923 53.9382 120.357 53.5518 120.222 53.7908C120.057 54.0646 120.007 54.3921 120.081 54.7028C120.156 55.0134 120.349 55.2824 120.62 55.4519C121.046 55.7774 121.553 55.9812 122.086 56.0414C122.086 56.0414 121.417 56.5473 118.843 56.5394C115.959 56.5394 114.836 57.3082 117.111 60.2081C118.541 62.0206 120.803 62.5703 125.874 60.7459C127.751 60.1104 129.581 59.341 131.348 58.4435C134.837 56.5314 133.598 57.3321 136.339 55.5953C138.558 54.1851 143.656 50.8749 144.513 49.7077Z" fill="#FFB3B2"/>
<path d="M150.39 26.1694C150.39 26.1694 152.752 26.1694 153.943 27.3326C155.134 28.4958 155.58 30.6349 154.377 33.9212C153.174 37.2076 149.888 42.5852 149.888 42.5852C149.888 42.5852 146.016 42.7964 142.574 39.3069L146.008 32.9094C146.008 32.9094 147.334 28.0934 150.39 26.1694Z" fill="#F7F7F7"/>
<path opacity="0.1" d="M150.39 26.1694C150.39 26.1694 152.752 26.1694 153.943 27.3326C155.134 28.4958 155.58 30.6349 154.377 33.9212C153.174 37.2076 149.888 42.5852 149.888 42.5852C149.888 42.5852 146.016 42.7964 142.574 39.3069L146.008 32.9094C146.008 32.9094 147.334 28.0934 150.39 26.1694Z" fill="black"/>
</svg>
